<svg width="54" height="54" viewBox="0 0 54 54" fill="none" xmlns="http://www.w3.org/2000/svg">
<circle cx="27" cy="27" r="25.25" fill="url(#paint0_linear_2318_3239)" stroke="url(#paint1_linear_2318_3239)" stroke-width="2.5"/>
<path d="M35.8051 19.2984C34.1854 18.588 32.4486 18.0647 30.6326 17.7649C30.5995 17.7591 30.5665 17.7736 30.5495 17.8025C30.3261 18.1823 30.0787 18.6777 29.9054 19.067C27.9522 18.7875 26.009 18.7875 24.0959 19.067C23.9226 18.669 23.6662 18.1823 23.4418 17.8025C23.4248 17.7746 23.3917 17.7601 23.3587 17.7649C21.5437 18.0637 19.8069 18.5871 18.1862 19.2984C18.1722 19.3041 18.1601 19.3138 18.1522 19.3263C14.8577 24.0307 13.9553 28.6195 14.398 33.1514C14.4 33.1735 14.413 33.1948 14.431 33.2082C16.6046 34.7339 18.7101 35.6602 20.7764 36.2741C20.8095 36.2838 20.8445 36.2722 20.8656 36.2462C21.3544 35.6082 21.7901 34.9354 22.1637 34.2279C22.1858 34.1865 22.1647 34.1374 22.1196 34.121C21.4285 33.8704 20.7704 33.5648 20.1374 33.2179C20.0873 33.1899 20.0833 33.1215 20.1294 33.0887C20.2626 32.9933 20.3958 32.894 20.523 32.7938C20.546 32.7755 20.5781 32.7716 20.6052 32.7832C24.764 34.5981 29.2664 34.5981 33.3761 32.7832C33.4031 32.7706 33.4352 32.7745 33.4592 32.7928C33.5865 32.8931 33.7197 32.9933 33.8539 33.0887C33.9 33.1215 33.897 33.1899 33.8469 33.2179C33.2138 33.5716 32.5557 33.8704 31.8636 34.12C31.8186 34.1364 31.7985 34.1865 31.8206 34.2279C32.2022 34.9344 32.6379 35.6072 33.1177 36.2452C33.1377 36.2722 33.1738 36.2838 33.2068 36.2741C35.2832 35.6602 37.3887 34.7339 39.5622 33.2082C39.5813 33.1948 39.5933 33.1745 39.5953 33.1523C40.1252 27.913 38.7078 23.3618 35.8381 19.3273C35.8311 19.3138 35.8191 19.3041 35.8051 19.2984ZM22.7848 30.3919C21.5327 30.3919 20.501 29.2932 20.501 27.9438C20.501 26.5945 21.5127 25.4957 22.7848 25.4957C24.0668 25.4957 25.0885 26.6041 25.0685 27.9438C25.0685 29.2932 24.0568 30.3919 22.7848 30.3919ZM31.2286 30.3919C29.9765 30.3919 28.9448 29.2932 28.9448 27.9438C28.9448 26.5945 29.9565 25.4957 31.2286 25.4957C32.5107 25.4957 33.5323 26.6041 33.5123 27.9438C33.5123 29.2932 32.5107 30.3919 31.2286 30.3919Z" fill="white"/>
<defs>
<linearGradient id="paint0_linear_2318_3239" x1="26.9073" y1="3" x2="26.9074" y2="51" gradientUnits="userSpaceOnUse">
<stop stop-color="#141537"/>
<stop offset="1" stop-color="#33367C"/>
</linearGradient>
<linearGradient id="paint1_linear_2318_3239" x1="3" y1="3" x2="54.5697" y2="7.68341" gradientUnits="userSpaceOnUse">
<stop stop-color="#D0DAFF"/>
<stop offset="1" stop-color="#4B72FF"/>
</linearGradient>
</defs>
</svg>
