<svg width="238" height="78" viewBox="0 0 238 78" fill="none" xmlns="http://www.w3.org/2000/svg">
<path d="M67.3739 76.084C66.9623 76.3584 67.1566 77 67.6513 77L170.349 77C170.843 77 171.038 76.3584 170.626 76.084L169.252 75.1679C169.088 75.0584 168.895 75 168.697 75H69.3025C69.1051 75 68.9121 75.0584 68.7478 75.168L67.3739 76.084Z" fill="url(#paint0_linear_2536_371)"/>
<path d="M67.3739 76.916C66.9623 76.6416 67.1566 76 67.6513 76L170.349 76C170.843 76 171.038 76.6416 170.626 76.916L169.252 77.8321C169.088 77.9416 168.895 78 168.697 78H69.3025C69.1051 78 68.9121 77.9416 68.7478 77.832L67.3739 76.916Z" fill="url(#paint1_linear_2536_371)"/>
<path d="M67.3739 1.91601C66.9623 1.64159 67.1566 1 67.6513 1L170.349 1C170.843 1 171.038 1.64161 170.626 1.91602L169.252 2.83205C169.088 2.94156 168.895 3 168.697 3H69.3025C69.1051 3 68.9121 2.94155 68.7478 2.83203L67.3739 1.91601Z" fill="url(#paint2_linear_2536_371)"/>
<path d="M67.3739 1.08399C66.9623 1.35841 67.1566 2 67.6513 2L170.349 2C170.843 2 171.038 1.35839 170.626 1.08398L169.252 0.16795C169.088 0.0584379 168.895 0 168.697 0H69.3025C69.1051 0 68.9121 0.0584459 68.7478 0.167971L67.3739 1.08399Z" fill="url(#paint3_linear_2536_371)"/>
<path d="M0 16C0 9.37258 5.37258 4 12 4H64.8544C65.243 4 65.6233 4.11324 65.9486 4.32587L67.9264 5.61858C68.2517 5.83121 68.632 5.94444 69.0206 5.94444H168.979C169.368 5.94444 169.748 5.83121 170.074 5.61858L172.051 4.32587C172.377 4.11324 172.757 4 173.146 4H226C232.627 4 238 9.37258 238 16V62C238 68.6274 232.627 74 226 74H173.146C172.757 74 172.377 73.8868 172.051 73.6741L170.074 72.3814C169.748 72.1688 169.368 72.0556 168.979 72.0556H69.0206C68.632 72.0556 68.2517 72.1688 67.9264 72.3814L65.9486 73.6741C65.6233 73.8868 65.243 74 64.8544 74H12C5.37259 74 0 68.6274 0 62V16Z" fill="url(#paint4_linear_2536_371)"/>
<defs>
<linearGradient id="paint0_linear_2536_371" x1="70" y1="79" x2="84.1529" y2="35.9415" gradientUnits="userSpaceOnUse">
<stop stop-color="#D0DAFF"/>
<stop offset="1" stop-color="#4B72FF"/>
</linearGradient>
<linearGradient id="paint1_linear_2536_371" x1="70" y1="74" x2="84.1529" y2="117.059" gradientUnits="userSpaceOnUse">
<stop stop-color="#D0DAFF"/>
<stop offset="1" stop-color="#4B72FF"/>
</linearGradient>
<linearGradient id="paint2_linear_2536_371" x1="70" y1="-0.999996" x2="84.1529" y2="42.0585" gradientUnits="userSpaceOnUse">
<stop stop-color="#D0DAFF"/>
<stop offset="1" stop-color="#4B72FF"/>
</linearGradient>
<linearGradient id="paint3_linear_2536_371" x1="70" y1="4" x2="84.1529" y2="-39.0585" gradientUnits="userSpaceOnUse">
<stop stop-color="#D0DAFF"/>
<stop offset="1" stop-color="#4B72FF"/>
</linearGradient>
<linearGradient id="paint4_linear_2536_371" x1="0" y1="4" x2="235.368" y2="76.6764" gradientUnits="userSpaceOnUse">
<stop stop-color="#D0DAFF"/>
<stop offset="1" stop-color="#4B72FF"/>
</linearGradient>
</defs>
</svg>
