<svg width="54" height="54" viewBox="0 0 54 54" fill="none" xmlns="http://www.w3.org/2000/svg">
<circle cx="27" cy="27" r="25.25" fill="url(#paint0_linear_2318_3243)" stroke="url(#paint1_linear_2318_3243)" stroke-width="2.5"/>
<path d="M26.9969 23.243C24.9283 23.243 23.2402 24.9311 23.2402 26.9997C23.2402 29.0683 24.9283 30.7564 26.9969 30.7564C29.0655 30.7564 30.7536 29.0683 30.7536 26.9997C30.7536 24.9311 29.0655 23.243 26.9969 23.243ZM38.2642 26.9997C38.2642 25.444 38.2783 23.9024 38.1909 22.3496C38.1035 20.5459 37.6921 18.9452 36.3731 17.6262C35.0514 16.3045 33.4534 15.8959 31.6498 15.8085C30.0941 15.7211 28.5525 15.7352 26.9997 15.7352C25.444 15.7352 23.9025 15.7211 22.3496 15.8085C20.5459 15.8959 18.9452 16.3073 17.6262 17.6262C16.3045 18.948 15.8959 20.5459 15.8085 22.3496C15.7211 23.9053 15.7352 25.4468 15.7352 26.9997C15.7352 28.5525 15.7211 30.0969 15.8085 31.6498C15.8959 33.4534 16.3073 35.0542 17.6262 36.3731C18.948 37.6949 20.5459 38.1035 22.3496 38.1909C23.9053 38.2782 25.4468 38.2641 26.9997 38.2641C28.5554 38.2641 30.0969 38.2782 31.6498 38.1909C33.4534 38.1035 35.0542 37.692 36.3731 36.3731C37.6949 35.0514 38.1035 33.4534 38.1909 31.6498C38.2811 30.0969 38.2642 28.5553 38.2642 26.9997ZM26.9969 32.7799C23.7982 32.7799 21.2167 30.1984 21.2167 26.9997C21.2167 23.801 23.7982 21.2195 26.9969 21.2195C30.1956 21.2195 32.7771 23.801 32.7771 26.9997C32.7771 30.1984 30.1956 32.7799 26.9969 32.7799ZM33.0138 22.3327C32.267 22.3327 31.6639 21.7296 31.6639 20.9828C31.6639 20.2359 32.267 19.6328 33.0138 19.6328C33.7606 19.6328 34.3637 20.2359 34.3637 20.9828C34.364 21.1601 34.3292 21.3357 34.2614 21.4996C34.1937 21.6635 34.0942 21.8124 33.9688 21.9378C33.8434 22.0632 33.6945 22.1626 33.5307 22.2304C33.3668 22.2981 33.1911 22.3329 33.0138 22.3327Z" fill="white"/>
<defs>
<linearGradient id="paint0_linear_2318_3243" x1="26.9073" y1="3" x2="26.9074" y2="51" gradientUnits="userSpaceOnUse">
<stop stop-color="#141537"/>
<stop offset="1" stop-color="#33367C"/>
</linearGradient>
<linearGradient id="paint1_linear_2318_3243" x1="3" y1="3" x2="54.5697" y2="7.68341" gradientUnits="userSpaceOnUse">
<stop stop-color="#D0DAFF"/>
<stop offset="1" stop-color="#4B72FF"/>
</linearGradient>
</defs>
</svg>
