<svg width="54" height="54" viewBox="0 0 54 54" fill="none" xmlns="http://www.w3.org/2000/svg">
<circle cx="27" cy="27" r="25.25" fill="url(#paint0_linear_2318_3230)" stroke="url(#paint1_linear_2318_3230)" stroke-width="2.5"/>
<path d="M17.4473 26.4027L21.7749 28.0157L23.4619 33.4413C23.5353 33.8079 23.9754 33.8812 24.2688 33.6613L26.6893 31.6817C26.9093 31.4617 27.2761 31.4617 27.5695 31.6817L31.8971 34.8344C32.1905 35.0543 32.6306 34.9077 32.7039 34.5411L35.9313 19.1441C36.0046 18.7775 35.6379 18.4109 35.2711 18.5575L17.4473 25.4495C17.0072 25.5962 17.0072 26.256 17.4473 26.4027ZM23.2419 27.2092L31.7504 22.0035C31.8971 21.9302 32.0438 22.1502 31.8971 22.2235L24.9289 28.7489C24.7088 28.9688 24.4888 29.2621 24.4888 29.6287L24.2688 31.3884C24.2688 31.6083 23.902 31.6817 23.8287 31.3884L22.9485 28.1623C22.7284 27.7957 22.8751 27.3558 23.2419 27.2092Z" fill="white"/>
<defs>
<linearGradient id="paint0_linear_2318_3230" x1="26.9073" y1="3" x2="26.9074" y2="51" gradientUnits="userSpaceOnUse">
<stop stop-color="#141537"/>
<stop offset="1" stop-color="#33367C"/>
</linearGradient>
<linearGradient id="paint1_linear_2318_3230" x1="3" y1="3" x2="54.5697" y2="7.68341" gradientUnits="userSpaceOnUse">
<stop stop-color="#D0DAFF"/>
<stop offset="1" stop-color="#4B72FF"/>
</linearGradient>
</defs>
</svg>
