<svg width="54" height="54" viewBox="0 0 54 54" fill="none" xmlns="http://www.w3.org/2000/svg">
<circle cx="27" cy="27" r="25.25" fill="url(#paint0_linear_2318_3233)" stroke="url(#paint1_linear_2318_3233)" stroke-width="2.5"/>
<path fill-rule="evenodd" clip-rule="evenodd" d="M38.764 19.794C37.9336 20.1628 37.0399 20.4111 36.1026 20.5233C37.0595 19.9498 37.7943 19.0422 38.1399 17.9607C37.2454 18.4921 36.2524 18.8766 35.1976 19.0851C34.3521 18.185 33.1467 17.6221 31.8148 17.6221C29.2558 17.6221 27.1808 19.6962 27.1808 22.2542C27.1808 22.6169 27.2222 22.9707 27.3013 23.3101C23.4495 23.1174 20.0351 21.2728 17.7493 18.4702C17.3503 19.1543 17.1222 19.9498 17.1222 20.7987C17.1222 22.4055 17.9391 23.8233 19.1836 24.6542C18.4232 24.6301 17.7094 24.4216 17.0838 24.0747V24.1326C17.0838 26.3776 18.6822 28.2493 20.8008 28.676C20.4123 28.7813 20.0027 28.8385 19.5804 28.8385C19.2815 28.8385 18.9908 28.8092 18.7078 28.755C19.2973 30.595 21.0093 31.9346 23.0369 31.9723C21.4513 33.214 19.4531 33.9553 17.2818 33.9553C16.9068 33.9553 16.5379 33.9335 16.1758 33.8898C18.2267 35.2038 20.6623 35.9715 23.2793 35.9715C31.8028 35.9715 36.4639 28.913 36.4639 22.7923C36.4639 22.5914 36.4602 22.3912 36.4504 22.1932C37.3569 21.5385 38.1429 20.7227 38.764 19.794Z" fill="white"/>
<defs>
<linearGradient id="paint0_linear_2318_3233" x1="26.9073" y1="3" x2="26.9074" y2="51" gradientUnits="userSpaceOnUse">
<stop stop-color="#141537"/>
<stop offset="1" stop-color="#33367C"/>
</linearGradient>
<linearGradient id="paint1_linear_2318_3233" x1="3" y1="3" x2="54.5697" y2="7.68341" gradientUnits="userSpaceOnUse">
<stop stop-color="#D0DAFF"/>
<stop offset="1" stop-color="#4B72FF"/>
</linearGradient>
</defs>
</svg>
