<svg width="48" height="48" viewBox="0 0 48 48" fill="none" xmlns="http://www.w3.org/2000/svg">
<path d="M0 11.893C0 5.32467 5.32466 0 11.893 0H12.5472C12.9432 0 13.3011 0.236005 13.4571 0.6C13.6131 0.963995 13.9711 1.2 14.3671 1.2H33.6329C34.0289 1.2 34.3869 0.963995 34.5429 0.6C34.6989 0.236005 35.0568 0 35.4528 0H36.107C42.6753 0 48 5.32467 48 11.893V36.107C48 42.6753 42.6753 48 36.107 48H35.4528C35.0568 48 34.6989 47.764 34.5429 47.4C34.3869 47.036 34.0289 46.8 33.6329 46.8H14.3671C13.9711 46.8 13.6131 47.036 13.4571 47.4C13.3011 47.764 12.9432 48 12.5472 48H11.893C5.32466 48 0 42.6753 0 36.107V11.893Z" fill="url(#paint0_linear_2318_815)"/>
<rect x="5" y="5" width="38" height="38" rx="7" fill="url(#paint1_linear_2318_815)" stroke="url(#paint2_linear_2318_815)" stroke-width="2"/>
<g clip-path="url(#clip0_2318_815)">
<g filter="url(#filter0_d_2318_815)">
<path d="M25.167 31H33.3337M14.667 17H33.3337H14.667ZM14.667 24H33.3337H14.667Z" stroke="white" stroke-width="2.33333" stroke-linecap="round" stroke-linejoin="round" shape-rendering="crispEdges"/>
<path d="M25.167 31H33.3337M14.667 17H33.3337H14.667ZM14.667 24H33.3337H14.667Z" stroke="white" stroke-width="2.33333" stroke-linecap="round" stroke-linejoin="round" shape-rendering="crispEdges"/>
</g>
</g>
<defs>
<filter id="filter0_d_2318_815" x="9.50049" y="13.8333" width="29" height="24.3333" filterUnits="userSpaceOnUse" color-interpolation-filters="sRGB">
<feFlood flood-opacity="0" result="BackgroundImageFix"/>
<feColorMatrix in="SourceAlpha" type="matrix" values="0 0 0 0 0 0 0 0 0 0 0 0 0 0 0 0 0 0 127 0" result="hardAlpha"/>
<feOffset dy="2"/>
<feGaussianBlur stdDeviation="2"/>
<feComposite in2="hardAlpha" operator="out"/>
<feColorMatrix type="matrix" values="0 0 0 0 0.0784314 0 0 0 0 0.0823529 0 0 0 0 0.215686 0 0 0 1 0"/>
<feBlend mode="normal" in2="BackgroundImageFix" result="effect1_dropShadow_2318_815"/>
<feBlend mode="normal" in="SourceGraphic" in2="effect1_dropShadow_2318_815" result="shape"/>
</filter>
<linearGradient id="paint0_linear_2318_815" x1="0" y1="0" x2="51.5697" y2="4.68341" gradientUnits="userSpaceOnUse">
<stop stop-color="#A9BCFF"/>
<stop offset="1" stop-color="#586EBD"/>
</linearGradient>
<linearGradient id="paint1_linear_2318_815" x1="23.9228" y1="4" x2="23.9228" y2="44" gradientUnits="userSpaceOnUse">
<stop stop-color="#1E2053"/>
<stop offset="1" stop-color="#3E419F"/>
</linearGradient>
<linearGradient id="paint2_linear_2318_815" x1="44" y1="24" x2="4" y2="24" gradientUnits="userSpaceOnUse">
<stop stop-color="#303274"/>
<stop offset="1" stop-color="#303274"/>
</linearGradient>
<clipPath id="clip0_2318_815">
<rect width="28" height="28" fill="white" transform="translate(10 10)"/>
</clipPath>
</defs>
</svg>
