<svg width="52" height="52" viewBox="0 0 52 52" fill="none" xmlns="http://www.w3.org/2000/svg">
<path d="M26.0007 4.33301C21.7154 4.33301 17.5264 5.60374 13.9633 7.9845C10.4002 10.3653 7.62317 13.7491 5.98327 17.7082C4.34337 21.6673 3.9143 26.0237 4.75031 30.2266C5.58633 34.4296 7.64988 38.2902 10.68 41.3203C13.7102 44.3505 17.5708 46.414 21.7737 47.25C25.9766 48.086 30.3331 47.657 34.2921 46.0171C38.2512 44.3772 41.6351 41.6001 44.0158 38.037C46.3966 34.474 47.6673 30.2849 47.6673 25.9997C47.6673 23.1544 47.1069 20.3369 46.018 17.7082C44.9292 15.0795 43.3332 12.691 41.3213 10.679C39.3094 8.66709 36.9209 7.07114 34.2921 5.98228C31.6634 4.89343 28.846 4.33301 26.0007 4.33301ZM26.0007 43.333C22.5725 43.333 19.2212 42.3164 16.3708 40.4118C13.5203 38.5072 11.2987 35.8001 9.98675 32.6329C8.67483 29.4656 8.33157 25.9804 9.00038 22.6181C9.66919 19.2558 11.32 16.1673 13.7441 13.7432C16.1683 11.319 19.2568 9.66821 22.6191 8.9994C25.9814 8.33059 29.4666 8.67384 32.6338 9.98576C35.8011 11.2977 38.5082 13.5193 40.4128 16.3698C42.3174 19.2202 43.334 22.5715 43.334 25.9997C43.334 30.5968 41.5078 35.0056 38.2572 38.2562C35.0065 41.5068 30.5977 43.333 26.0007 43.333Z" fill="url(#paint0_linear_2318_3767)"/>
<path d="M26.0007 4.33301C21.7154 4.33301 17.5264 5.60374 13.9633 7.9845C10.4002 10.3653 7.62317 13.7491 5.98327 17.7082C4.34337 21.6673 3.9143 26.0237 4.75031 30.2266C5.58633 34.4296 7.64988 38.2902 10.68 41.3203C13.7102 44.3505 17.5708 46.414 21.7737 47.25C25.9766 48.086 30.3331 47.657 34.2921 46.0171C38.2512 44.3772 41.6351 41.6001 44.0158 38.037C46.3966 34.474 47.6673 30.2849 47.6673 25.9997C47.6673 23.1544 47.1069 20.3369 46.018 17.7082C44.9292 15.0795 43.3332 12.691 41.3213 10.679C39.3094 8.66709 36.9209 7.07114 34.2921 5.98228C31.6634 4.89343 28.846 4.33301 26.0007 4.33301ZM26.0007 43.333C22.5725 43.333 19.2212 42.3164 16.3708 40.4118C13.5203 38.5072 11.2987 35.8001 9.98675 32.6329C8.67483 29.4656 8.33157 25.9804 9.00038 22.6181C9.66919 19.2558 11.32 16.1673 13.7441 13.7432C16.1683 11.319 19.2568 9.66821 22.6191 8.9994C25.9814 8.33059 29.4666 8.67384 32.6338 9.98576C35.8011 11.2977 38.5082 13.5193 40.4128 16.3698C42.3174 19.2202 43.334 22.5715 43.334 25.9997C43.334 30.5968 41.5078 35.0056 38.2572 38.2562C35.0065 41.5068 30.5977 43.333 26.0007 43.333Z" fill="url(#paint1_linear_2318_3767)"/>
<path d="M26.0007 23.8333C21.6673 23.8333 21.6673 22.4683 21.6673 21.6667C21.6673 20.865 23.184 19.5 26.0007 19.5C28.8173 19.5 29.0123 20.8867 29.034 21.6667H33.3673C33.338 20.1906 32.8072 18.7685 31.862 17.6344C30.9169 16.5003 29.6139 15.7216 28.1673 15.4267V13H23.834V15.3617C19.5007 16.0767 17.334 18.8717 17.334 21.6667C17.334 24.0933 18.4607 28.1667 26.0007 28.1667C30.334 28.1667 30.334 29.64 30.334 30.3333C30.334 31.0267 28.9907 32.5 26.0007 32.5C22.014 32.5 21.6673 30.6367 21.6673 30.3333H17.334C17.334 32.3267 18.764 35.8583 23.834 36.66V39H28.1673V36.66C32.5007 35.9233 34.6673 33.1283 34.6673 30.3333C34.6673 27.9067 33.5407 23.8333 26.0007 23.8333Z" fill="url(#paint2_linear_2318_3767)"/>
<path d="M26.0007 23.8333C21.6673 23.8333 21.6673 22.4683 21.6673 21.6667C21.6673 20.865 23.184 19.5 26.0007 19.5C28.8173 19.5 29.0123 20.8867 29.034 21.6667H33.3673C33.338 20.1906 32.8072 18.7685 31.862 17.6344C30.9169 16.5003 29.6139 15.7216 28.1673 15.4267V13H23.834V15.3617C19.5007 16.0767 17.334 18.8717 17.334 21.6667C17.334 24.0933 18.4607 28.1667 26.0007 28.1667C30.334 28.1667 30.334 29.64 30.334 30.3333C30.334 31.0267 28.9907 32.5 26.0007 32.5C22.014 32.5 21.6673 30.6367 21.6673 30.3333H17.334C17.334 32.3267 18.764 35.8583 23.834 36.66V39H28.1673V36.66C32.5007 35.9233 34.6673 33.1283 34.6673 30.3333C34.6673 27.9067 33.5407 23.8333 26.0007 23.8333Z" fill="url(#paint3_linear_2318_3767)"/>
<defs>
<linearGradient id="paint0_linear_2318_3767" x1="4.33398" y1="4.33301" x2="51.1878" y2="8.54985" gradientUnits="userSpaceOnUse">
<stop stop-color="#D0F5FF"/>
<stop offset="1" stop-color="#4BD9FF"/>
</linearGradient>
<linearGradient id="paint1_linear_2318_3767" x1="4.33398" y1="4.33301" x2="50.89" y2="8.56108" gradientUnits="userSpaceOnUse">
<stop stop-color="#D0DAFF"/>
<stop offset="1" stop-color="#4B72FF"/>
</linearGradient>
<linearGradient id="paint2_linear_2318_3767" x1="17.334" y1="13" x2="36.1595" y2="14.1295" gradientUnits="userSpaceOnUse">
<stop stop-color="#D0F5FF"/>
<stop offset="1" stop-color="#4BD9FF"/>
</linearGradient>
<linearGradient id="paint3_linear_2318_3767" x1="17.334" y1="13" x2="36.0414" y2="14.1326" gradientUnits="userSpaceOnUse">
<stop stop-color="#D0DAFF"/>
<stop offset="1" stop-color="#4B72FF"/>
</linearGradient>
</defs>
</svg>
