<svg width="52" height="52" viewBox="0 0 52 52" fill="none" xmlns="http://www.w3.org/2000/svg">
<path d="M34.634 5.6875C33.3893 5.6875 32.1202 6.17012 31.1809 7.10938C30.5867 7.71533 30.1659 8.46951 29.9622 9.29337C29.6242 9.2235 29.2959 9.14062 28.9465 9.14062C27.7018 9.14062 26.4327 9.57287 25.4934 10.5121C24.591 11.4245 24.0848 12.656 24.0848 13.9392C24.0848 15.2225 24.591 16.454 25.4934 17.3664L26.8633 18.7379L18.7383 26.8629L17.3668 25.493C16.922 25.0428 16.3925 24.6851 15.8087 24.4408C15.2249 24.1965 14.5985 24.0703 13.9657 24.0695C12.7209 24.0695 11.4518 24.5521 10.5125 25.493C9.93774 26.0783 9.51994 26.7991 9.29781 27.5888C9.07568 28.3785 9.05641 29.2114 9.24178 30.0105C8.46178 30.2153 7.72566 30.563 7.10978 31.1805C6.20734 32.0929 5.70117 33.3243 5.70117 34.6076C5.70117 35.8909 6.20734 37.1224 7.10978 38.0348L7.16016 38.0868L9.34416 40.3211L8.22616 41.4375L10.5629 43.7743L11.6809 42.6562L13.9657 44.8906C14.8781 45.7936 16.1099 46.3 17.3936 46.3C18.6773 46.3 19.9091 45.7936 20.8215 44.8906C21.4063 44.2974 21.8263 43.562 22.0403 42.757C23.6003 43.095 25.3017 42.6936 26.509 41.4895C27.4125 40.577 27.9192 39.3448 27.9192 38.0608C27.9192 36.7767 27.4125 35.5445 26.509 34.632L25.1375 33.2621L33.2625 25.1371L34.6324 26.5086C35.5449 27.4121 36.7771 27.9188 38.0612 27.9188C39.3452 27.9188 40.5774 27.4121 41.4899 26.5086C42.6892 25.3013 43.0954 23.5999 42.7574 22.0399C43.5635 21.8285 44.2995 21.4081 44.891 20.8211C45.7945 19.9086 46.3013 18.6764 46.3013 17.3924C46.3013 16.1083 45.7945 14.8761 44.891 13.9636L42.6567 11.6821L43.7747 10.5641L41.4379 8.22575L40.3199 9.34375L38.0352 7.10938C37.5903 6.65943 37.0607 6.30211 36.4769 6.05806C35.8931 5.81401 35.2668 5.68806 34.634 5.6875ZM34.634 8.9375C34.8412 8.93479 35.0469 8.97382 35.2387 9.05227C35.4305 9.13072 35.6045 9.24698 35.7504 9.39413L42.6063 16.25C42.7575 16.3942 42.8778 16.5675 42.96 16.7595C43.0422 16.9516 43.0846 17.1583 43.0846 17.3672C43.0846 17.5761 43.0422 17.7828 42.96 17.9748C42.8778 18.1669 42.7575 18.3402 42.6063 18.4844C42.4567 18.6355 42.2786 18.7554 42.0824 18.8372C41.8862 18.9191 41.6757 18.9612 41.4631 18.9612C41.2505 18.9612 41.04 18.9191 40.8438 18.8372C40.6475 18.7554 40.4695 18.6355 40.3199 18.4844L33.516 11.6789C33.3652 11.5293 33.2455 11.3514 33.1638 11.1553C33.0821 10.9592 33.04 10.7489 33.04 10.5365C33.04 10.3241 33.0821 10.1138 33.1638 9.91771C33.2455 9.72163 33.3652 9.54369 33.516 9.39413C33.6621 9.24678 33.8364 9.13041 34.0285 9.05195C34.2206 8.9735 34.4266 8.93457 34.634 8.9375ZM28.9465 12.3403C29.3528 12.3403 29.746 12.5304 30.0629 12.8472L39.1532 21.9375C39.304 22.0871 39.4237 22.265 39.5054 22.4611C39.5871 22.6572 39.6292 22.8675 39.6292 23.0799C39.6292 23.2923 39.5871 23.5026 39.5054 23.6987C39.4237 23.8947 39.304 24.0727 39.1532 24.2222C38.5194 24.856 37.5607 24.8072 36.9188 24.1719H36.8668L27.7782 15.0816C27.1444 14.4479 27.1932 13.4891 27.8285 12.8472C28.1389 12.5499 28.5517 12.3403 28.9465 12.3403ZM29.1497 21.0226L30.9778 22.8524L22.8528 30.9774L21.023 29.1493L29.1497 21.0226ZM13.9657 27.3211C14.3719 27.3211 14.7652 27.5112 15.082 27.8281H15.1324L24.2227 36.9184C24.8564 37.5521 24.8077 38.5109 24.1723 39.1527C23.5385 39.754 22.5668 39.78 21.9379 39.1527L20.8199 38.0348L20.6184 37.8836L13.9657 31.1805L12.8477 30.0625C12.6968 29.9129 12.5771 29.735 12.4954 29.5389C12.4137 29.3428 12.3716 29.1325 12.3716 28.9201C12.3716 28.7077 12.4137 28.4974 12.4954 28.3013C12.5771 28.1053 12.6968 27.9273 12.8477 27.7778C12.9936 27.6301 13.1679 27.5134 13.36 27.4347C13.5521 27.356 13.7581 27.3168 13.9657 27.3195V27.3211ZM10.5125 33.0086C10.9188 33.0086 11.3624 33.1987 11.6793 33.5156L18.4848 40.3211C18.6356 40.4707 18.7553 40.6486 18.837 40.8447C18.9187 41.0408 18.9608 41.2511 18.9608 41.4635C18.9608 41.6759 18.9187 41.8862 18.837 42.0823C18.7553 42.2784 18.6356 42.4563 18.4848 42.6059C17.851 43.2396 16.8923 43.2396 16.2504 42.6059L9.39453 35.75C9.24336 35.6058 9.12302 35.4325 9.04079 35.2405C8.95857 35.0484 8.91617 34.8417 8.91617 34.6328C8.91617 34.4239 8.95857 34.2172 9.04079 34.0252C9.12302 33.8331 9.24336 33.6598 9.39453 33.5156C9.71303 33.1987 10.1063 33.007 10.5125 33.007V33.0086Z" fill="url(#paint0_linear_2318_3784)"/>
<defs>
<linearGradient id="paint0_linear_2318_3784" x1="5.70117" y1="5.6875" x2="49.3208" y2="9.64769" gradientUnits="userSpaceOnUse">
<stop stop-color="#D0DAFF"/>
<stop offset="1" stop-color="#4B72FF"/>
</linearGradient>
</defs>
</svg>
