<svg width="52" height="52" viewBox="0 0 52 52" fill="none" xmlns="http://www.w3.org/2000/svg">
<path d="M17.3081 5.48428C17.3531 5.25666 17.3519 5.02233 17.3046 4.79518C17.2573 4.56803 17.1649 4.35268 17.0328 4.16191C16.9007 3.97114 16.7317 3.80883 16.5358 3.68459C16.3398 3.56035 16.1209 3.47672 15.892 3.43865C15.6632 3.40058 15.429 3.40885 15.2033 3.46297C14.9777 3.51709 14.7653 3.61595 14.5786 3.7537C14.3919 3.89145 14.2347 4.06529 14.1164 4.2649C13.9981 4.46451 13.9212 4.68583 13.89 4.91575L6.95666 46.5158C6.91172 46.7434 6.91293 46.9777 6.96022 47.2049C7.00751 47.432 7.09993 47.6474 7.23199 47.8381C7.36406 48.0289 7.53307 48.1912 7.72903 48.3154C7.92499 48.4397 8.14389 48.5233 8.37277 48.5614C8.60164 48.5994 8.83583 48.5912 9.06145 48.5371C9.28707 48.4829 9.49953 48.3841 9.68624 48.2463C9.87294 48.1086 10.0301 47.9347 10.1484 47.7351C10.2666 47.5355 10.3436 47.3142 10.3748 47.0843L12.6975 33.1483C15.4916 33.5574 18.5111 33.6925 20.8892 35.36C22.3606 36.4173 24.062 37.11 25.8535 37.3811C29.2023 37.8872 32.1975 36.0464 35.5047 36.5699L39.9732 37.2424C40.8745 37.3811 41.8105 36.6877 41.9457 35.7864L45.0103 15.2152L45.0241 15.2014C45.0712 14.7485 44.9445 14.2947 44.6697 13.9317C44.3949 13.5687 43.9925 13.3237 43.5439 13.2462L39.0753 12.5736C35.7369 12.0779 32.7348 13.8667 29.4276 13.371C27.9443 13.1457 26.5334 12.5797 25.3057 11.7174C22.7439 9.92508 19.6932 9.62695 16.6876 9.20402L17.3116 5.48082L17.3081 5.48428ZM15.2628 17.7494L16.4068 10.9131C18.4833 11.1974 20.6812 11.3603 22.6052 12.1923L21.5825 19.0043C19.6065 18.1966 17.3775 18.0406 15.2663 17.7494H15.2628ZM12.9852 31.4427L14.1292 24.5995C16.2785 24.8976 18.5561 25.0502 20.5703 25.8752L21.6103 19.0251C23.8913 19.9611 25.6281 21.5662 28.1727 21.9406L29.2127 15.0766C31.7711 15.4614 33.8892 14.4629 36.3471 14.2653L35.3071 21.0808C32.8457 21.2888 30.7172 22.3288 28.1657 21.9475L27.1743 28.8046C24.6228 28.4232 22.8825 26.8112 20.5911 25.8787L19.5511 32.7288C17.4884 31.9003 15.1727 31.7547 12.9852 31.4427ZM27.1777 28.808C29.7223 29.1894 31.8612 28.1424 34.3225 27.9379L35.3071 21.0808C37.5777 20.8728 39.9004 21.4656 42.1295 21.8054L41.1588 28.6555C38.9263 28.3192 36.5967 27.723 34.326 27.9379L33.286 34.788C30.8281 34.9544 28.658 36.036 26.1377 35.6547L27.1777 28.8046V28.808Z" fill="url(#paint0_linear_2318_3735)"/>
<path d="M17.3081 5.48428C17.3531 5.25666 17.3519 5.02233 17.3046 4.79518C17.2573 4.56803 17.1649 4.35268 17.0328 4.16191C16.9007 3.97114 16.7317 3.80883 16.5358 3.68459C16.3398 3.56035 16.1209 3.47672 15.892 3.43865C15.6632 3.40058 15.429 3.40885 15.2033 3.46297C14.9777 3.51709 14.7653 3.61595 14.5786 3.7537C14.3919 3.89145 14.2347 4.06529 14.1164 4.2649C13.9981 4.46451 13.9212 4.68583 13.89 4.91575L6.95666 46.5158C6.91172 46.7434 6.91293 46.9777 6.96022 47.2049C7.00751 47.432 7.09993 47.6474 7.23199 47.8381C7.36406 48.0289 7.53307 48.1912 7.72903 48.3154C7.92499 48.4397 8.14389 48.5233 8.37277 48.5614C8.60164 48.5994 8.83583 48.5912 9.06145 48.5371C9.28707 48.4829 9.49953 48.3841 9.68624 48.2463C9.87294 48.1086 10.0301 47.9347 10.1484 47.7351C10.2666 47.5355 10.3436 47.3142 10.3748 47.0843L12.6975 33.1483C15.4916 33.5574 18.5111 33.6925 20.8892 35.36C22.3606 36.4173 24.062 37.11 25.8535 37.3811C29.2023 37.8872 32.1975 36.0464 35.5047 36.5699L39.9732 37.2424C40.8745 37.3811 41.8105 36.6877 41.9457 35.7864L45.0103 15.2152L45.0241 15.2014C45.0712 14.7485 44.9445 14.2947 44.6697 13.9317C44.3949 13.5687 43.9925 13.3237 43.5439 13.2462L39.0753 12.5736C35.7369 12.0779 32.7348 13.8667 29.4276 13.371C27.9443 13.1457 26.5334 12.5797 25.3057 11.7174C22.7439 9.92508 19.6932 9.62695 16.6876 9.20402L17.3116 5.48082L17.3081 5.48428ZM15.2628 17.7494L16.4068 10.9131C18.4833 11.1974 20.6812 11.3603 22.6052 12.1923L21.5825 19.0043C19.6065 18.1966 17.3775 18.0406 15.2663 17.7494H15.2628ZM12.9852 31.4427L14.1292 24.5995C16.2785 24.8976 18.5561 25.0502 20.5703 25.8752L21.6103 19.0251C23.8913 19.9611 25.6281 21.5662 28.1727 21.9406L29.2127 15.0766C31.7711 15.4614 33.8892 14.4629 36.3471 14.2653L35.3071 21.0808C32.8457 21.2888 30.7172 22.3288 28.1657 21.9475L27.1743 28.8046C24.6228 28.4232 22.8825 26.8112 20.5911 25.8787L19.5511 32.7288C17.4884 31.9003 15.1727 31.7547 12.9852 31.4427ZM27.1777 28.808C29.7223 29.1894 31.8612 28.1424 34.3225 27.9379L35.3071 21.0808C37.5777 20.8728 39.9004 21.4656 42.1295 21.8054L41.1588 28.6555C38.9263 28.3192 36.5967 27.723 34.326 27.9379L33.286 34.788C30.8281 34.9544 28.658 36.036 26.1377 35.6547L27.1777 28.8046V28.808Z" fill="url(#paint1_linear_2318_3735)"/>
<defs>
<linearGradient id="paint0_linear_2318_3735" x1="6.92383" y1="3.41516" x2="48.2255" y2="6.55134" gradientUnits="userSpaceOnUse">
<stop stop-color="#D0F5FF"/>
<stop offset="1" stop-color="#4BD9FF"/>
</linearGradient>
<linearGradient id="paint1_linear_2318_3735" x1="6.92383" y1="3.41516" x2="47.9647" y2="6.55983" gradientUnits="userSpaceOnUse">
<stop stop-color="#D0DAFF"/>
<stop offset="1" stop-color="#4B72FF"/>
</linearGradient>
</defs>
</svg>
