<svg width="80" height="80" viewBox="0 0 80 80" fill="none" xmlns="http://www.w3.org/2000/svg">
<path fill-rule="evenodd" clip-rule="evenodd" d="M80 39.9154C80 43.8055 79.4931 47.5264 78.4794 50.9937C76.452 58.0973 72.566 64.3552 67.2439 69.26C63.5269 72.7273 59.0496 75.518 54.1499 77.3784C49.7571 79.0698 44.9419 80 39.9577 80C39.2819 80 38.5216 80 37.8458 79.9154C36.8321 79.8309 35.7339 79.7463 34.7202 79.6617C27.0327 78.6469 19.9366 75.4334 14.2767 70.6131C12.1647 68.8372 10.2218 66.8076 8.44773 64.6089C7.18057 63.0021 5.99788 61.2262 4.98415 59.3658C4.73072 58.9429 4.4773 58.4355 4.22386 58.0127C3.97043 57.5053 3.71701 57.0825 3.54806 56.5751C2.87224 55.0529 2.28089 53.4461 1.77403 51.8393C1.43612 50.6554 1.0982 49.4715 0.844773 48.2875C0.675818 47.4419 0.506864 46.5962 0.422386 45.666C0.168955 43.8055 0 41.945 0 40C0 38.9006 1.03097e-05 37.8013 0.168965 36.7019C0.253442 36.0254 0.253432 35.3488 0.422386 34.6723C0.92925 30.6977 2.02744 26.9767 3.63251 23.5095C4.39281 21.8182 5.32207 20.1269 6.3358 18.6047C8.02534 15.9831 9.96832 13.5307 12.2492 11.3319C19.4298 4.3129 29.3136 0 40.1267 0C40.5491 0 40.9715 0 41.3939 0C41.8163 0 42.3231 1.93432e-06 42.7455 0.0845685C45.0264 0.253702 47.3073 0.591969 49.4192 1.09937C50.6864 1.43763 51.9536 1.7759 53.1362 2.19873C53.981 2.45243 54.7413 2.7907 55.586 3.12896C56.1774 3.38266 56.7688 3.63637 57.3601 3.89007C57.4446 3.97463 57.529 3.97463 57.698 4.0592C61.5839 5.91966 65.132 8.45666 68.1732 11.5011C68.5956 11.9239 69.018 12.3467 69.4403 12.7696C69.6938 13.1078 70.0317 13.3615 70.2851 13.6998C70.792 14.2072 71.2143 14.7992 71.6367 15.3066C73.2418 17.3362 74.5935 19.5349 75.7761 21.8182C77.1278 24.5243 78.226 27.3996 78.9863 30.3594C79.5776 33.4038 80 36.6173 80 39.9154Z" fill="url(#paint0_radial_2318_3490)"/>
<path fill-rule="evenodd" clip-rule="evenodd" d="M57.529 3.89027C57.3601 3.89027 57.2756 3.89027 57.1066 3.97483C56.6842 4.0594 56.2619 3.97484 55.8395 3.89027C55.5016 3.8057 55.3326 3.63657 54.9102 3.63657C54.4034 3.552 53.981 3.38287 53.4741 3.2983C52.9673 3.21374 52.5449 3.0446 52.038 2.87547C51.6156 2.70634 51.4467 2.7909 51.1088 2.87547C50.7709 2.96004 50.5174 2.7909 50.1795 2.70634C49.8416 2.5372 49.4192 2.5372 49.0813 2.45264C48.0676 2.2835 47.0539 1.94524 46.0401 1.69154C45.4488 1.5224 44.8574 1.52241 44.1816 1.52241C43.6748 1.52241 43.2524 1.69154 42.7455 1.69154C42.4076 1.69154 42.1542 1.60697 41.8163 1.60697C41.4784 1.5224 41.1404 1.60697 40.8025 1.60697C40.2957 1.5224 40.0422 1.43784 39.5354 1.60697C39.113 1.69154 38.8596 1.69154 38.4372 1.7761C38.0148 1.7761 37.5079 1.94524 37.0855 2.0298C36.3252 2.19894 35.4805 2.36807 34.7202 2.36807C34.2133 2.36807 33.5375 2.19894 33.1151 2.36807C32.8617 2.45264 32.6927 2.7909 32.4393 2.96003C32.0169 3.38287 31.5945 3.72114 31.2566 4.14397C30.9187 4.5668 30.5808 5.0742 30.5808 5.66617C30.5808 6.17357 30.8342 6.76553 31.0876 7.18836C31.3411 7.69576 31.4256 8.1186 30.9187 8.45686C30.3274 8.8797 29.5671 9.21796 28.8912 9.47166C28.3844 9.6408 27.962 9.72536 27.6241 9.3871C27.4551 9.30253 27.3707 9.04883 27.2017 8.8797C27.0327 8.79513 26.7793 8.8797 26.6103 8.96426C26.1035 9.1334 25.5966 9.30253 25.0898 9.3871C24.7519 9.47167 24.4984 9.6408 24.1605 9.6408C23.8226 9.72536 23.5692 9.47167 23.1468 9.55623C22.6399 9.6408 22.0486 9.8945 21.5417 9.8945C21.1193 9.8945 20.6125 9.72537 20.2746 9.55623C20.1056 9.47167 20.0211 9.30253 19.7677 9.3871C19.5987 9.3871 19.3453 9.6408 19.2608 9.80993C19.0919 9.97906 19.0919 10.2328 18.9229 10.4019C18.754 10.6556 18.6695 10.8247 18.5005 11.0784C18.2471 11.5013 17.9937 11.9241 17.7402 12.3469C17.5713 12.6006 17.4023 13.0235 17.1489 13.2772C17.0644 13.4463 16.811 13.5309 16.642 13.6154C16.2197 13.8691 15.7973 14.2074 15.3749 14.4611C14.6146 15.0531 13.8543 15.7296 13.094 16.3216C12.5026 16.7444 11.6579 16.9981 10.982 17.3364C10.5597 17.5055 10.1373 17.6746 9.71489 17.8438C9.54593 17.9283 9.2925 17.9283 9.20802 18.0975C9.03907 18.2666 8.95459 18.4357 8.87012 18.6894C8.53221 19.1123 8.10981 19.6197 7.85638 20.1271C7.68742 20.4653 7.60295 20.719 7.43399 21.0573C7.26504 21.4801 7.01163 21.903 6.92715 22.4104C6.58924 23.3406 6.58922 24.3554 6.16683 25.2856C5.99788 25.793 5.65997 26.3004 5.40654 26.8078C4.98416 27.6535 4.89969 28.6683 4.81522 29.5985C4.73074 30.1059 4.8152 30.7824 4.89967 31.2898C4.98415 31.8818 4.98416 32.4738 4.98416 33.0657C4.98416 33.6577 4.56177 34.3342 4.22386 34.7571C3.88596 35.1799 3.29461 35.349 2.87222 35.7719C2.53431 36.1101 2.11192 36.4484 1.94297 36.9558C1.85849 37.1249 1.94297 37.3786 1.94297 37.6323C1.85849 38.1397 1.68955 38.5626 1.68955 39.07C1.60507 39.6619 1.60506 40.2539 1.60506 40.9304C1.60506 41.2687 1.60506 41.5224 1.60506 41.8607C1.60506 42.1989 1.68955 42.4526 1.77403 42.7063C1.77403 42.8755 1.77403 43.1292 1.77403 43.2983C1.77403 43.552 1.94297 43.8057 1.94297 43.9748C2.11192 44.5668 2.19642 45.0742 2.2809 45.6662C2.36537 46.1736 2.61881 46.681 2.70328 47.1884C2.95672 47.8649 3.04117 48.5414 3.21013 49.3025C3.2946 49.8099 3.29461 50.4019 3.37909 50.9093C3.46357 51.3321 3.54806 51.755 3.54806 52.1778C3.54806 52.8543 3.37909 53.4463 3.37909 54.1228C3.37909 55.2222 3.80147 56.3216 4.0549 57.4209C4.13938 57.7592 4.22387 58.0129 4.30835 58.3512C1.5206 52.9389 0 46.7655 0 40.2539C0 32.3046 2.28088 24.9474 6.25131 18.774C7.94086 16.1524 9.88384 13.7 12.1647 11.5858C19.3453 4.5668 29.2291 0.253906 40.0422 0.253906C40.887 0.253906 41.8163 0.253905 42.661 0.338472C47.8986 0.253905 52.9672 1.69154 57.529 3.89027Z" fill="url(#paint1_linear_2318_3490)"/>
<path fill-rule="evenodd" clip-rule="evenodd" d="M25.8507 34.0801C25.3438 35.0103 23.9922 36.6171 24.4145 37.9701C24.5835 38.5621 25.0059 39.0695 25.2593 39.6615C25.9351 41.0991 27.2868 42.5367 28.9763 41.5219C30.9193 40.338 30.0745 38.2238 29.2298 36.7016C28.8918 36.1097 28.4695 35.4331 27.8781 35.0949C27.5402 34.9257 27.0333 34.7566 26.6954 34.672C26.0196 34.4183 26.442 34.0801 25.8507 34.0801Z" fill="#FF9F84"/>
<path fill-rule="evenodd" clip-rule="evenodd" d="M30.1582 48.2033C30.2427 47.9496 30.3272 47.1039 30.5806 46.7657C30.7496 46.512 31.1719 46.3428 31.5098 46.1737C32.1857 45.92 32.946 46.0046 33.4528 46.512C34.4666 47.3576 34.3821 48.7107 33.4528 49.6409C33.0304 50.0638 32.4391 50.4866 31.8478 50.4866C31.5099 50.4866 31.1719 50.5712 30.9185 50.402C30.5806 50.2329 30.3272 49.8946 30.2427 49.5564C30.0737 48.9644 30.1582 48.5416 30.4961 48.0342L30.1582 48.2033Z" fill="#FF9F84"/>
<path fill-rule="evenodd" clip-rule="evenodd" d="M22.8083 47.7795C22.8083 48.2023 22.5548 49.3017 23.2307 49.4708C23.5686 49.5554 23.9065 49.1325 23.9065 48.8788C23.9909 48.6251 23.9065 48.2023 23.822 47.9486C23.6531 47.6103 23.3151 47.3566 23.0617 47.6949H22.8083V47.7795Z" fill="#FF9F84"/>
<path fill-rule="evenodd" clip-rule="evenodd" d="M5.74609 40C5.83057 40.6765 5.83058 41.7759 6.25296 42.3678C6.42192 42.6215 6.59089 42.8752 6.9288 42.9598C7.26671 43.0444 7.43565 42.8752 7.6046 42.6215C7.94251 42.1987 7.94251 41.945 7.94251 41.4376C7.94251 41.0148 7.77356 40.5074 7.6046 40.0845C7.43565 39.8308 7.18221 39.5771 7.01325 39.408C6.8443 39.2389 6.67535 39.1543 6.33745 39.1543C5.91506 39.1543 5.99954 39.6617 5.91506 40H5.74609Z" fill="#FF9F84"/>
<path fill-rule="evenodd" clip-rule="evenodd" d="M65.0469 36.7017C65.0469 36.6171 65.1314 35.4332 65.3848 35.1795C65.4693 35.0949 65.7227 35.0103 65.8072 34.9258C66.1451 34.7566 66.5675 34.6721 66.9898 34.8412C67.4967 35.0949 68.0036 35.856 67.8346 36.448C67.6657 37.2091 66.8209 37.7165 66.1451 37.7165C65.3848 37.7165 64.7935 36.7862 65.2158 36.1097L65.0469 36.7017Z" fill="#FF9F84"/>
<path fill-rule="evenodd" clip-rule="evenodd" d="M23.9062 46.1728C23.9062 46.1728 23.9907 45.5808 24.0752 45.4117C24.1597 45.3271 24.2442 45.3271 24.3286 45.3271C24.4976 45.2425 24.751 45.2425 24.92 45.3271C25.1734 45.4962 25.4269 45.8345 25.3424 46.1728C25.2579 46.511 24.8355 46.8493 24.4976 46.8493C24.1597 46.8493 23.8218 46.3419 23.9907 46.0036L23.9062 46.1728Z" fill="#FF9F84"/>
<path fill-rule="evenodd" clip-rule="evenodd" d="M42.1543 53.5302C42.1543 53.5302 42.2388 52.9382 42.3233 52.7691C42.4077 52.6845 42.4922 52.6845 42.5767 52.6845C42.7456 52.6 42.9991 52.6 43.168 52.6845C43.4215 52.8537 43.6749 53.1919 43.5904 53.5302C43.5059 53.8685 43.0836 54.2067 42.7456 54.2067C42.4077 54.2067 42.0698 53.6993 42.2388 53.361L42.1543 53.5302Z" fill="#FF9F84"/>
<path fill-rule="evenodd" clip-rule="evenodd" d="M54.4883 21.2265C54.4883 21.2265 54.5728 20.6345 54.6572 20.4654C54.7417 20.3808 54.8262 20.3808 54.9107 20.3808C55.0796 20.2962 55.3331 20.2962 55.502 20.3808C55.7555 20.5499 56.0089 20.8882 55.9244 21.2265C55.8399 21.5647 55.4175 21.903 55.0796 21.903C54.7417 21.903 54.4038 21.3956 54.5727 21.0573L54.4883 21.2265Z" fill="#FF9F84"/>
<path fill-rule="evenodd" clip-rule="evenodd" d="M29.3984 68.0761C29.3984 68.0761 29.4829 67.4841 29.5674 67.315C29.6519 67.2304 29.7363 67.2304 29.8208 67.2304C29.9898 67.1459 30.2432 67.1459 30.4122 67.2304C30.6656 67.3996 30.919 67.7378 30.8346 68.0761C30.7501 68.4143 30.3277 68.7526 29.9898 68.7526C29.6519 68.7526 29.314 68.2452 29.4829 67.9069L29.3984 68.0761Z" fill="#FF9F84"/>
<path fill-rule="evenodd" clip-rule="evenodd" d="M62.4303 46.6807C61.839 47.1035 61.4166 47.2726 61.0787 47.78C60.8252 48.2029 60.4874 48.5411 60.3184 49.0485C60.1494 49.3868 59.9805 49.9788 59.9805 50.317C60.0649 51.3318 61.3321 50.4862 61.7545 50.1479C62.2613 49.7251 62.7682 49.1331 62.7682 48.4566C62.7682 48.2029 62.7682 47.8646 62.6838 47.6109C62.5993 47.5263 62.5993 47.3572 62.5148 47.2726C62.3458 47.1035 62.2614 47.1035 62.4303 46.6807Z" fill="#FF9F84"/>
<path fill-rule="evenodd" clip-rule="evenodd" d="M75.1846 51.3318C75.2691 50.909 75.0157 52.5157 75.1001 52.6003C75.2691 52.6003 75.438 52.6003 75.607 52.6003C75.7759 52.6003 75.8604 52.4312 76.0294 52.3466C76.3673 52.0929 76.6207 51.9238 76.6207 51.5009C76.6207 51.1627 76.5362 50.909 76.1983 50.7398C76.0294 50.6553 75.9449 50.6553 75.7759 50.6553C75.438 50.7398 75.1846 51.0781 75.0156 51.4164L75.1846 51.3318Z" fill="#FF9F84"/>
<path fill-rule="evenodd" clip-rule="evenodd" d="M40.042 68.7525C40.3799 68.7525 39.1973 68.7525 39.1973 68.7525C39.1973 68.8371 39.1973 69.0062 39.1973 69.0908C39.1973 69.2599 39.2818 69.2599 39.3662 69.3445C39.5352 69.5136 39.7041 69.6828 39.9576 69.6828C40.211 69.6828 40.3799 69.5982 40.3799 69.3445C40.3799 69.2599 40.4644 69.1754 40.3799 69.0908C40.2955 68.8371 40.0421 68.668 39.8731 68.668L40.042 68.7525Z" fill="#FFEF84"/>
<path fill-rule="evenodd" clip-rule="evenodd" d="M39.4502 65.2849C39.5347 64.8621 39.2813 66.4689 39.3657 66.5534C39.5347 66.5534 39.7036 66.5534 39.8726 66.5534C40.0416 66.5534 40.126 66.3843 40.295 66.2997C40.6329 66.046 40.8863 65.8769 40.8863 65.4541C40.8863 65.1158 40.8018 64.8621 40.4639 64.693C40.295 64.6084 40.2105 64.6084 40.0415 64.6084C39.7036 64.693 39.4502 65.0312 39.2812 65.3695L39.4502 65.2849Z" fill="#FF9F84"/>
<g opacity="0.25">
<path opacity="0.4" fill-rule="evenodd" clip-rule="evenodd" d="M10.7463 15.5804C9.56357 17.018 8.54985 18.3711 7.78955 20.0624C7.11373 21.5 6.86031 23.1913 6.60687 24.7981C6.43792 25.7283 6.35344 26.6586 6.18449 27.6734C6.10001 28.519 5.84659 29.3647 5.93107 30.2104C6.10002 31.3943 6.1845 32.6628 6.77584 33.6776C7.36718 34.777 7.95851 35.7918 8.71881 36.8066C9.4791 37.7368 10.4084 38.2442 11.6755 38.3288C12.3513 38.4133 13.0271 38.2442 13.703 38.3288C14.6322 38.4133 15.5615 38.5825 16.4907 38.7516C18.3492 39.0899 20.4611 39.0899 21.8128 37.5677C22.911 36.2992 23.4179 34.777 24.0937 33.2548C24.854 31.648 25.7832 30.3795 27.1348 29.2801C28.1486 28.519 29.0778 27.5888 30.0071 26.7431C30.4295 26.4049 30.6829 25.982 31.1898 25.6438C31.6966 25.3901 31.9501 25.0518 32.3724 24.629C32.7948 24.2907 33.2172 24.037 33.5551 23.6142C34.1465 22.9376 34.5688 22.092 34.8223 21.3309C35.1602 20.4852 35.2447 19.6395 35.4136 18.7093C35.4981 17.8636 35.2447 17.018 34.9912 16.1723C34.4844 14.6501 33.1327 13.6353 31.9501 12.7051C30.4295 11.5212 28.571 11.0138 26.7125 10.5909C25.0229 10.2527 22.911 10.1681 21.137 10.5064C19.2785 10.8446 17.42 11.0983 15.7304 11.8594C14.4633 12.4514 13.703 13.2125 12.6892 14.1427C12.1824 14.5656 11.591 14.9038 11.0842 15.4112C10.4928 16.0878 9.90148 16.8489 10.7463 15.5804Z" fill="black"/>
<path opacity="0.4" fill-rule="evenodd" clip-rule="evenodd" d="M28.8242 8.13882C29.0777 7.71598 29.3311 7.03945 29.669 6.70118C29.8379 6.44748 30.0914 6.27835 30.3448 6.10922C31.0206 5.51725 31.7809 5.09442 32.6257 4.84072C33.1326 4.67158 33.6394 4.67158 34.0618 4.84072C34.5687 4.92528 35.4135 5.26355 35.7514 5.60182C36.4272 6.27835 36.0048 7.37772 35.7514 8.13882C35.5824 8.89992 35.329 9.66101 34.6532 10.0838C34.2308 10.4221 33.6394 10.6758 33.1326 10.7604C32.8791 10.8449 32.5412 10.8449 32.2033 10.8449C31.9499 10.8449 31.6965 10.9295 31.5275 10.9295C30.9362 10.9295 30.0914 10.5067 29.9224 9.99928C29.838 9.74558 29.7535 9.40732 29.5845 9.15362C29.5001 8.89992 29.4156 8.73078 29.3311 8.47708C29.1621 8.05425 29.0777 7.63142 28.8242 8.13882Z" fill="black"/>
<path opacity="0.4" fill-rule="evenodd" clip-rule="evenodd" d="M35.4995 12.3672C35.3306 12.79 35.2461 13.2974 35.2461 13.7203C35.415 13.8048 35.4995 14.0585 35.753 14.2277C35.9219 14.3122 36.1753 14.3122 36.4288 14.3122C36.8512 14.3122 37.1891 14.3122 37.2735 13.8048C37.358 13.382 36.9356 13.0437 36.5977 12.79C36.3443 12.6209 35.9219 12.1981 35.6685 12.5363L35.4995 12.3672Z" fill="black"/>
<path opacity="0.4" fill-rule="evenodd" clip-rule="evenodd" d="M40.991 18.8787C40.4841 19.217 39.8928 19.5552 39.3859 19.9781C38.7946 20.4855 38.2877 21.0774 37.7808 21.754C37.1895 22.5151 36.4292 23.3607 36.5982 24.4601C36.7671 25.4749 37.105 26.4051 37.8653 27.0817C38.7946 27.9273 40.2307 27.9273 41.3289 28.4347C42.2581 28.8576 42.8495 29.7878 43.2719 30.718C43.9477 32.0711 45.4683 32.3248 46.8199 32.5785C47.6647 32.7476 48.5939 32.8322 49.4387 33.0013C50.6214 33.1705 51.8041 33.3396 52.9868 33.5087C55.1832 33.6779 57.3796 34.1853 59.576 34.0161C61.9414 33.847 64.0533 33.0013 65.9118 31.6483C67.5169 30.5489 69.0375 28.5193 69.4598 26.5743C69.8822 24.5447 69.2064 22.2614 68.2771 20.4009C67.01 18.033 65.4894 15.9189 63.7999 13.8047C62.8706 12.6208 61.8569 11.606 60.8431 10.5066C59.9984 9.49181 59.1536 8.64614 58.2243 7.80048C56.0279 5.94001 53.3247 4.41781 50.4525 4.24868C49.3542 4.16411 48.256 4.33325 47.1578 4.75608C46.2286 5.09435 45.5527 5.60175 44.8769 6.36285C43.1874 8.13874 42.2581 10.422 41.4978 12.7053C41.1599 13.8047 40.822 14.9886 40.991 16.088C40.991 16.4263 41.2444 16.68 41.2444 17.0182C41.2444 17.3565 41.2444 17.6102 41.2444 17.9485C41.2444 18.1176 41.2444 18.2867 41.1599 18.4559C41.0754 18.625 40.822 18.8787 40.991 18.8787Z" fill="black"/>
<path opacity="0.4" fill-rule="evenodd" clip-rule="evenodd" d="M31.8664 26.8282C30.7682 27.5047 29.5855 28.0121 28.7408 29.0269C28.5718 29.196 28.4028 29.4497 28.4873 29.7034C28.5718 29.9571 28.9097 30.1263 29.1631 30.2108C30.0079 30.5491 31.0216 30.7182 31.9509 30.5491C32.7957 30.38 33.8094 29.8726 34.2318 29.1115C34.8231 28.1812 34.1473 26.659 32.9646 26.7436C32.7957 26.7436 32.6267 26.8282 32.4578 26.8282C32.2888 26.8282 32.2043 26.8282 32.0354 26.8282C31.8664 26.8282 31.8664 26.8282 31.6975 26.9128C31.5285 27.0819 31.3595 27.251 31.8664 26.8282Z" fill="black"/>
<path opacity="0.4" fill-rule="evenodd" clip-rule="evenodd" d="M8.71741 42.3038C8.29503 42.7267 7.78817 43.0649 7.53474 43.5723C7.2813 44.0797 7.11234 44.5871 7.02787 45.1791C6.94339 45.6865 6.77443 46.1939 6.94338 46.7013C7.02786 47.1241 7.2813 47.547 7.45025 48.0544C7.61921 48.6463 7.87264 49.1537 7.95712 49.7457C8.12608 50.5068 8.3795 51.0988 8.71741 51.7753C9.05532 52.4518 9.39322 53.0438 9.81561 53.6358C10.238 54.3123 10.6604 54.7351 11.1672 55.3271C13.0257 57.1876 15.2222 59.2172 17.9254 59.5554C19.2771 59.7246 20.7132 59.3863 21.7269 58.3715C22.8251 57.2721 23.5009 55.7499 23.7544 54.2277C23.9233 52.9592 23.8389 51.6062 23.163 50.5068C22.5717 49.5766 21.9803 48.6463 21.3045 47.8852C20.7977 47.3778 20.2908 46.955 19.6995 46.4476C19.1926 45.9402 18.6857 45.4328 18.0944 45.0945C17.0807 44.3334 16.1514 43.5723 15.1377 42.8958C14.2084 42.2193 13.1947 41.5427 12.0965 41.289C11.3362 41.1199 10.4914 40.9508 9.73115 41.289C9.39324 41.4582 9.13979 41.5427 8.97083 41.7964C8.88636 41.9656 8.71741 42.2193 8.71741 42.3884C8.54846 42.2193 8.46398 42.2193 8.71741 42.3038Z" fill="black"/>
<path opacity="0.4" fill-rule="evenodd" clip-rule="evenodd" d="M15.8165 40.5276C15.8165 40.8659 15.901 41.2042 15.901 41.4579C15.901 41.5424 15.9855 41.627 15.9855 41.7961C16.07 41.8807 16.3234 41.8807 16.4079 41.8807C16.7458 41.8807 17.0837 41.7116 17.3371 41.5424C17.7595 41.2042 17.9285 40.5276 17.5061 40.1894C17.2526 39.9357 16.8303 39.7665 16.4079 39.8511C16.2389 39.9357 15.3097 40.3585 15.6476 40.6968L15.8165 40.5276Z" fill="black"/>
<path opacity="0.4" fill-rule="evenodd" clip-rule="evenodd" d="M69.375 31.7327C69.544 31.0561 69.544 30.5487 69.9664 30.0413C70.3887 29.6185 70.8111 29.1111 71.1491 28.6883C71.8249 27.8426 72.2472 26.7432 72.5007 25.7284C72.7541 24.7982 72.5007 23.868 72.9231 22.9377C73.0075 22.684 73.1765 22.3458 73.3454 22.1766C73.5144 22.0921 74.0213 22.1766 74.1902 22.2612C74.3592 22.3458 74.6126 22.5995 74.7816 22.7686C75.035 23.0223 75.2884 23.276 75.6263 23.6143C76.978 25.0519 77.7382 27.2506 77.6538 29.1957C77.6538 30.3796 77.4848 31.3944 77.1469 32.4938C76.978 32.9166 76.809 33.3394 76.5556 33.7623C76.3021 34.2697 75.8798 34.5234 75.4574 34.8616C74.1057 35.7073 72.0783 35.4536 70.8956 34.3542C70.4732 33.9314 70.3043 33.424 69.9664 32.9166C69.7129 32.5783 69.544 32.2401 69.4595 31.7327C69.4595 31.6481 69.4595 31.6481 69.375 31.7327Z" fill="black"/>
<path opacity="0.4" fill-rule="evenodd" clip-rule="evenodd" d="M69.375 16.6798C69.6284 17.4409 69.7129 18.2865 70.5577 18.7094C70.7267 18.7939 70.9801 18.8785 71.1491 18.8785C71.318 18.8785 71.4869 18.7939 71.6559 18.6248C72.5007 18.0328 71.9938 16.5952 71.4869 15.9187C71.149 15.5804 70.7267 15.4113 70.3043 15.2421C70.1353 15.1576 70.1353 15.1576 69.9664 15.2421C69.7974 15.3267 69.7129 15.3267 69.6284 15.4958C69.5439 15.5804 69.544 15.8341 69.544 15.9187C69.544 16.0878 69.4595 16.1724 69.4595 16.2569C69.375 16.5106 69.4595 16.7643 69.544 17.018L69.375 16.6798Z" fill="black"/>
<path opacity="0.4" fill-rule="evenodd" clip-rule="evenodd" d="M63.1229 49.2381C62.9539 49.7455 62.7849 50.3375 62.5315 50.8449C62.2781 51.4368 62.0246 51.9442 61.7712 52.5362C61.1798 53.9738 60.842 55.5806 60.4196 57.1028C59.9972 58.7096 59.7438 60.4009 59.5748 62.0077C59.4903 62.8533 59.3214 63.699 59.4058 64.5446C59.4058 65.1366 59.4058 65.8977 59.6593 66.4897C59.8282 66.8279 60.1661 67.4199 60.504 67.589C61.0109 67.8427 61.6022 67.4199 62.0246 67.1662C63.6297 66.3205 65.0658 65.1366 66.333 63.8681C67.6001 62.5996 68.8673 61.4157 69.9655 59.9781C70.4724 59.3015 70.9792 58.7096 71.4016 57.9485C71.7395 57.3565 71.993 56.68 72.2464 56.088C72.4998 55.496 72.7532 54.9041 73.0067 54.3121C73.3446 53.6356 73.598 52.8745 73.8514 52.1134C74.2738 50.6757 74.6962 49.2381 74.1894 47.8005C73.767 46.532 72.7533 45.6017 71.4016 45.348C70.7258 45.1789 69.881 45.0098 69.2052 45.0098C68.5294 45.0943 67.7691 45.2635 67.0932 45.5172C66.5019 45.7709 65.9106 46.0246 65.4037 46.3628C65.1503 46.532 64.8969 46.7857 64.6434 47.0394C64.2211 47.4622 63.8832 47.885 63.5452 48.3924C63.3763 48.6461 63.2918 48.8153 63.0383 48.9844C62.9539 49.4072 62.7849 49.8301 63.1229 49.2381Z" fill="black"/>
<path opacity="0.4" fill-rule="evenodd" clip-rule="evenodd" d="M56.7872 67.7578C55.9424 68.0961 55.2666 68.3498 54.5063 68.9418C53.6615 69.6183 52.8167 70.2102 52.2254 71.1405C51.972 71.4787 51.5496 71.9861 51.8875 72.409C52.1409 72.7472 52.6478 72.7472 53.0702 72.7472C53.6615 72.7472 54.2529 72.6627 54.7597 72.409C55.2666 72.2398 55.689 71.9016 56.1958 71.7324C56.7027 71.5633 57.3785 71.225 57.7164 70.8022C57.8854 70.5485 58.0543 70.2102 58.2233 69.9565C58.3922 69.7028 58.3922 69.6183 58.3922 69.28C58.3922 68.9417 58.1388 68.5189 57.9698 68.3498C57.8009 68.1806 57.3785 67.9269 57.1251 68.0115C56.9561 68.0115 56.7872 68.0961 56.6182 68.1806C56.2803 68.1806 56.0269 68.6035 56.7872 67.7578Z" fill="black"/>
<path opacity="0.4" fill-rule="evenodd" clip-rule="evenodd" d="M55.7715 62.8535C55.6026 62.177 55.4336 61.7542 55.4336 61.0776C55.5181 60.4857 55.5181 59.9783 55.7715 59.4709C55.9405 59.2172 56.2784 58.5406 56.5318 58.4561C56.6163 58.4561 56.8697 58.4561 56.9542 58.4561C57.3766 58.5406 57.63 59.048 57.7145 59.4709C57.8834 60.0628 57.7145 60.7394 57.7989 61.4159C57.7989 61.9233 57.7145 62.3461 57.5455 62.769C57.3766 63.1072 57.1232 63.1072 56.7853 63.1072C56.4474 63.1072 56.2784 63.0227 56.0249 62.769C55.9405 62.6844 55.7715 62.6844 55.687 62.5998C55.5181 62.4307 55.5181 62.2616 55.7715 62.8535Z" fill="black"/>
<path opacity="0.4" fill-rule="evenodd" clip-rule="evenodd" d="M55.0137 37.4834C54.9292 37.9062 54.9292 38.4136 54.9292 38.8365C55.0982 38.8365 55.2671 39.1747 55.436 39.1747C55.774 39.2593 56.0274 39.0902 56.2808 38.921C56.7877 38.4982 56.9567 37.7371 56.7877 37.1451C56.7032 36.5532 56.0274 36.4686 55.5206 36.5532C55.3516 36.5532 55.0981 36.6377 55.0137 36.7223C54.6758 36.976 54.6758 37.3143 54.6758 37.6525L55.0137 37.4834Z" fill="black"/>
<path opacity="0.4" fill-rule="evenodd" clip-rule="evenodd" d="M16.8286 65.0516C17.0821 64.5442 17.3355 64.0368 17.6734 63.614C18.0958 63.1066 18.5182 62.6838 18.9406 62.2609C19.5319 61.7535 20.1233 61.2461 20.7146 60.8233C21.3059 60.4005 21.8128 59.9776 22.4041 59.5548C23.4179 58.8783 24.5161 58.4554 25.6988 58.0326C26.628 57.6943 27.6417 57.6098 28.6555 57.7789C29.6692 57.948 30.6829 58.54 31.3587 59.2165C32.0345 59.8931 32.7948 60.7387 33.2172 61.5844C34.1465 63.3603 33.7241 65.3899 33.1327 67.1658C32.8793 68.0115 32.288 68.9417 31.6122 69.5337C31.1898 69.8719 30.7674 70.0411 30.2605 70.1256C29.7537 70.2102 29.0778 70.4639 28.571 70.4639C26.1211 70.8022 23.6713 70.633 21.3904 69.7874C20.4612 69.4491 19.6164 69.0263 18.6871 68.6034C18.0113 68.2652 17.42 67.8423 16.9976 67.2504C16.6597 66.8275 16.4062 66.2356 16.4062 65.6436C16.4062 65.3899 16.4907 65.1362 16.5752 64.8825C16.7441 65.0516 16.8286 64.9671 16.8286 65.0516Z" fill="black"/>
<path opacity="0.4" fill-rule="evenodd" clip-rule="evenodd" d="M34.9082 66.151C34.7393 66.5739 34.6548 67.0813 34.5703 67.5041C34.7393 67.5887 34.7393 67.8424 34.8237 68.0115C34.9927 68.1806 35.0772 68.2652 35.3306 68.2652C35.584 68.2652 35.8375 68.2652 36.0064 68.2652C36.3443 68.1806 36.4288 68.0961 36.5978 67.8424C36.7667 67.5887 36.8512 67.4195 36.8512 67.0813C36.8512 66.8276 36.7667 66.5739 36.5978 66.4047C36.5133 66.2356 36.3443 66.0665 36.1754 65.9819C35.8375 65.7282 35.584 65.8973 35.3306 66.0665L34.9082 66.151Z" fill="black"/>
<path opacity="0.4" fill-rule="evenodd" clip-rule="evenodd" d="M74.4433 45.2637C74.1053 45.01 73.7675 44.6718 73.514 44.2489C73.514 44.0798 73.514 43.9107 73.514 43.7415C73.4295 43.3187 73.345 42.9804 73.4295 42.5576C73.5985 41.5428 74.4433 40.8663 75.457 40.7817C76.1328 40.6971 77.062 41.2045 77.4 41.7965C77.7379 42.3885 77.9069 43.065 77.9069 43.7415C77.9069 44.2489 77.8224 44.9255 77.4845 45.3483C77.231 45.6866 76.8086 45.6866 76.4707 45.6866C76.0483 45.6866 75.6259 45.602 75.288 45.5174C74.9501 45.4329 74.6122 45.2637 74.4433 45.2637Z" fill="black"/>
</g>
<defs>
<radialGradient id="paint0_radial_2318_3490" cx="0" cy="0" r="1" gradientUnits="userSpaceOnUse" gradientTransform="translate(15.1791 21.184) scale(64.2885 64.3564)">
<stop offset="0.00558659" stop-color="#DE6863"/>
<stop offset="0.2018" stop-color="#DB6563"/>
<stop offset="0.3542" stop-color="#D15D62"/>
<stop offset="0.4919" stop-color="#C14F60"/>
<stop offset="0.6209" stop-color="#A93B5E"/>
<stop offset="0.7437" stop-color="#8B225B"/>
<stop offset="0.8606" stop-color="#670357"/>
<stop offset="0.8715" stop-color="#630057"/>
</radialGradient>
<linearGradient id="paint1_linear_2318_3490" x1="-0.0568532" y1="28.932" x2="57.5142" y2="28.932" gradientUnits="userSpaceOnUse">
<stop offset="0.0111732" stop-color="#FF7D85"/>
<stop offset="0.2983" stop-color="#FC7B84"/>
<stop offset="0.5089" stop-color="#F3757F"/>
<stop offset="0.695" stop-color="#E36B77"/>
<stop offset="0.8659" stop-color="#CC5C6C"/>
<stop offset="1" stop-color="#B54D61"/>
</linearGradient>
</defs>
</svg>
