<svg width="100" height="100" viewBox="0 0 100 100" fill="none" xmlns="http://www.w3.org/2000/svg">
<path opacity="0.92" fill-rule="evenodd" clip-rule="evenodd" d="M100 50C100 64.4685 93.9036 77.4606 84.0708 86.6142C79.351 90.9449 73.8446 94.4882 67.7483 96.752C62.2419 98.8189 56.2439 100 50.0492 100C47.7876 100 45.6244 99.8031 43.4612 99.6063C41.4946 99.311 39.528 99.0157 37.6598 98.5236C33.1367 97.3425 28.9086 95.5708 24.9754 93.3071C22.5172 91.8307 20.1573 90.2559 17.8958 88.3858C12.6844 84.0551 8.45624 78.6417 5.40806 72.6378C3.44149 68.7992 2.0649 64.7638 1.08161 60.4331C0.393312 57.0866 0 53.6417 0 50.0984C0 40.2559 2.85153 31.0039 7.76795 23.2284C9.83284 19.9803 12.2911 16.9291 15.1426 14.1732C24.1888 5.41338 36.4798 0 49.9508 0C51.0325 0 52.1141 -9.01256e-06 53.1957 0.0984162C58.8987 0.492117 64.3068 1.77165 69.3215 3.83858C70.2065 4.23228 71.0914 4.62598 71.8781 5.01968C75.5162 6.79133 78.8594 8.95668 81.9076 11.6142C82.9892 12.5 83.9725 13.3858 84.8574 14.2717C85.2507 14.5669 85.5457 14.9606 85.8407 15.3543C94.6903 24.311 100 36.5157 100 50Z" fill="url(#paint0_radial_2318_3560)"/>
<path fill-rule="evenodd" clip-rule="evenodd" d="M96.5584 49.9992C96.5584 63.4835 90.8554 75.5898 81.7108 84.1528C77.3844 88.1882 72.173 91.4363 66.5682 93.6016C61.4552 95.5701 55.8505 96.6528 50.0491 96.6528C47.9842 96.6528 45.9193 96.5544 43.9527 96.2591C42.0845 96.0622 40.3146 95.6685 38.5446 95.1764C34.3165 94.0937 30.3834 92.4205 26.7452 90.3536C24.3854 88.9756 22.2221 87.4993 20.1572 85.7276C15.3391 81.6922 11.3077 76.6725 8.45615 71.0622C6.68624 67.5189 5.30965 63.6804 4.42469 59.6449C3.73639 56.4953 3.44141 53.3457 3.44141 49.9992C3.44141 40.7473 6.09628 32.1843 10.7177 24.9992C12.6843 21.9481 14.9458 19.0937 17.6007 16.5347C25.9586 8.36538 37.463 3.3457 50.0491 3.3457C51.0324 3.3457 52.114 3.34571 53.0973 3.44413C58.407 3.83784 63.4217 5.01893 68.0432 6.98743C68.8298 7.28271 69.6164 7.67641 70.4031 8.07012C73.7462 9.74334 76.8927 11.8103 79.8426 14.1725C80.8259 14.9599 81.7108 15.8457 82.5958 16.7315C82.8908 17.0268 83.2841 17.3221 83.5791 17.7158C91.642 26.0819 96.5584 37.4992 96.5584 49.9992Z" fill="url(#paint1_radial_2318_3560)"/>
<path opacity="0.4" fill-rule="evenodd" clip-rule="evenodd" d="M96.5594 49.9998C96.5594 63.484 90.8563 75.5903 81.7118 84.1533C77.3853 88.1887 72.1739 91.4368 66.5692 93.6021C61.4561 95.5706 55.8514 96.6533 50.05 96.6533C47.9851 96.6533 45.9202 96.5549 43.9537 96.2596C37.759 95.4722 31.9576 93.4053 26.7462 90.3541C28.3194 89.9604 29.7944 89.4683 31.3676 89.0746C35.1041 88.0903 38.6439 87.0076 42.3804 86.6139C43.8553 86.4171 46.3135 85.8265 46.3135 83.9565C46.3135 83.4643 46.2152 83.2675 46.5102 82.9722C46.9035 82.6769 47.2968 82.7754 47.6901 82.6769C48.7718 82.4801 49.6567 81.299 50.345 80.5116C51.4266 79.232 52.7049 77.9525 53.9832 76.8699C56.4414 74.7045 59.7845 73.6218 61.3578 70.4722C61.7511 69.5864 61.8494 68.7006 62.0461 67.8147C62.2427 66.732 63.0294 66.0431 64.0127 65.551C65.0943 64.862 66.3725 64.6651 67.3558 63.7793C68.3391 62.9919 68.7324 61.7124 69.1257 60.5313C69.7157 58.6612 69.6174 56.6927 69.9124 54.7242C70.0107 53.7399 70.3057 52.7557 70.404 51.7714C70.404 50.7872 70.109 50.0982 69.7157 49.2124C69.2241 47.736 68.4374 46.1612 67.8475 44.6848C67.6508 44.0942 67.2575 43.7006 66.7659 43.3069C66.0776 42.7163 65.5859 42.0273 64.8976 41.4368C64.406 41.0431 63.816 40.7478 63.4227 40.3541C63.0294 40.0588 62.7344 39.5667 62.4394 39.173C61.8494 38.5824 61.2595 37.8935 60.4728 37.4013C58.6046 36.4171 57.523 34.547 55.3598 34.1533C52.7049 33.6612 50.5417 30.9053 47.7885 31.8895C46.0186 32.4801 44.2486 33.169 42.2821 33.6612C41.1021 33.9564 39.7255 33.9565 38.5456 34.3502C37.8573 34.6454 37.0707 35.236 36.579 35.8265C35.7924 36.7124 35.4974 37.8935 34.8091 38.7793C34.3175 39.4683 34.0225 40.1573 33.5308 40.9447C32.7442 42.421 32.7442 43.8974 32.7442 45.5706C32.7442 46.4565 32.6459 47.4407 32.7442 48.3265C32.8426 49.4092 33.3342 50.1966 34.0225 51.0824C34.4158 51.5746 34.7108 52.4604 35.2024 52.8541C35.4974 53.0509 35.6941 52.9525 35.9891 53.1494C36.4807 53.3462 36.6774 53.5431 37.0707 53.8383C38.2506 54.7242 39.5289 55.61 41.0038 55.9053C41.7904 56.1021 42.4787 56.2006 43.167 56.4958C43.757 56.7911 44.4453 56.8895 45.1336 56.988C46.7069 57.1848 48.0835 56.5943 49.2634 55.61C50.05 55.0195 50.5417 54.5273 51.1316 53.7399C51.4266 53.3462 51.6233 53.051 52.1149 52.7557C52.4099 52.5588 52.7049 52.362 53.0982 52.4604C53.3932 52.4604 53.6882 52.8541 54.0815 52.6572C54.3765 52.4604 54.5731 51.5746 54.6715 51.3777C54.8681 50.8856 54.9664 50.295 55.1631 49.9013C55.5564 49.1139 56.1464 49.3108 56.933 49.3108C57.4247 49.3108 58.113 49.2124 58.5063 48.8187C58.8013 48.3265 58.7029 47.4407 58.5063 46.9486C58.113 46.2596 57.228 45.6691 56.7364 45.1769C56.343 44.7832 56.0481 44.2911 55.6547 43.799C55.0648 42.9132 54.7698 41.1415 53.4915 40.9447C52.9999 40.8462 52.3116 40.9447 51.8199 40.9447C51.23 40.9447 50.8367 40.8462 50.2467 40.6494C49.3617 40.4525 48.5751 40.1572 47.5918 40.1572C46.4119 40.1572 45.4286 40.4525 44.347 40.9447C43.8553 41.1415 43.5604 41.0431 43.0687 41.1415C42.5771 41.3383 41.7904 42.3226 41.6921 42.9132C41.4955 43.9958 41.8888 44.9801 42.9704 45.4722C43.2654 45.5706 44.052 45.669 44.347 45.9643C44.642 46.358 44.4453 46.8502 44.2486 47.2439C43.8553 48.3265 44.052 49.6061 45.3303 49.8029C46.2152 49.9013 47.1002 49.4092 47.7885 49.0155C48.3784 48.7202 49.4601 48.6218 49.4601 47.8344C49.3617 48.2281 48.7718 48.0313 48.4768 48.0313C47.7885 48.0313 47.3952 48.0313 46.9035 47.6376C46.4119 47.2439 46.3135 46.8502 46.1169 46.358C46.0186 46.1612 45.9202 45.7675 45.7236 45.5706C45.6252 45.3738 45.2319 45.1769 45.2319 44.9801C44.8386 44.0942 47.7885 43.6021 48.2801 43.5037C49.4601 43.4053 50.345 44.1927 51.0333 45.0785C51.3283 45.4722 51.9183 46.0627 51.9183 46.5549C51.9183 47.047 51.5249 47.8344 51.3283 48.3265C51.1316 48.8187 51.0333 49.2124 50.8367 49.7045C50.64 50.295 50.345 50.3935 49.8534 50.6887C49.3617 50.984 48.9684 51.3777 48.5751 51.7714C48.0835 52.1651 47.4935 52.2635 46.9035 52.362C46.0186 52.5588 45.2319 52.0667 44.347 52.1651C43.5603 52.1651 42.9704 52.6572 42.2821 52.6572C40.7088 52.7557 39.4306 52.5588 38.8406 50.8856C38.6439 50.1966 38.8406 49.9013 39.2339 49.4092C39.7255 48.9171 39.5289 48.5234 39.3322 47.9328C39.0372 47.2438 38.7423 46.6533 38.6439 45.9643C38.5456 45.2753 38.9389 44.488 39.0372 43.7006C39.1356 43.11 38.8406 42.2242 39.0372 41.732C39.2339 41.2399 40.2172 40.7478 40.7088 40.3541C41.2988 39.9604 41.9871 39.7636 42.6754 39.3699C43.462 38.9761 44.052 39.0746 44.8386 38.9762C45.5269 38.8777 45.8219 38.3856 46.4119 38.0903C47.1002 37.795 47.9851 37.9919 48.6734 37.9919C49.4601 37.9919 49.8534 38.2872 50.5417 38.5824C51.23 38.8777 51.7216 39.3699 52.5082 39.4683C53.3932 39.5667 54.2781 39.3699 55.1631 39.4683C56.0481 39.5667 56.343 39.9604 57.0313 40.4525C57.7196 40.9447 58.2113 41.2399 58.8013 42.0273C59.0962 42.421 59.1946 42.8147 59.4896 43.11C59.7845 43.5037 59.9812 43.7006 60.1778 44.1927C60.3745 44.7832 60.7678 45.3738 60.9645 46.0627C61.0628 46.4565 61.1611 46.7517 61.1611 47.1454C61.0628 47.6376 60.8662 48.1297 60.8662 48.6218C60.8662 49.8029 60.3745 50.6888 59.8829 51.7714C59.3912 52.8541 58.8996 53.9368 58.4079 55.0194C58.113 55.7084 58.0146 57.1848 57.0313 57.3816C56.5397 57.4801 56.0481 57.3817 55.5564 57.6769C55.0648 57.9722 54.9664 58.5627 54.5731 58.858C54.1798 59.2517 53.6882 59.0549 53.1965 59.0549C52.4099 59.0549 51.7216 59.1533 51.0333 59.4486C50.1484 59.8423 49.5584 60.6297 48.7718 61.1218C48.0835 61.4171 47.2968 61.8108 46.5102 61.9092C45.9202 62.0076 45.4286 61.9092 44.8386 62.1061C43.5603 62.4998 42.5771 63.2872 41.2988 63.7793C40.3155 64.0746 39.1356 64.3698 38.1523 64.2714C37.759 64.2714 37.3657 64.0746 36.9723 63.9761C36.3824 63.7793 35.6941 63.7793 35.0058 63.5825C34.5141 63.484 34.0225 63.2872 33.5308 63.0903C33.0392 62.8935 32.7442 62.4998 32.2526 62.3029C31.171 61.8108 30.0894 61.8108 29.1061 61.0234C27.8278 60.0391 26.7462 58.858 25.3696 57.9722C24.7796 57.5785 24.4846 57.0864 24.0913 56.5943C23.7963 56.1021 23.403 55.8068 23.0097 55.4131C22.4197 54.8226 22.1248 54.0352 21.8298 53.3462C21.3381 52.1651 20.7482 50.984 20.2565 49.7045C19.6665 47.9328 18.8799 46.2596 18.4866 44.3895C18.1916 42.8147 18.5849 41.4368 18.5849 39.9604C18.5849 39.5667 18.6833 39.173 18.5849 38.7793C18.4866 38.1887 17.995 37.795 17.6016 37.4013C16.4217 36.0234 15.3401 34.6454 14.6518 32.8738C13.9635 31.1021 13.6685 28.9368 14.1602 27.0667C14.6518 25.3935 15.7334 24.5076 17.11 23.425C18.3883 22.4407 19.9615 21.6533 21.4365 20.9643C22.1248 20.5706 22.7147 20.1769 23.403 19.8816C24.0913 19.5864 24.9763 19.488 25.7629 19.2911C26.4512 19.0943 26.9428 19.0943 27.5328 18.6021C28.1228 18.2084 28.8111 17.7163 29.3027 17.2242C29.991 16.6336 30.4827 15.9447 31.466 15.7478C32.6459 15.4525 34.0225 15.0588 35.2024 14.7636C36.7757 14.4683 38.6439 14.862 40.2172 15.0588C41.7904 15.2557 43.2654 15.2557 44.8386 15.2557C46.1169 15.2557 47.3952 15.0588 48.6734 14.9604C49.1651 14.9604 49.6567 15.0588 50.1484 14.9604C50.935 14.9604 51.6233 14.5667 52.4099 14.3699C53.8848 13.9762 55.1631 13.2872 56.638 12.795C57.7196 12.4013 58.8013 12.4998 59.8829 12.3029C61.0628 12.1061 62.2427 11.7124 63.521 11.6139C64.6026 11.6139 65.6842 11.2202 66.6675 11.7124C68.4374 12.795 69.5191 14.6651 71.289 15.7478C73.1572 16.8305 75.2221 17.6179 77.1887 18.4053C77.877 18.7005 78.6636 18.3069 79.2536 18.6021C79.5486 18.7006 79.9419 19.1927 80.1385 19.4879C80.4335 19.2911 80.3352 18.8974 80.3352 18.6021C80.3352 18.11 80.6302 17.7163 80.6302 17.2242C80.6302 16.6336 80.7285 15.9447 80.6302 15.3541C80.5318 15.0588 80.1385 14.3699 80.1385 13.8777C81.1218 14.6651 82.0068 15.5509 82.8917 16.4368C91.2496 25.1966 96.5594 37.0076 96.5594 49.9998Z" fill="url(#paint2_radial_2318_3560)"/>
<path opacity="0.3" fill-rule="evenodd" clip-rule="evenodd" d="M18.978 64.1726C18.6831 65.1569 18.5847 66.2396 18.4864 67.3222C18.7814 67.2238 19.1747 67.9128 19.4697 68.0112C20.0597 68.2081 20.5513 68.2081 21.0429 68.5034C21.5346 68.7986 22.0262 69.4876 22.5179 69.586C22.8128 69.6844 23.3045 69.586 23.6978 69.586C24.4844 69.586 25.1727 69.586 25.861 69.7829C26.6477 69.9797 27.6309 70.1766 28.4176 70.0781C28.9092 69.9797 29.7942 69.7829 30.1875 69.3892C30.5808 68.9955 30.7774 68.0112 30.8758 67.4207C30.9741 65.7474 29.6958 64.0742 28.4176 63.09C27.7293 62.5978 27.041 62.5978 26.2543 62.2041C25.3694 61.712 24.5828 61.5151 23.5995 61.2199C23.0095 61.023 22.2229 60.8262 21.6329 60.8262C21.0429 60.8262 20.3546 61.2199 19.863 61.3183C19.273 61.5151 18.7814 61.5152 18.3881 62.0073C17.9947 62.6963 18.1914 63.4836 18.978 64.1726Z" fill="url(#paint3_linear_2318_3560)"/>
<path opacity="0.3" fill-rule="evenodd" clip-rule="evenodd" d="M32.1524 70.0781C31.8574 70.4718 29.1042 72.834 30.4808 73.8183C30.5791 73.9167 31.1691 74.0151 31.2674 74.0151C31.6607 74.1136 31.759 74.0152 32.1524 73.8183C32.8407 73.4246 32.939 72.7356 32.7423 71.9482C32.7423 71.7514 32.5457 71.3577 32.4473 71.1608C32.349 70.8655 32.054 70.8656 31.9557 70.4718L32.1524 70.0781Z" fill="url(#paint4_linear_2318_3560)"/>
<path opacity="0.3" fill-rule="evenodd" clip-rule="evenodd" d="M47.9841 9.64522C48.4757 9.34995 50.049 8.46413 50.934 8.36571C51.2289 8.36571 51.6223 8.46412 51.9172 8.46412C52.6055 8.46412 53.1955 8.36571 53.6871 8.85783C54.0805 9.25153 54.2771 9.64522 53.9821 10.1373C53.5888 10.8263 52.6055 11.3185 51.9172 11.6137C50.4423 12.4996 48.4757 13.287 46.7058 13.0901C45.3292 12.9917 44.051 11.909 42.7727 11.22C41.8877 10.7279 40.2162 9.84208 41.2978 8.7594C42.1827 7.87358 43.5593 7.38145 44.8376 7.28302C45.4276 7.28302 46.8042 7.08618 47.1975 7.38146C47.6891 7.77516 47.1975 9.34995 48.1808 9.25153L47.9841 9.64522Z" fill="url(#paint5_linear_2318_3560)"/>
<path fill-rule="evenodd" clip-rule="evenodd" d="M2.75382 40.5517C3.44211 50.099 25.6643 34.6462 47.1983 27.8549C72.4687 19.784 91.6427 37.4021 94.3959 36.4179C98.8207 34.9415 80.8266 0.0989756 52.0164 0.591102C19.568 0.984802 1.57387 25.1974 2.75382 40.5517Z" fill="url(#paint6_linear_2318_3560)"/>
<path opacity="0.5" fill-rule="evenodd" clip-rule="evenodd" d="M0.492188 56.9889L2.06544 64.2724C2.06544 64.2724 10.7183 69.3905 30.8757 67.5204C51.033 65.6503 55.7528 55.8078 63.619 50.0991C71.4853 44.3905 86.7262 39.8629 90.6594 35.3353C94.5925 30.9062 91.2493 21.9495 91.2493 21.9495L89.6761 19.7842C89.6761 19.7842 92.5276 27.4613 89.0861 33.0716C85.7429 38.6818 70.6987 41.3393 62.5374 48.5243C54.3762 55.7094 37.7587 61.2212 23.501 61.3196C9.5384 61.418 0.492188 56.9889 0.492188 56.9889Z" fill="#BDFFE8" fill-opacity="0.5"/>
<path opacity="0.5" fill-rule="evenodd" clip-rule="evenodd" d="M7.17773 75.8854L10.3242 80.5114C10.3242 80.5114 24.7785 84.7437 46.5091 80.5114C68.2397 76.2791 84.6605 63.976 92.2318 56.9878C99.9014 49.9996 98.9182 40.2555 98.9182 40.2555L98.2299 37.3027C98.2299 37.3027 96.8533 47.4405 88.397 56.9878C79.9408 66.535 65.7815 75.1964 45.4275 78.7397C25.1718 82.3815 7.17773 75.8854 7.17773 75.8854Z" fill="#BDFFE8" fill-opacity="0.5"/>
<path opacity="0.5" fill-rule="evenodd" clip-rule="evenodd" d="M3.44141 31.8902C3.44141 31.8902 31.8583 41.6343 53.7856 37.3036C75.7128 33.0713 81.6125 18.8981 82.0058 11.6146L77.9744 8.56348C77.9744 8.56348 78.0727 23.1304 64.2084 31.9887C50.3441 40.7485 14.7492 35.532 5.21132 27.9532L3.44141 31.8902Z" fill="#BDFFE8" fill-opacity="0.5"/>
<path fill-rule="evenodd" clip-rule="evenodd" d="M6.49047 49.0157C6.78545 50.7873 10.7186 48.3267 13.7668 42.4212C16.7166 36.5157 17.3066 24.2125 15.7333 23.2283C14.2584 22.0472 4.32724 36.9094 6.49047 49.0157Z" fill="white"/>
<path fill-rule="evenodd" clip-rule="evenodd" d="M6.78347 51.5749C4.71857 51.9686 4.8169 56.0041 6.09517 57.6773C7.37344 59.3505 9.04502 58.5631 9.14335 55.0198C9.24167 52.9529 8.45505 51.2797 6.78347 51.5749Z" fill="white"/>
<path fill-rule="evenodd" clip-rule="evenodd" d="M65.7812 4.82324C65.7812 4.82324 67.7478 5.31537 68.3378 7.97285C68.3378 8.07127 66.3712 7.48072 65.7812 4.82324Z" fill="white"/>
<path fill-rule="evenodd" clip-rule="evenodd" d="M29.5 5.7082C29.5 5.7082 30.9749 3.93655 33.9248 3.14915C36.2847 2.5586 37.6613 2.65702 38.1529 2.55859C38.1529 2.55859 33.1382 6.00347 29.5 5.7082Z" fill="white"/>
<defs>
<radialGradient id="paint0_radial_2318_3560" cx="0" cy="0" r="1" gradientUnits="userSpaceOnUse" gradientTransform="translate(50.0036 50.014) scale(49.9897 50.0389)">
<stop stop-color="#004858"/>
<stop offset="1" stop-color="#008BAB"/>
</radialGradient>
<radialGradient id="paint1_radial_2318_3560" cx="0" cy="0" r="1" gradientUnits="userSpaceOnUse" gradientTransform="translate(36.8024 36.7849) scale(68.3314 68.3986)">
<stop offset="0.00558659" stop-color="#00CEC0"/>
<stop offset="0.2576" stop-color="#00CCC0"/>
<stop offset="0.3833" stop-color="#00C4C1"/>
<stop offset="0.4811" stop-color="#00B7C2"/>
<stop offset="0.5645" stop-color="#00A4C4"/>
<stop offset="0.6387" stop-color="#008CC6"/>
<stop offset="0.7054" stop-color="#006EC8"/>
<stop offset="0.7179" stop-color="#0068C9"/>
<stop offset="0.7438" stop-color="#0767CB"/>
<stop offset="0.7813" stop-color="#1A66CF"/>
<stop offset="0.8259" stop-color="#3A63D6"/>
<stop offset="0.8759" stop-color="#6660E0"/>
<stop offset="0.9304" stop-color="#9E5BEC"/>
<stop offset="0.9879" stop-color="#E255FC"/>
<stop offset="1" stop-color="#F154FF"/>
</radialGradient>
<radialGradient id="paint2_radial_2318_3560" cx="0" cy="0" r="1" gradientUnits="userSpaceOnUse" gradientTransform="translate(55.1888 54.183) scale(41.9115 41.9527)">
<stop stop-color="#1372B3"/>
<stop offset="1" stop-color="white"/>
</radialGradient>
<linearGradient id="paint3_linear_2318_3560" x1="18.2179" y1="65.5008" x2="30.8906" y2="65.5008" gradientUnits="userSpaceOnUse">
<stop stop-color="#B8C2FF"/>
<stop offset="1" stop-color="#7D72B3"/>
</linearGradient>
<linearGradient id="paint4_linear_2318_3560" x1="30.0512" y1="72.0798" x2="32.6621" y2="72.0798" gradientUnits="userSpaceOnUse">
<stop stop-color="#B8C2FF"/>
<stop offset="1" stop-color="#7D72B3"/>
</linearGradient>
<linearGradient id="paint5_linear_2318_3560" x1="41.0277" y1="10.273" x2="54.1507" y2="10.273" gradientUnits="userSpaceOnUse">
<stop stop-color="#B8C2FF"/>
<stop offset="1" stop-color="#7D72B3"/>
</linearGradient>
<linearGradient id="paint6_linear_2318_3560" x1="21.3381" y1="7.90265" x2="70.3652" y2="70.7214" gradientUnits="userSpaceOnUse">
<stop offset="0.0167598" stop-color="#B1FDF9"/>
<stop offset="1" stop-color="#37C7D1" stop-opacity="0"/>
</linearGradient>
</defs>
</svg>
