<svg width="121" height="138" viewBox="0 0 121 138" fill="none" xmlns="http://www.w3.org/2000/svg">
<path fill-rule="evenodd" clip-rule="evenodd" d="M8.67188 46.3916C8.67188 46.3916 9.38461 40.4521 9.85977 37.2448C9.85977 37.2448 13.8986 31.5429 20.3132 26.9102L28.866 27.3853C28.866 27.3853 11.5228 41.2837 8.67188 46.3916Z" fill="url(#paint0_linear_2318_3385)"/>
<path fill-rule="evenodd" clip-rule="evenodd" d="M20.3148 26.9102C20.3148 26.9102 20.3148 31.6617 15.9196 35.463C11.5244 39.2642 9.62378 37.9576 9.62378 37.9576L8.55469 45.5601L28.7489 27.3853L20.3148 26.9102Z" fill="url(#paint1_linear_2318_3385)"/>
<path fill-rule="evenodd" clip-rule="evenodd" d="M112.493 76.6824C112.493 82.0279 111.781 87.3735 110.355 92.2438C107.504 102.222 101.921 111.013 94.5562 117.902C89.3295 122.773 83.0337 126.693 76.1439 129.306C69.9668 131.682 63.1959 132.989 56.1873 132.989C55.237 132.989 54.1679 132.989 53.2176 132.87C51.7921 132.751 50.2478 132.632 48.8224 132.513C38.0125 131.088 28.0343 126.574 20.0754 119.803C17.1056 117.308 14.3735 114.457 11.8789 111.369C10.0971 108.993 8.43403 106.617 7.00856 104.004C6.65219 103.41 6.29583 102.697 5.93946 102.103C5.93946 102.103 5.93946 102.103 5.93946 101.985C5.5831 101.272 5.22671 100.678 4.98913 99.9651C4.03881 97.8269 3.20728 95.5699 2.49455 93.3129C2.01939 91.6499 1.54426 89.9868 1.18789 88.3238C0.950314 87.1359 0.712736 85.948 0.593946 84.6413C0.237578 82.0279 0 79.4146 0 76.6824C0 75.1382 -2.17545e-05 73.5939 0.237557 72.0497C0.356346 71.0993 0.475157 70.149 0.593946 69.1987C1.30668 63.6156 2.85093 58.3889 5.10792 53.5185C6.17703 51.1427 7.48372 48.767 8.90919 46.6287C11.285 42.9463 14.0171 39.5014 17.2244 36.4129C27.3215 26.5534 41.2199 20.4951 56.4249 20.4951C57.0188 20.4951 57.6128 20.4951 58.2067 20.4951C58.8007 20.4951 59.5134 20.4951 60.1073 20.6139C63.3146 20.8515 66.522 21.3266 69.6105 22.0394C71.3923 22.5145 73.1742 22.9897 74.8372 23.5836C76.0251 23.94 77.0942 24.4152 78.2821 24.8903C79.1136 25.2467 79.9452 25.6031 80.7767 25.9594C80.8955 26.0782 81.0143 26.0782 81.2518 26.197C86.7161 28.8104 91.7053 32.374 95.9817 36.6505C96.5757 37.2444 97.1696 37.8383 97.7635 38.5511C98.1199 39.0262 98.5951 39.3826 98.9514 39.8578C99.6642 40.5705 100.258 41.402 100.852 42.1148C103.109 44.9657 105.01 48.0542 106.673 51.2615C108.573 55.0628 110.118 59.1016 111.187 63.2592C111.899 67.4169 112.493 71.9309 112.493 76.6824Z" fill="url(#paint2_radial_2318_3385)"/>
<path fill-rule="evenodd" clip-rule="evenodd" d="M80.8955 26.0786C80.6579 26.0786 80.5391 26.0786 80.3015 26.1974C79.7076 26.3162 79.1136 26.1974 78.5197 26.0786C78.0445 25.9599 77.807 25.7223 77.213 25.7223C76.5003 25.6035 75.9063 25.3659 75.1936 25.2471C74.4809 25.1283 73.8869 24.8908 73.1742 24.6532C72.5802 24.4156 72.3427 24.5344 71.8675 24.6532C71.3923 24.772 71.036 24.5344 70.5608 24.4156C70.0857 24.178 69.4917 24.178 69.0165 24.0592C67.5911 23.8216 66.1656 23.3465 64.7401 22.9901C63.9086 22.7525 63.0771 22.7525 62.1268 22.7525C61.414 22.7525 60.8201 22.9901 60.1073 22.9901C59.6322 22.9901 59.2758 22.8713 58.8007 22.8713C58.3255 22.7525 57.8504 22.8713 57.3752 22.8713C56.6625 22.7525 56.3061 22.6338 55.5934 22.8713C54.9994 22.9901 54.6431 22.9901 54.0491 23.1089C53.4552 23.1089 52.7424 23.3465 52.1485 23.4653C51.0794 23.7029 49.8915 23.9404 48.8224 23.9404C48.1096 23.9404 47.1593 23.7029 46.5654 23.9404C46.209 24.0592 45.9714 24.5344 45.6151 24.772C45.0211 25.3659 44.4272 25.8411 43.952 26.435C43.4769 27.029 43.0017 27.7417 43.0017 28.5732C43.0017 29.286 43.3581 30.1175 43.7144 30.7114C44.0708 31.4242 44.1896 32.0181 43.4768 32.4933C42.6453 33.0872 41.5762 33.5624 40.6259 33.9187C39.9132 34.1563 39.3192 34.2751 38.8441 33.7999C38.6065 33.6812 38.4877 33.3248 38.2501 33.0872C38.0125 32.9684 37.6562 33.0872 37.4186 33.206C36.7059 33.4436 35.9931 33.6812 35.2804 33.7999C34.8052 33.9187 34.4489 34.1563 33.9737 34.1563C33.4985 34.2751 33.1422 33.9187 32.5482 34.0375C31.8355 34.1563 31.004 34.5127 30.2913 34.5127C29.6973 34.5127 28.9846 34.2751 28.5094 34.0375C28.2718 33.9187 28.153 33.6812 27.7967 33.7999C27.5591 33.7999 27.2027 34.1563 27.0839 34.3939C26.8464 34.6315 26.8464 34.9878 26.6088 35.2254C26.3712 35.5818 26.2524 35.8194 26.0148 36.1757C25.6585 36.7697 25.3021 37.3636 24.9457 37.9576C24.7082 38.3139 24.4706 38.9079 24.1142 39.2642C23.9954 39.5018 23.639 39.6206 23.4015 39.7394C22.8075 40.0958 22.2136 40.5709 21.6196 40.9273C20.5505 41.7588 19.4814 42.7091 18.4123 43.5407C17.5808 44.1346 16.3929 44.491 15.4426 44.9661C14.8487 45.2037 14.2547 45.4413 13.6608 45.6789C13.4232 45.7977 13.0668 45.7977 12.948 46.0352C12.7104 46.2728 12.5917 46.5104 12.4729 46.8668C11.9977 47.4607 11.4038 48.1734 11.0474 48.8862C10.8098 49.3613 10.691 49.7177 10.4534 50.1929C10.2159 50.7868 9.85949 51.3808 9.7407 52.0935C9.26554 53.4002 9.26555 54.8256 8.6716 56.1323C8.43402 56.8451 7.95887 57.5578 7.60251 58.2705C7.00856 59.4584 6.88976 60.8839 6.77097 62.1906C6.65218 62.9033 6.77097 63.8536 6.88976 64.5664C7.00855 65.3979 7.00856 66.2294 7.00856 67.0609C7.00856 67.8925 6.41462 68.8428 5.93946 69.4367C5.46431 70.0307 4.63277 70.2682 4.03883 70.8622C3.56367 71.3373 2.96972 71.8125 2.73214 72.5252C2.61335 72.7628 2.73214 73.1192 2.73214 73.4756C2.61335 74.1883 2.37579 74.7822 2.37579 75.495C2.257 76.3265 2.25699 77.158 2.25699 78.1083C2.25699 78.5835 2.25699 78.9399 2.25699 79.415C2.25699 79.8902 2.37576 80.2465 2.49455 80.6029C2.49455 80.8405 2.49455 81.1968 2.49455 81.4344C2.49455 81.7908 2.73214 82.1472 2.73214 82.3847C2.96972 83.2163 3.0885 83.929 3.20729 84.7605C3.32608 85.4733 3.68245 86.186 3.80123 86.8987C4.1576 87.8491 4.2764 88.7994 4.51398 89.8685C4.63277 90.5812 4.63278 91.4127 4.75157 92.1255C4.87036 92.7194 4.98913 93.3133 4.98913 93.9073C4.98913 94.8576 4.75157 95.6891 4.75157 96.6395C4.75157 98.1837 5.3455 99.728 5.70187 101.272C5.82066 101.747 5.93943 102.104 6.05822 102.579C2.13818 94.9764 0 86.3048 0 77.158C0 65.9918 3.2073 55.6572 8.7904 46.9855C11.1662 43.3031 13.8983 39.8582 17.1056 36.8885C27.2027 27.029 41.1011 20.9707 56.3061 20.9707C57.494 20.9707 58.8007 20.9707 59.9886 21.0895C67.3535 20.9707 74.4808 22.8713 80.8955 26.0786Z" fill="url(#paint3_linear_2318_3385)"/>
<path opacity="0.1" fill-rule="evenodd" clip-rule="evenodd" d="M59.752 103.054C59.752 103.054 64.9787 110.775 71.9872 117.071C78.9958 123.367 79.9461 127.643 79.9461 127.643C79.9461 127.643 93.1317 122.179 102.516 109.112C111.9 96.1642 59.752 103.054 59.752 103.054Z" fill="black"/>
<path opacity="0.4" fill-rule="evenodd" clip-rule="evenodd" d="M69.2548 21.9212C66.1663 21.2085 63.0778 20.7333 59.7517 20.4957C59.1578 20.4957 58.445 20.377 57.8511 20.377C59.1577 21.0897 60.4644 22.3964 60.702 23.8218C61.1772 26.1976 62.0087 28.3358 62.3651 30.5928C62.8402 32.8498 62.7214 35.7008 61.6523 37.7202C61.0584 39.0269 60.2269 40.096 59.1578 41.1651C58.445 41.8778 57.7323 42.353 57.2571 43.3033C56.782 44.2536 56.188 45.0851 55.5941 45.9166C54.7626 47.2233 53.8122 48.53 52.7431 49.7179C52.3868 50.1931 52.0304 50.4306 51.674 50.9058C51.3177 51.4997 51.0801 52.0937 50.6049 52.5688C49.5358 53.6379 47.9916 54.3507 46.6849 54.8258C44.903 55.5386 43.3588 56.2513 41.6957 57.2016C39.3199 58.5083 37.3005 60.0526 34.5684 60.1714C33.618 60.1714 32.6677 60.0526 31.7174 60.1714C30.5295 60.2901 29.4604 60.7653 28.3913 61.0029C27.441 61.2405 26.3719 61.3592 25.4216 61.5968C23.7586 61.8344 22.4519 62.4284 20.9076 62.7847C18.8882 63.2599 16.75 63.1411 14.6118 63.4975C12.7112 63.735 11.1669 63.9726 9.26627 63.4975C6.41533 62.7847 4.87105 61.478 5.465 58.3895C5.82137 56.3701 5.70261 54.8258 4.75229 53.4004C2.4953 58.2707 0.951017 63.6162 0.238281 69.0806C1.54496 69.6745 3.08922 69.9121 4.3959 70.0309C8.55353 70.506 13.0675 68.6054 16.8688 67.1799C18.7694 66.4672 20.7888 65.3981 22.927 65.1605C25.184 64.9229 27.0847 65.1605 29.3416 64.6853C36.9442 62.7847 44.4279 60.1714 51.3177 56.1325C54.1686 54.4695 55.3565 52.0937 57.3759 49.7179C59.039 47.5797 61.0584 45.9166 63.0778 44.1348C65.0972 42.353 66.8791 40.6899 68.0669 38.3141C69.3736 35.8196 70.4427 32.9686 71.0367 30.2365C71.6306 27.1479 70.7991 24.297 69.2548 21.9212ZM68.8985 29.5237C68.7797 30.1177 68.6609 30.8304 68.5421 31.4244C68.0669 32.9686 67.1166 34.5129 65.6912 35.2256C65.0972 35.582 64.1469 35.3444 63.7905 34.7505C63.5529 34.3941 63.553 33.9189 63.553 33.5626C63.4342 32.731 63.3154 32.0183 63.3154 31.1868C63.3154 29.2861 63.3154 27.3855 63.0778 25.4849C63.3154 26.554 63.0778 23.8218 64.7409 23.1091C65.5724 22.7527 66.7603 23.1091 67.3542 23.7031C68.0669 24.5346 68.3045 25.8413 68.5421 26.7916C68.7797 27.8607 69.0173 28.5734 68.8985 29.5237Z" fill="url(#paint4_linear_2318_3385)"/>
<path opacity="0.4" fill-rule="evenodd" clip-rule="evenodd" d="M60.7013 119.446C60.5825 119.446 60.3449 119.565 60.2261 119.565L61.2952 119.684C61.2952 119.565 61.0576 119.446 60.7013 119.446ZM60.7013 119.446C60.5825 119.446 60.3449 119.565 60.2261 119.565L61.2952 119.684C61.2952 119.565 61.0576 119.446 60.7013 119.446ZM110.83 63.0215C110.83 64.447 110.355 65.9912 110.355 67.4167C110.355 69.4361 109.999 70.9804 109.524 72.881C109.167 74.1877 108.455 75.138 108.098 76.4447C107.623 77.8701 106.91 79.1768 106.198 80.4835C104.772 83.0969 103.228 85.829 102.634 88.7988C102.04 91.5309 101.921 93.7879 100.614 96.2825C99.3078 98.6583 97.4072 100.678 95.9817 103.053C95.3877 104.123 94.9126 104.123 93.8435 104.835C92.7744 105.667 91.7053 106.855 90.6362 107.686C88.3792 109.468 86.241 110.775 83.39 111.844C81.6082 112.557 79.9451 113.032 78.0445 113.269C76.8566 113.507 75.6687 113.269 74.4808 113.507C72.5802 113.863 70.7984 114.338 68.8977 114.932C65.928 115.883 62.8395 116.477 59.8698 117.427C57.7315 118.021 55.7121 118.496 53.5739 118.852C52.2672 119.09 51.1981 119.803 49.8915 119.565C48.5848 119.328 47.2781 118.852 45.9714 118.377C44.3083 117.902 42.8829 117.783 41.101 117.783C38.7252 117.783 35.8743 118.14 33.3797 117.665C30.6476 117.189 28.0342 116.358 25.3021 115.883C23.639 115.526 22.4511 114.814 20.9069 114.22C19.4814 113.507 18.0559 113.388 16.5117 112.913C14.9674 112.438 13.4232 111.725 11.8789 111.369C14.2547 114.457 16.9868 117.308 20.0754 119.803C28.0342 126.574 37.8937 131.088 48.8223 132.513C50.2478 132.632 51.6733 132.87 53.2175 132.87C56.4249 132.157 59.5134 131.207 62.7207 130.256C68.0662 128.593 72.699 125.386 78.0445 123.842C80.0639 123.248 81.8458 122.654 83.6276 121.703C85.0531 120.991 86.4785 120.872 87.7852 120.278C92.7744 118.14 96.4568 113.388 98.7138 108.637C99.6641 106.498 100.614 104.123 102.515 102.46C103.228 101.747 104.178 101.272 104.772 100.44C105.485 99.6086 105.96 98.6583 106.673 97.708C107.861 96.1637 108.93 94.5006 109.999 92.9564C110.118 92.7188 110.236 92.6 110.355 92.3624C111.781 87.3733 112.493 82.1466 112.493 76.801C112.493 71.9307 111.899 67.4167 110.83 63.0215ZM59.157 119.803C59.3946 119.684 59.6322 119.446 59.8698 119.328C60.1073 119.209 60.4637 119.328 60.7013 119.446C61.1764 119.328 61.5328 119.328 61.8891 119.565C62.1267 119.684 62.4831 119.922 62.6019 120.159C62.7207 120.397 62.6019 120.515 62.3643 120.753C62.1268 120.991 62.008 120.991 61.6516 120.991C61.0576 121.109 60.4637 121.228 59.751 121.109C59.3946 121.109 58.8006 120.991 58.5631 120.753C58.5631 120.278 58.9194 120.04 59.157 119.803ZM62.8395 127.168C62.4831 127.643 62.1268 128.118 61.6516 128.356C61.1764 128.712 60.7013 128.831 60.3449 129.187C59.157 129.781 57.9691 130.494 56.7812 130.85C56.3061 130.969 55.7121 130.969 55.237 130.969C54.643 131.088 53.9303 131.088 53.3363 131.088C52.6236 131.088 51.7921 131.207 51.0794 131.325C50.3666 131.325 49.5351 131.444 48.8223 131.444C47.5157 131.563 46.4465 131.325 45.2587 130.85C44.1896 130.494 43.1205 129.9 42.1702 129.306C41.4574 128.831 40.8635 128.237 40.3883 127.643C39.7944 127.168 39.438 126.574 39.0816 125.861C38.9628 125.623 38.844 125.386 38.9628 125.029C38.9628 124.911 39.0816 124.792 39.0816 124.792C39.3192 124.673 39.5568 124.436 39.6756 124.436C40.0319 124.198 40.5071 124.198 40.9823 124.079C42.0514 123.96 43.1205 124.079 44.1896 124.198C44.7835 124.198 45.3775 124.317 45.9714 124.198C46.8029 124.079 47.6344 123.842 48.3472 123.604C50.2478 123.129 52.1485 122.654 54.0491 122.535C55.9497 122.297 58.0879 122.06 59.9885 122.416C60.7013 122.535 61.6516 122.772 62.2455 123.129C62.7207 123.485 63.0771 123.96 63.3146 124.436C63.671 125.386 63.4334 126.336 62.8395 127.168ZM77.8069 122.297C77.4506 122.654 76.9754 122.891 76.5002 123.248C75.9063 123.723 75.3124 123.96 74.7184 124.317C74.2433 124.673 73.6493 124.911 73.1741 125.148C72.5802 125.386 72.105 125.623 71.5111 125.98C70.9171 126.217 70.3232 126.455 69.7292 126.693C69.2541 126.811 68.779 127.049 68.3038 126.93C67.9474 126.811 67.4722 126.693 67.2347 126.455C66.7595 125.98 66.8783 125.505 66.9971 125.267C66.9971 124.911 66.8783 124.317 66.9971 123.842C67.1159 123.604 67.3535 123.248 67.4723 123.01C67.9474 122.06 68.6602 121.466 69.3729 120.753C69.9668 120.159 70.6796 119.684 71.5111 119.328C72.4614 118.971 73.6493 118.852 74.5996 118.734C75.6687 118.615 77.5693 118.496 78.1633 119.803C78.5197 120.634 78.4009 121.466 77.8069 122.297ZM61.414 119.565C61.2952 119.565 61.0576 119.446 60.8201 119.328C60.7013 119.328 60.4637 119.446 60.3449 119.446L61.414 119.565Z" fill="url(#paint5_linear_2318_3385)"/>
<path opacity="0.4" fill-rule="evenodd" clip-rule="evenodd" d="M106.318 51.0239V51.2615C106.199 52.8058 105.605 53.8749 105.011 55.3003C104.536 56.4882 104.061 57.4385 103.467 58.5076C102.517 60.2895 102.042 61.9525 101.329 63.9719C100.141 66.9417 99.6658 70.149 97.8839 72.8811C96.3397 75.3757 95.8645 78.3455 94.6766 80.9588C93.2511 83.9285 90.9941 85.948 88.6183 88.0862C87.5492 89.0365 86.5989 90.2244 85.6486 91.2935C84.5795 92.3626 83.8668 93.7881 82.5601 94.7384C79.9468 96.639 76.977 98.302 74.3636 100.321C72.8194 101.509 71.7503 103.172 69.9685 104.123C68.3054 105.192 66.4048 105.905 64.7417 106.855C63.1975 107.805 61.6532 108.756 59.9902 109.468C58.0895 110.181 56.5453 109.943 54.5259 110.062C52.3876 110.181 50.1307 110.775 48.1112 111.488C46.4482 112.082 45.0227 112.676 43.2409 112.082C42.053 111.725 41.1026 110.894 39.9148 110.656C37.0638 110.062 33.9753 110.656 31.1244 110.537C28.8674 110.419 26.4916 109.943 24.2346 109.468C22.0964 109.112 20.3146 107.568 18.2951 106.974C15.6818 106.261 12.712 106.855 10.3362 105.905C9.26714 105.548 8.31683 104.717 7.48531 104.123C7.24773 104.004 7.12894 103.885 6.89136 103.766C6.53499 103.172 6.17863 102.46 5.82227 101.866C6.41621 102.103 7.01016 102.341 7.6041 102.697C10.8114 104.242 14.8502 104.004 18.2951 104.598C22.2152 105.311 26.1352 106.261 30.0553 106.736C31.7183 106.974 33.2626 106.855 34.9256 106.736C37.1826 106.499 39.4396 106.499 41.6966 106.142C45.4979 105.429 49.2991 103.648 53.2192 104.123C53.9319 104.242 54.7634 104.598 55.4762 104.598C56.5453 104.598 57.3768 103.648 58.2083 103.054C59.7526 102.103 61.4156 102.222 62.8411 100.915C64.1478 99.6087 65.692 98.7772 67.3551 97.9457C71.6315 95.8075 75.0764 92.2438 78.5213 88.7989C81.3722 85.948 84.1044 82.9782 86.005 79.5333C87.9056 76.0885 87.5493 71.9308 88.9747 68.3671C90.0438 65.7538 90.8754 63.378 92.5384 61.121C93.3699 60.0519 94.3202 59.1016 95.1518 58.0325C96.1021 56.9634 96.5772 55.7755 97.29 54.4688C98.0027 53.0433 99.0718 51.8554 99.6658 50.3112C100.26 48.8857 100.141 47.6978 100.141 46.1536C100.141 44.6093 100.141 42.9463 100.141 41.2832C102.635 44.7281 104.655 47.8166 106.318 51.0239Z" fill="url(#paint6_linear_2318_3385)"/>
<path opacity="0.4" fill-rule="evenodd" clip-rule="evenodd" d="M97.4072 38.3141C96.8132 37.7202 96.2193 37.0074 95.6253 36.4135C91.3489 32.1371 86.3597 28.6922 80.8954 25.96C80.7767 25.8413 80.6579 25.8413 80.4203 25.7225C79.5888 25.3661 78.7572 25.0097 77.9257 24.6534C76.7378 24.1782 75.6687 23.703 74.4808 23.3467C74.8372 23.5843 75.3124 23.8218 75.4312 23.8218C76.1439 24.1782 76.7379 24.4158 77.213 25.0097C77.6882 25.6037 77.9257 26.0788 77.9257 26.9104C77.9257 27.6231 78.0445 28.4546 78.1633 29.1674C78.2821 29.8801 78.6385 30.474 78.7573 31.1868C78.876 31.5431 78.8761 31.8995 78.9949 32.3747C79.2324 33.325 79.5888 34.2753 79.8263 35.2256C80.1827 37.0074 79.2324 38.4329 78.6385 39.9772C77.6881 42.4718 77.0942 44.9663 76.2627 47.5797C75.6687 49.5991 74.5996 51.6185 73.0554 53.1628C71.5111 54.5883 69.2541 54.9446 67.9474 56.4889C66.7595 57.9143 65.3341 59.221 63.671 59.9338C61.7704 60.8841 59.6322 61.5968 57.6128 62.1908C56.1873 62.6659 54.643 62.6659 53.0988 63.0223C51.1981 63.4974 49.5351 64.4478 47.8721 65.1605C45.9714 65.992 44.3084 66.9423 42.4077 67.7739C40.5071 68.6054 38.8441 69.6745 36.9434 70.3872C35.9931 70.7436 35.0428 70.9812 34.2113 71.2187C32.3107 71.9315 30.5288 73.1194 28.5094 73.357C27.7967 73.4757 27.0839 73.5945 26.3712 73.5945C25.7772 73.5945 25.3021 73.7133 24.8269 73.8321C23.0451 74.5448 21.976 76.4455 19.9566 76.5643C18.056 76.5643 16.2741 76.4455 14.4923 76.683C13.542 76.8018 12.7104 76.6831 11.8789 76.8018C11.6413 76.8018 11.285 76.9206 11.0474 76.8018C10.8098 76.6831 10.4535 76.4455 10.0971 76.2079C9.38435 75.8515 8.7904 75.3764 8.19645 74.9012C7.00856 73.9509 5.46431 74.5448 4.15762 74.1885C3.80126 74.0697 3.2073 74.1885 2.85093 73.9509C2.01941 73.4757 0.950292 72.4066 0.237557 71.8127C0.118767 73.3569 0 74.9012 0 76.4455C0 79.1776 0.237578 81.791 0.593946 84.4043C0.712735 85.5922 0.950314 86.7801 1.18789 88.0868C1.54426 89.7499 2.01939 91.5317 2.49455 93.076C3.20728 95.333 4.03881 97.59 4.98913 99.7282C6.53339 99.9657 8.07764 100.203 9.6219 99.9657C11.8789 99.6094 14.0171 99.253 16.2741 99.3718C18.4123 99.4906 20.3129 100.203 22.3324 100.56C24.5894 100.916 26.9651 101.272 29.3409 101.391C31.4791 101.51 33.6174 101.748 35.6368 101.985C37.181 102.223 38.8441 102.46 40.3883 102.579C44.546 102.817 48.5848 101.748 52.6236 101.391C54.643 101.154 56.6625 100.678 58.6819 100.203C59.8698 99.9657 61.0577 99.6094 62.1268 98.8966C63.5522 97.9463 64.5025 96.6396 65.6904 95.5705C67.1159 94.3826 68.5414 93.1948 69.9669 92.1256C71.1547 91.1753 72.3427 90.1062 73.6493 89.2747C74.5996 88.6808 75.6687 87.968 76.6191 87.2553C78.4009 85.8298 79.9451 84.1668 81.4894 82.3849C83.6276 79.8904 84.4591 76.4455 85.2907 73.357C86.1222 70.506 86.5973 67.7739 88.1416 65.1605C88.8543 63.9726 89.4483 62.5471 89.8046 61.1217C90.0422 60.2901 90.161 59.221 90.5174 58.3895C91.1113 57.0828 92.418 56.0137 93.1308 54.8258C93.7247 53.8755 94.4374 52.9252 94.7938 51.7373C95.6253 49.5991 96.2193 47.4609 96.5756 45.0851C96.8132 43.4221 97.4072 41.759 97.8823 40.096C98.0011 39.8584 98.0011 39.502 98.1199 39.2644C98.1199 39.1456 97.7635 38.6705 97.4072 38.3141ZM24.1142 76.8018C24.233 76.5643 26.3712 75.7327 26.6088 75.614C26.6088 75.614 26.6088 75.614 26.49 75.614L25.0645 76.2079C26.6088 75.7327 29.3409 77.277 28.0342 78.94C27.6779 79.4152 26.6088 79.6528 26.0148 79.7716C25.4209 79.8904 25.0645 79.6528 24.7081 79.1776C24.3518 78.7025 24.1142 77.9897 24.1142 77.3958C24.1142 77.277 24.1142 76.9206 24.1142 76.8018ZM7.36491 91.8881C5.70186 91.4129 4.63275 90.819 3.68244 89.3935C2.9697 88.4432 2.49457 87.6117 2.25699 86.5426C2.1382 85.5922 1.78182 84.8795 2.0194 83.9292C2.13818 83.2165 2.49457 82.3849 2.85093 81.791C3.2073 81.0783 3.80123 80.2467 3.80123 80.0092C5.46428 79.8904 7.00854 79.7716 8.5528 79.7716C10.3346 79.7716 12.2353 80.0092 14.0171 80.0092C14.8486 80.0092 15.6802 80.0092 16.5117 79.8904C17.3432 79.7716 18.056 79.534 18.8875 79.4152C20.313 79.1776 21.6196 79.0588 22.9263 79.6528C23.8766 80.1279 24.3518 81.3158 24.8269 82.2661C25.0645 82.8601 25.3021 83.2165 25.3021 83.9292C25.3021 84.7607 25.3021 85.4734 25.1833 86.1862C25.1833 86.4238 25.0645 86.7801 25.0645 87.0177C23.8766 89.5123 20.7881 90.3438 18.4123 91.2941C14.8487 92.7196 10.9286 92.8384 7.36491 91.8881ZM32.667 97.3524C31.9543 99.253 28.8658 99.847 27.0839 99.9657C26.2524 99.9657 25.1833 99.847 24.3518 99.3718C23.8766 99.1342 23.5203 98.6591 23.1639 98.1839C22.9263 97.8275 22.5699 97.2336 21.6196 97.4712C21.8572 96.4021 22.0948 95.4518 22.57 94.5014C22.9263 94.0263 23.4015 93.6699 23.8766 93.1948C24.7081 92.482 25.6585 91.7693 26.6088 91.2941C28.153 90.4626 29.8161 91.0565 31.2416 91.7693C32.3107 92.2444 33.0234 92.9572 33.261 94.0263C33.6174 95.333 33.1422 96.1645 32.667 97.3524ZM53.5739 96.996C52.98 98.3027 52.1485 98.6591 50.9606 99.3718C49.5351 100.085 47.6345 100.678 46.0902 100.678C45.2587 100.678 44.4272 100.322 43.7144 99.9657C43.2393 99.7282 42.6453 99.6094 42.2889 99.253C41.2198 98.1839 40.9823 96.7584 41.695 96.996C41.2198 96.0457 40.9823 95.0954 40.8635 94.1451C41.1011 94.0263 41.2198 93.7887 41.2198 93.5511C41.8138 92.482 42.8829 91.5317 44.0708 90.9378C45.9714 89.8687 48.466 89.6311 50.6042 90.5814C51.5545 90.9378 52.1485 91.4129 52.7424 92.1256C53.0988 92.482 53.4551 92.7196 53.8115 93.1948C54.1679 94.1451 53.9303 95.9269 53.5739 96.996ZM59.8698 96.7584C59.5134 96.996 58.9194 97.4712 58.5631 97.4712C58.2067 97.3524 57.6128 96.7584 57.6128 96.2833L57.3752 96.0457C57.8503 95.2142 58.3255 94.5014 58.8007 93.6699C59.5134 94.0263 60.2261 93.9075 60.7013 94.739C61.2952 95.5705 60.4637 96.2833 59.8698 96.7584ZM75.9063 59.3398C75.3124 60.1713 74.4809 61.0029 73.5305 61.3592C72.3426 61.8344 70.6796 62.3096 70.5608 60.4089C70.5608 59.3398 70.6796 58.5083 71.1547 57.558C71.8675 56.1325 72.4614 55.7761 73.8869 55.0634C74.362 55.0634 74.956 55.301 75.3124 55.4198C76.0251 55.6574 76.7378 56.3701 76.8566 57.2016C76.9754 58.0331 76.3815 58.7459 75.9063 59.3398ZM90.755 51.3809C90.161 53.2816 89.3295 55.0634 88.498 56.7265C87.5477 58.8647 87.4289 61.1217 86.8349 63.3787C86.5973 64.6853 85.8846 66.1108 84.6967 66.586C84.1028 66.8235 83.6276 66.7048 83.0337 66.7048C82.4397 66.7048 81.4894 66.9423 81.4894 67.4175C81.133 66.4672 80.6579 65.2793 80.4203 64.329C80.1827 63.2599 80.0639 62.072 79.9451 60.8841C79.7076 59.6962 79.7076 58.5083 79.5888 57.3204C79.47 56.2513 79.2324 55.0634 79.2324 53.9943C79.2324 50.3118 81.3706 45.6791 84.8155 44.016C85.8846 43.5408 86.9537 43.3033 88.1416 43.4221C89.4483 43.6596 90.2798 44.016 90.8738 45.3227C91.5865 47.1045 91.2301 49.4803 90.755 51.3809Z" fill="url(#paint7_linear_2318_3385)"/>
<path opacity="0.4" fill-rule="evenodd" clip-rule="evenodd" d="M74.5645 56.2637C74.4457 56.3825 74.2081 56.3825 74.0893 56.5012C73.7329 56.5012 73.4954 56.3825 73.2578 56.5012L74.5645 56.2637Z" fill="url(#paint8_linear_2318_3385)"/>
<path fill-rule="evenodd" clip-rule="evenodd" d="M58.2918 83.5848C55.9161 82.3969 58.6482 71.8246 61.024 69.4489C63.3998 67.0731 69.6956 72.5374 70.4083 76.9326C71.2398 81.4466 63.8749 86.1981 58.2918 83.5848Z" fill="url(#paint9_linear_2318_3385)"/>
<path opacity="0.4" fill-rule="evenodd" clip-rule="evenodd" d="M3.68287 80.009C3.56408 80.009 3.44531 80.009 3.44531 80.009C3.68289 79.8902 3.68287 79.8902 3.68287 80.009Z" fill="url(#paint10_linear_2318_3385)"/>
<path fill-rule="evenodd" clip-rule="evenodd" d="M66.998 21.4454L76.8575 17.5254C76.8575 17.5254 92.5377 23.5836 102.516 37.0068L103.11 45.5597C103.11 45.5597 84.3413 38.3135 66.998 21.4454Z" fill="url(#paint11_linear_2318_3385)"/>
<path fill-rule="evenodd" clip-rule="evenodd" d="M102.873 108.28C102.873 108.28 94.5579 117.308 88.3808 119.209L83.2729 120.753C83.2729 120.753 59.8714 112.319 58.5647 97.7079C57.4956 85.3538 78.5213 66.4663 84.2232 64.2093C89.9251 61.9524 96.5773 63.259 96.5773 63.259L102.873 108.28Z" fill="url(#paint12_linear_2318_3385)"/>
<path fill-rule="evenodd" clip-rule="evenodd" d="M96.5766 63.2601C91.5875 61.7159 70.3242 71.5754 64.5035 93.5514C63.3156 98.0654 74.1254 115.052 87.0735 119.21C91.3499 120.635 111.069 103.411 111.9 91.7696C112.732 80.1282 103.942 65.6359 96.5766 63.2601Z" fill="url(#paint13_linear_2318_3385)"/>
<path fill-rule="evenodd" clip-rule="evenodd" d="M65.9287 96.1634C69.0172 71.2177 91.706 63.0212 96.6951 64.5655C100.259 65.7534 105.486 70.9801 108.574 76.088C105.486 69.6734 100.853 64.4467 96.6951 63.14C91.706 61.5958 70.4427 71.4553 64.622 93.4313C64.2657 94.9755 65.216 98.064 67.3542 101.628C66.0475 99.3707 65.6911 97.3513 65.9287 96.1634Z" fill="url(#paint14_linear_2318_3385)"/>
<path opacity="0.3" fill-rule="evenodd" clip-rule="evenodd" d="M24.1141 123.011C24.1141 123.011 29.222 124.912 32.9045 123.842C32.9045 123.842 34.3299 111.845 29.8159 104.123C25.302 96.4022 17.5807 108.044 17.5807 108.044L15.7988 115.408C15.7988 115.408 20.0752 120.516 24.1141 123.011Z" fill="black"/>
<path fill-rule="evenodd" clip-rule="evenodd" d="M28.5089 121.11L31.7162 120.278C31.7162 120.278 33.2605 113.626 30.5283 106.024C27.4398 97.4707 16.036 91.0561 14.373 90.9373C12.7099 90.8185 11.0469 94.6198 11.0469 94.6198L28.5089 121.11Z" fill="url(#paint15_linear_2318_3385)"/>
<path fill-rule="evenodd" clip-rule="evenodd" d="M79.9447 127.643L74.4804 134.651C74.4804 134.651 65.096 139.165 55.5929 137.027L48.7031 132.394L79.9447 127.643Z" fill="url(#paint16_linear_2318_3385)"/>
<path fill-rule="evenodd" clip-rule="evenodd" d="M8.67282 99.8454C9.26677 97.232 11.5238 92.9556 13.5432 92.4805C15.5626 92.0053 25.3033 101.271 27.5603 107.21C29.8173 113.15 28.6294 119.683 28.5106 120.99C28.3918 122.297 17.4632 118.614 11.8801 114.1C6.41584 109.586 8.67282 99.8454 8.67282 99.8454Z" fill="url(#paint17_linear_2318_3385)"/>
<path fill-rule="evenodd" clip-rule="evenodd" d="M27.5609 107.212C25.3039 101.272 15.682 92.1254 13.5438 92.4818C12.7122 92.6006 11.8807 93.4321 11.168 94.3824C11.6431 93.9073 12.1183 93.6697 12.5934 93.5509C14.6128 93.0757 24.4724 100.441 26.7294 106.38C29.4615 113.626 27.9172 118.853 27.6797 121.229C28.1548 121.229 28.5112 121.229 28.5112 120.991C28.63 119.685 29.8179 113.151 27.5609 107.212Z" fill="url(#paint18_linear_2318_3385)"/>
<path fill-rule="evenodd" clip-rule="evenodd" d="M60.4633 81.3151C58.5627 80.3648 60.7009 71.5744 62.6015 69.555C64.5021 67.6543 69.4913 72.1683 70.204 75.8508C70.9167 79.5333 64.9773 83.4533 60.4633 81.3151Z" fill="url(#paint19_linear_2318_3385)"/>
<path fill-rule="evenodd" clip-rule="evenodd" d="M76.8575 17.5254C76.8575 17.5254 77.3327 23.4648 84.1037 30.8298C90.8747 38.1947 102.516 37.0068 102.516 37.0068L103.11 45.5597C103.11 45.5597 78.4018 34.631 66.998 21.4454L76.8575 17.5254Z" fill="url(#paint20_linear_2318_3385)"/>
<path fill-rule="evenodd" clip-rule="evenodd" d="M96.2219 70.6236C95.9843 70.8611 95.2715 71.3363 95.8655 71.6927C95.9843 71.8115 96.1031 71.6927 96.2219 71.8115C96.3406 71.8115 96.3406 71.9302 96.4594 71.9302C96.8158 71.6927 96.697 70.5048 96.2219 70.6236Z" fill="#0EDBFF"/>
<path fill-rule="evenodd" clip-rule="evenodd" d="M119.505 60.6459C119.267 60.8835 118.555 61.3586 119.149 61.715C119.267 61.8338 119.386 61.715 119.505 61.8338C119.624 61.8338 119.624 61.9526 119.743 61.9526C120.218 61.5962 119.98 60.5271 119.505 60.6459Z" fill="#0EDBFF"/>
<path fill-rule="evenodd" clip-rule="evenodd" d="M109.288 101.984C109.051 102.222 108.338 102.697 108.932 103.053C109.051 103.172 109.169 103.053 109.288 103.172C109.407 103.172 109.407 103.291 109.526 103.291C110.001 103.053 109.763 101.865 109.288 101.984Z" fill="#0EDBFF"/>
<path fill-rule="evenodd" clip-rule="evenodd" d="M98.2422 74.7809C98.4798 74.6621 98.5986 74.6621 98.8361 74.6621C98.8361 74.8997 99.0737 75.3748 98.7173 75.6124C98.4798 75.7312 98.4798 75.2561 98.361 75.1373L98.2422 74.7809Z" fill="#0EDBFF"/>
<path fill-rule="evenodd" clip-rule="evenodd" d="M61.2962 77.2759C61.6525 77.3947 62.0089 77.6323 62.3653 77.7511C62.4841 77.6323 62.6029 77.6323 62.8404 77.6323C63.078 77.5135 63.1968 77.2759 63.1968 77.0383C63.3156 76.682 63.1968 76.4444 62.9592 76.2068C62.8404 76.088 62.7216 75.8505 62.6028 75.7317C62.4841 75.6129 62.1277 75.6129 61.8901 75.7317C61.6525 75.8505 61.5337 76.088 61.4149 76.3256C61.2962 76.5632 61.0586 76.8008 61.0586 77.0383C61.0586 77.2759 61.2962 77.5135 61.4149 77.7511L61.2962 77.2759Z" fill="#0EDBFF"/>
<path fill-rule="evenodd" clip-rule="evenodd" d="M8.79228 105.311C9.14865 105.43 9.50501 105.667 9.86138 105.786C9.98017 105.667 10.0989 105.667 10.3365 105.667C10.5741 105.549 10.6929 105.311 10.6929 105.074C10.8117 104.717 10.6929 104.48 10.4553 104.242C10.3365 104.123 10.2178 103.886 10.099 103.767C9.98018 103.648 9.62381 103.648 9.38623 103.767C9.14865 103.886 9.02987 104.123 8.91108 104.361C8.79229 104.598 8.55469 104.836 8.55469 105.074C8.55469 105.311 8.79229 105.549 8.91108 105.786L8.79228 105.311Z" fill="#0EDBFF"/>
<path fill-rule="evenodd" clip-rule="evenodd" d="M111.07 119.921C111.426 120.04 111.782 120.278 112.139 120.397C112.258 120.278 112.376 120.278 112.614 120.278C112.851 120.159 112.97 119.921 112.97 119.684C113.089 119.327 112.97 119.09 112.733 118.852C112.614 118.734 112.495 118.496 112.376 118.377C112.257 118.258 111.901 118.258 111.664 118.377C111.426 118.496 111.307 118.734 111.188 118.971C111.07 119.209 110.832 119.446 110.832 119.684C110.832 119.921 111.07 120.159 111.188 120.397L111.07 119.921Z" fill="#0EDBFF"/>
<path fill-rule="evenodd" clip-rule="evenodd" d="M103.704 109.707C104.061 109.825 104.417 110.063 104.773 110.182C104.892 110.063 105.011 110.063 105.249 110.063C105.486 109.944 105.605 109.707 105.605 109.469C105.724 109.113 105.605 108.875 105.367 108.637C105.249 108.519 105.13 108.281 105.011 108.162C104.892 108.044 104.536 108.044 104.298 108.162C104.061 108.281 103.942 108.519 103.823 108.756C103.704 108.994 103.467 109.231 103.467 109.469C103.467 109.707 103.704 109.944 103.823 110.182L103.704 109.707Z" fill="#0EDBFF"/>
<path fill-rule="evenodd" clip-rule="evenodd" d="M1.66533 38.9073C2.61564 39.2637 3.56595 39.62 4.51626 40.0952C4.87263 39.8576 5.22899 39.8576 5.58536 39.62C6.06051 39.2637 6.41688 38.6697 6.65445 38.1946C6.89203 37.363 6.53567 36.7691 6.1793 36.1751C5.94173 35.8188 5.70417 35.2248 5.3478 34.8685C4.87264 34.5121 4.04112 34.6309 3.56596 34.8685C2.97202 35.106 2.61564 35.7 2.25927 36.1751C1.90291 36.6503 1.54652 37.4818 1.42773 38.0758C1.42773 38.6697 1.90291 39.3825 2.37807 39.7388L1.66533 38.9073Z" fill="#0EDBFF"/>
<path fill-rule="evenodd" clip-rule="evenodd" d="M63.6731 4.69612C64.6234 5.05249 65.5738 5.40885 66.5241 5.88401C66.8804 5.64643 67.2368 5.64644 67.5932 5.40886C68.0683 5.05249 68.4247 4.45854 68.6623 3.98339C68.8998 3.15186 68.5435 2.55791 68.1871 1.96397C67.9495 1.6076 67.7119 1.01366 67.3556 0.657288C66.8804 0.30092 66.0489 0.419709 65.5737 0.657288C64.9798 0.894866 64.6234 1.48881 64.267 1.96397C63.9107 2.43912 63.5543 3.27065 63.4355 3.8646C63.4355 4.45854 63.9107 5.17128 64.3858 5.52765L63.6731 4.69612Z" fill="#0EDBFF"/>
<path fill-rule="evenodd" clip-rule="evenodd" d="M71.8701 86.5423C71.7513 86.6611 71.6325 86.7798 71.5137 87.0174C71.6325 87.255 71.7512 87.3738 71.9888 87.4926C72.1076 87.4926 72.2264 87.4926 72.3452 87.4926C72.464 87.3738 72.3452 87.255 72.464 87.1362C72.5828 86.8986 72.5828 86.7798 72.464 86.5423C72.3452 86.4235 72.3452 86.3047 72.2264 86.3047C72.1076 86.3047 71.8701 86.3047 71.8701 86.4235V86.5423Z" fill="#0EDBFF"/>
<path fill-rule="evenodd" clip-rule="evenodd" d="M72.7014 92.4814C72.7014 92.6002 72.345 93.313 72.7014 93.0754C72.9389 92.9566 72.9389 92.6002 72.7014 92.4814C72.8201 92.4814 72.8201 92.4814 72.7014 92.4814Z" fill="#0EDBFF"/>
<path fill-rule="evenodd" clip-rule="evenodd" d="M91.3505 103.172C91.113 103.528 91.1129 103.647 90.9941 104.003C91.1129 104.122 91.3505 104.122 91.4693 104.122C91.7069 104.122 91.7069 104.003 91.7069 103.884C91.7069 103.766 91.8257 103.528 91.7069 103.409C91.5881 103.172 91.4693 103.053 91.3505 103.172Z" fill="#0EDBFF"/>
<path fill-rule="evenodd" clip-rule="evenodd" d="M75.6719 87.2542C75.7907 87.373 75.9095 87.4918 75.9095 87.7293C75.6719 87.7293 75.6719 87.6105 75.6719 87.373C75.6719 87.1354 75.7907 87.2542 75.9095 87.0166C75.9095 87.0166 75.9095 87.0166 76.0283 87.0166L75.6719 87.2542Z" fill="#0EDBFF"/>
<path fill-rule="evenodd" clip-rule="evenodd" d="M93.4892 71.3367C93.3704 71.4555 93.2516 71.5743 93.1328 71.693C93.2516 71.8118 93.1328 72.0494 93.3704 72.0494C93.4892 72.0494 93.608 71.9306 93.7268 71.693C93.8455 71.5743 93.8456 71.4555 93.8456 71.2179C93.8456 71.0991 93.8455 70.7427 93.7268 70.9803L93.4892 71.3367Z" fill="#0EDBFF"/>
<path fill-rule="evenodd" clip-rule="evenodd" d="M90.9941 29.8795C91.2317 29.8795 91.3505 29.7607 91.5881 29.7607C91.5881 29.7607 91.7069 29.7607 91.8257 29.7607C92.0633 29.7607 92.0633 29.7607 92.0633 29.8795C92.1821 29.9983 92.182 30.2359 92.182 30.3547C92.0632 31.0674 91.113 29.9983 91.4693 29.7607L90.9941 29.8795Z" fill="#0EDBFF"/>
<path fill-rule="evenodd" clip-rule="evenodd" d="M15.4448 31.1864C15.0885 31.3052 14.6133 31.3052 14.6133 31.6616C14.6133 32.0179 15.0884 32.2555 15.326 32.3743C15.8012 32.4931 16.5139 32.6119 16.7515 32.0179C16.8703 31.6616 16.7515 31.0676 16.6327 30.83C16.2763 30.2361 15.4448 30.4737 14.8509 30.7113L15.4448 31.1864Z" fill="#0EDBFF"/>
<path fill-rule="evenodd" clip-rule="evenodd" d="M95.6277 103.885C95.5089 102.816 95.2713 101.747 96.2216 101.153C96.6968 100.797 97.6471 100.797 98.241 101.153C98.5974 101.391 98.9538 101.866 99.0726 102.222C99.4289 102.816 99.3102 102.816 99.1914 103.291C98.835 104.479 98.4786 105.192 97.4095 105.192C95.8653 105.192 95.6277 104.004 95.6277 102.578V103.885Z" fill="#0EDBFF"/>
<path fill-rule="evenodd" clip-rule="evenodd" d="M96.3398 73.5944C96.815 73.4756 97.1714 73.238 97.409 72.8817C97.0526 72.6441 96.4586 72.2877 96.3398 72.8817V73.5944Z" fill="#0EDBFF"/>
<path fill-rule="evenodd" clip-rule="evenodd" d="M11.168 101.034C11.6431 100.915 11.9995 100.678 12.2371 100.321C11.8807 100.084 11.2868 99.7272 11.168 100.321V101.034Z" fill="#0EDBFF"/>
<path fill-rule="evenodd" clip-rule="evenodd" d="M11.168 110.062C11.6431 109.943 11.9995 109.706 12.2371 109.349C11.8807 109.112 11.2868 108.756 11.168 109.349V110.062Z" fill="#0EDBFF"/>
<path fill-rule="evenodd" clip-rule="evenodd" d="M74.8389 77.7517C75.3141 77.2765 75.908 76.3262 76.6208 76.8014C77.0959 77.1577 77.2147 77.8705 76.7395 78.2268C76.3831 78.4644 76.0268 78.5832 75.5516 78.702C75.1953 78.8208 74.7201 78.5832 74.8389 78.1081V77.7517Z" fill="#0EDBFF"/>
<path fill-rule="evenodd" clip-rule="evenodd" d="M88.9756 101.034C89.4508 100.559 90.0447 99.6084 90.7575 100.084C91.2326 100.44 91.3514 101.153 90.8763 101.509C90.5199 101.747 90.1635 101.865 89.6884 101.984C89.332 102.103 88.8568 101.865 88.9756 101.39V101.034Z" fill="#0EDBFF"/>
<path fill-rule="evenodd" clip-rule="evenodd" d="M86.8374 23.821C87.4314 23.9398 88.6193 23.9398 88.5005 24.8901C88.5005 25.3653 87.7878 25.9592 87.3126 25.7217C86.8374 25.4841 86.5998 25.2465 86.2435 24.8901C86.0059 24.6526 85.8871 24.0586 86.4811 23.9398L86.8374 23.821Z" fill="#0EDBFF"/>
<path fill-rule="evenodd" clip-rule="evenodd" d="M84.462 107.093C84.9371 106.617 85.5311 105.667 86.2438 106.142C86.719 106.499 86.8378 107.211 86.3626 107.568C86.0062 107.805 85.6499 107.924 85.1747 108.043C84.8183 108.162 84.3432 107.924 84.462 107.449V107.093Z" fill="#0EDBFF"/>
<path fill-rule="evenodd" clip-rule="evenodd" d="M65.2181 76.9195C64.743 77.2759 63.7926 77.6323 63.6738 78.4638C63.6738 78.9389 63.7926 79.1765 64.2678 79.4141C64.6241 79.5329 65.0993 79.5329 65.4557 79.4141C65.9308 79.1765 66.5248 78.7014 66.7624 78.2262C66.8811 77.8698 66.8811 77.6323 66.7624 77.2759C66.6436 77.0383 66.5248 76.8007 66.2872 76.8007C65.5745 76.5632 65.2181 77.2759 64.743 77.5135L65.2181 76.9195Z" fill="#0EDBFF"/>
<path fill-rule="evenodd" clip-rule="evenodd" d="M66.9998 75.0189C67.2374 75.1377 67.5938 75.2565 67.7126 75.4941C67.475 75.6128 67.1186 75.8504 66.7622 75.7316C66.4059 75.6129 66.2871 75.2565 66.4059 74.9001C66.4059 74.6625 66.7622 74.3062 66.9998 74.425C67.1186 74.425 67.1186 74.6625 67.1186 74.6625C67.2374 74.9001 67.2374 74.7813 67.1186 75.0189H66.9998Z" fill="#0EDBFF"/>
<path fill-rule="evenodd" clip-rule="evenodd" d="M81.7301 71.8128C80.3046 73.0007 78.9979 74.5449 78.2852 76.3268C77.9288 77.2771 78.5228 77.2771 79.3543 77.1583C80.8986 76.8019 82.5616 76.4456 84.1059 75.9704C85.0562 75.7328 86.3628 75.2577 86.9568 74.4261C87.432 73.8322 87.6695 72.7631 87.5507 72.0504C87.432 70.9813 86.6004 70.6249 85.6501 70.2685C83.3931 69.6746 80.3046 72.0503 79.4731 74.0698L81.7301 71.8128Z" fill="#0EDBFF"/>
<path fill-rule="evenodd" clip-rule="evenodd" d="M73.8897 79.8896C74.3649 79.8896 74.7213 80.0084 75.1964 80.246C75.0776 80.3648 75.0776 80.6024 75.0776 80.7212C74.9588 80.9587 74.7213 81.1963 74.6025 81.3151C74.2461 81.5527 73.6522 81.6715 73.2958 81.4339C72.1079 80.9587 73.8897 79.5333 74.3649 80.1272L73.8897 79.8896Z" fill="#0EDBFF"/>
<path fill-rule="evenodd" clip-rule="evenodd" d="M7.84268 124.911C7.72389 125.03 7.60512 125.149 7.48633 125.387C7.60512 125.624 7.7239 125.743 7.96148 125.862C8.08027 125.862 8.19908 125.862 8.31787 125.862C8.43666 125.743 8.31784 125.624 8.43663 125.505C8.55542 125.268 8.55542 125.149 8.43663 124.911C8.31784 124.793 8.31786 124.674 8.19907 124.674C8.08028 124.674 7.84268 124.674 7.84268 124.793V124.911Z" fill="#0EDBFF"/>
<path fill-rule="evenodd" clip-rule="evenodd" d="M8.79315 130.85C8.79315 130.968 8.43678 131.681 8.79315 131.444C9.03073 131.325 8.91194 130.968 8.79315 130.85C8.79315 130.968 8.79315 130.85 8.79315 130.85Z" fill="#0EDBFF"/>
<path fill-rule="evenodd" clip-rule="evenodd" d="M11.6445 125.623C11.7633 125.742 11.8821 125.861 11.8821 126.098C11.6445 126.098 11.6445 125.98 11.6445 125.742C11.6445 125.505 11.7633 125.623 11.8821 125.386C11.8821 125.386 11.8821 125.386 12.0009 125.386L11.6445 125.623Z" fill="#0EDBFF"/>
<path fill-rule="evenodd" clip-rule="evenodd" d="M9.86239 118.259C10.3376 118.259 10.6939 118.378 11.1691 118.615C11.0503 118.734 11.0503 118.972 11.0503 119.09C10.9315 119.328 10.6939 119.565 10.5751 119.684C10.2188 119.922 9.62482 120.041 9.26845 119.803C8.08056 119.328 9.86239 117.902 10.3375 118.496L9.86239 118.259Z" fill="#0EDBFF"/>
<path fill-rule="evenodd" clip-rule="evenodd" d="M84.4614 24.89C84.8177 25.1276 85.2929 25.3652 85.6493 25.7216C86.0056 26.1967 86.362 26.5531 86.5996 27.0283C86.7184 27.2658 87.0748 27.8598 86.5996 27.8598C86.1244 27.9786 85.1741 27.2658 84.699 26.9095C83.9862 26.4343 83.3923 26.0779 82.9171 25.3652C82.6795 25.0088 82.3232 24.4149 82.5608 24.0585C82.7984 23.7022 83.0359 23.7021 83.3923 23.7021C83.7486 23.7021 83.9862 23.8209 84.3426 24.0585C84.4614 24.1773 85.1741 24.89 84.9366 25.0088L84.4614 24.89Z" fill="#0EDBFF"/>
<path fill-rule="evenodd" clip-rule="evenodd" d="M89.6871 69.792C89.4495 69.9108 88.024 70.7423 88.7368 71.0987C89.0931 71.3363 89.9247 71.2175 90.2811 71.0987C90.6374 70.9799 90.9938 70.7423 90.7562 70.3859C90.281 69.5544 89.2119 70.0296 88.618 70.3859L89.6871 69.792Z" fill="#0EDBFF"/>
<path fill-rule="evenodd" clip-rule="evenodd" d="M100.381 20.9707C99.9057 21.3271 96.1044 23.3465 97.8862 24.2968C98.8365 24.772 100.737 24.6532 101.687 24.178C102.519 23.8216 103.469 23.2277 102.875 22.2774C101.806 20.258 99.0741 21.4459 97.6486 22.2774L100.381 20.9707Z" fill="#0EDBFF"/>
<path fill-rule="evenodd" clip-rule="evenodd" d="M11.7637 105.904C11.8825 106.736 12.12 107.686 12.8328 108.28C13.6643 108.874 14.4958 108.636 15.3273 108.161C15.9213 107.805 16.3964 107.448 16.9904 107.092C17.3468 106.854 17.5843 106.854 17.5843 106.379C17.5843 105.904 17.1092 105.191 16.8716 104.835C16.5152 104.36 15.8025 103.885 15.3273 103.647C14.1395 103.172 11.8825 103.647 11.8825 105.191L11.7637 105.904Z" fill="#0EDBFF"/>
<path fill-rule="evenodd" clip-rule="evenodd" d="M90.4004 107.687C90.5192 108.281 90.638 108.993 91.1131 109.35C91.7071 109.825 92.301 109.587 92.895 109.231C93.2513 108.993 93.7265 108.756 94.0829 108.518C94.3204 108.399 94.558 108.399 94.558 108.043C94.558 107.687 94.2017 107.212 94.0829 106.974C93.8453 106.618 93.3701 106.261 93.0138 106.142C92.1822 105.786 90.638 106.142 90.638 107.212L90.4004 107.687Z" fill="#0EDBFF"/>
<path fill-rule="evenodd" clip-rule="evenodd" d="M76.9766 18.4766C76.9766 18.4766 79.5899 29.4052 86.8361 33.5628C95.9828 38.7895 102.397 37.0077 102.397 37.0077C102.397 37.0077 94.201 36.7701 86.5985 31.5434C80.3027 27.1482 76.9766 18.4766 76.9766 18.4766Z" fill="url(#paint21_linear_2318_3385)"/>
<path opacity="0.2" fill-rule="evenodd" clip-rule="evenodd" d="M59.752 103.054L64.6223 95.9268C64.6223 95.9268 70.9181 113.745 87.0735 119.328L83.5098 121.585C83.6286 121.585 66.9981 116.834 59.752 103.054Z" fill="black"/>
<path opacity="0.3" fill-rule="evenodd" clip-rule="evenodd" d="M69.0156 23.8213C69.0156 23.8213 92.4171 47.3416 109.285 57.795C109.285 57.795 107.622 51.3804 103.108 45.4409C103.108 45.5597 88.9722 40.9269 69.0156 23.8213Z" fill="black"/>
<defs>
<linearGradient id="paint0_linear_2318_3385" x1="18.7884" y1="46.4471" x2="18.7884" y2="26.9571" gradientUnits="userSpaceOnUse">
<stop stop-color="#9A00B3"/>
<stop offset="1" stop-color="#7F72FF"/>
</linearGradient>
<linearGradient id="paint1_linear_2318_3385" x1="14.4766" y1="47.4343" x2="21.7999" y2="25.0769" gradientUnits="userSpaceOnUse">
<stop stop-color="#5B008B"/>
<stop offset="1" stop-color="#8E00FF"/>
</linearGradient>
<radialGradient id="paint2_radial_2318_3385" cx="0" cy="0" r="1" gradientUnits="userSpaceOnUse" gradientTransform="translate(21.3196 50.3183) scale(90.4004 90.4004)">
<stop offset="0.00558659" stop-color="#60DBFF"/>
<stop offset="0.0937306" stop-color="#60D5FF"/>
<stop offset="0.211" stop-color="#5FC4FF"/>
<stop offset="0.3446" stop-color="#5DA9FF"/>
<stop offset="0.4903" stop-color="#5A82FF"/>
<stop offset="0.6442" stop-color="#5751FF"/>
<stop offset="0.6844" stop-color="#5643FF"/>
<stop offset="0.7432" stop-color="#563DF8"/>
<stop offset="0.8282" stop-color="#552EE5"/>
<stop offset="0.9287" stop-color="#5315C6"/>
<stop offset="1" stop-color="#5200AB"/>
</radialGradient>
<linearGradient id="paint3_linear_2318_3385" x1="-0.104772" y1="61.202" x2="80.8498" y2="61.202" gradientUnits="userSpaceOnUse">
<stop offset="0.0111732" stop-color="#81E0FF"/>
<stop offset="0.3224" stop-color="#82DDFF"/>
<stop offset="0.5506" stop-color="#86D4FF"/>
<stop offset="0.7523" stop-color="#8BC4FF"/>
<stop offset="0.9375" stop-color="#94ADFF"/>
<stop offset="1" stop-color="#97A4FF"/>
</linearGradient>
<linearGradient id="paint4_linear_2318_3385" x1="0.409219" y1="45.2729" x2="71.1848" y2="45.2729" gradientUnits="userSpaceOnUse">
<stop stop-color="#B8C2FF"/>
<stop offset="1" stop-color="#7D72B3"/>
</linearGradient>
<linearGradient id="paint5_linear_2318_3385" x1="11.8954" y1="97.9536" x2="112.45" y2="97.9536" gradientUnits="userSpaceOnUse">
<stop stop-color="#B8C2FF"/>
<stop offset="1" stop-color="#7D72B3"/>
</linearGradient>
<linearGradient id="paint6_linear_2318_3385" x1="5.95757" y1="77.1547" x2="106.311" y2="77.1547" gradientUnits="userSpaceOnUse">
<stop stop-color="#B8C2FF"/>
<stop offset="1" stop-color="#7D72B3"/>
</linearGradient>
<linearGradient id="paint7_linear_2318_3385" x1="-0.102278" y1="63.1313" x2="98.5403" y2="63.1313" gradientUnits="userSpaceOnUse">
<stop stop-color="#B8C2FF"/>
<stop offset="1" stop-color="#7D72B3"/>
</linearGradient>
<linearGradient id="paint8_linear_2318_3385" x1="73.1794" y1="56.4382" x2="74.5335" y2="56.4382" gradientUnits="userSpaceOnUse">
<stop stop-color="#E8DDFF"/>
<stop offset="1" stop-color="#AA8AD8"/>
</linearGradient>
<linearGradient id="paint9_linear_2318_3385" x1="61.7634" y1="84.7823" x2="66.5782" y2="70.0836" gradientUnits="userSpaceOnUse">
<stop stop-color="#5B008B"/>
<stop offset="1" stop-color="#8E00FF"/>
</linearGradient>
<linearGradient id="paint10_linear_2318_3385" x1="3.42619" y1="80.0216" x2="3.70734" y2="80.0216" gradientUnits="userSpaceOnUse">
<stop stop-color="#E8DDFF"/>
<stop offset="1" stop-color="#AA8AD8"/>
</linearGradient>
<linearGradient id="paint11_linear_2318_3385" x1="66.9624" y1="31.5213" x2="103.081" y2="31.5213" gradientUnits="userSpaceOnUse">
<stop stop-color="#7F72FF"/>
<stop offset="1" stop-color="#9A00B3"/>
</linearGradient>
<linearGradient id="paint12_linear_2318_3385" x1="75.1672" y1="118.225" x2="93.4887" y2="62.2922" gradientUnits="userSpaceOnUse">
<stop stop-color="#280077"/>
<stop offset="1" stop-color="#812CFF"/>
</linearGradient>
<linearGradient id="paint13_linear_2318_3385" x1="80.4112" y1="117.089" x2="97.8889" y2="63.7346" gradientUnits="userSpaceOnUse">
<stop stop-color="#7A00B3"/>
<stop offset="1" stop-color="#B136FF"/>
</linearGradient>
<linearGradient id="paint14_linear_2318_3385" x1="86.432" y1="101.781" x2="86.432" y2="63.1348" gradientUnits="userSpaceOnUse">
<stop stop-color="#8E00B3"/>
<stop offset="1" stop-color="#E05CFF"/>
</linearGradient>
<linearGradient id="paint15_linear_2318_3385" x1="18.0912" y1="117.635" x2="25.6593" y2="94.5302" gradientUnits="userSpaceOnUse">
<stop stop-color="#280077"/>
<stop offset="1" stop-color="#812CFF"/>
</linearGradient>
<linearGradient id="paint16_linear_2318_3385" x1="64.3662" y1="137.664" x2="64.3662" y2="127.655" gradientUnits="userSpaceOnUse">
<stop stop-color="#7A00B3"/>
<stop offset="0.9162" stop-color="#7006FC"/>
<stop offset="1" stop-color="#7006F9"/>
</linearGradient>
<linearGradient id="paint17_linear_2318_3385" x1="18.5469" y1="121.326" x2="18.5469" y2="92.5579" gradientUnits="userSpaceOnUse">
<stop stop-color="#7A00B3"/>
<stop offset="1" stop-color="#B136FF"/>
</linearGradient>
<linearGradient id="paint18_linear_2318_3385" x1="20.0553" y1="121.316" x2="20.0553" y2="92.5592" gradientUnits="userSpaceOnUse">
<stop stop-color="#8E00B3"/>
<stop offset="1" stop-color="#E05CFF"/>
</linearGradient>
<linearGradient id="paint19_linear_2318_3385" x1="63.2368" y1="82.2825" x2="67.2191" y2="70.1249" gradientUnits="userSpaceOnUse">
<stop stop-color="#A400CA"/>
<stop offset="1" stop-color="#B136FF"/>
</linearGradient>
<linearGradient id="paint20_linear_2318_3385" x1="83.2024" y1="39.0214" x2="88.9497" y2="21.4757" gradientUnits="userSpaceOnUse">
<stop stop-color="#5B008B"/>
<stop offset="1" stop-color="#8E00FF"/>
</linearGradient>
<linearGradient id="paint21_linear_2318_3385" x1="89.7358" y1="37.305" x2="89.7358" y2="18.4892" gradientUnits="userSpaceOnUse">
<stop stop-color="#B000D9"/>
<stop offset="1" stop-color="#E05CFF"/>
</linearGradient>
</defs>
</svg>
