<svg width="156" height="60" viewBox="0 0 156 60" fill="none" xmlns="http://www.w3.org/2000/svg">
<path d="M0 12C0 5.37258 5.37258 0 12 0H42.1342C42.6273 0 43.103 0.182166 43.47 0.511516L44.0015 0.988484C44.3684 1.31783 44.8442 1.5 45.3373 1.5H110.663C111.156 1.5 111.632 1.31783 111.999 0.988483L112.53 0.511517C112.897 0.182166 113.373 0 113.866 0H144C150.627 0 156 5.37258 156 12V48C156 54.6274 150.627 60 144 60H113.866C113.373 60 112.897 59.8178 112.53 59.4885L111.999 59.0115C111.632 58.6822 111.156 58.5 110.663 58.5H45.3373C44.8442 58.5 44.3684 58.6822 44.0015 59.0115L43.47 59.4885C43.103 59.8178 42.6273 60 42.1342 60H12C5.37258 60 0 54.6274 0 48V12Z" fill="url(#paint0_linear_2318_3164)"/>
<defs>
<linearGradient id="paint0_linear_2318_3164" x1="0" y1="0" x2="160.06" y2="37.794" gradientUnits="userSpaceOnUse">
<stop stop-color="#A9BCFF"/>
<stop offset="1" stop-color="#586EBD"/>
</linearGradient>
</defs>
</svg>
