<svg width="52" height="52" viewBox="0 0 52 52" fill="none" xmlns="http://www.w3.org/2000/svg">
<path d="M37.375 6.5C34.0551 6.5 32.0044 8.46138 30.875 10.0035V8.125C5.174 8.125 4.875 45.1263 4.875 45.5H11.375C11.375 45.5 11.349 37.5781 13.8629 29.757C15.1206 25.8472 17.0316 21.9814 19.7535 19.1945C22.477 16.4093 25.9561 14.625 30.875 14.625H31.8906L32.3472 13.7101C32.3472 13.7101 33.7886 11.3003 35.75 10.2586V15.0312L42.4027 28.3368L42.5539 28.5903L42.757 28.7934C43.4119 29.4093 43.6589 29.9926 43.7726 30.3664C43.862 30.6394 43.8246 30.6345 43.8246 30.6719C43.7791 30.8311 43.7109 31.174 43.4184 31.6371C43.0625 32.201 42.7456 32.5 42.25 32.5C41.7544 32.5 41.4375 32.201 41.0816 31.6371C40.7274 31.0716 40.5746 30.4688 40.5746 30.4688L40.2188 29.0972L38.7969 29.25C38.7969 29.25 37.4449 29.4093 35.9531 28.9965C34.4614 28.5837 33.0525 27.8541 32.4496 25.5938L31.8906 23.5121L30.0625 24.5781C27.9614 25.8099 26.7426 27.6884 26.507 29.6059C26.273 31.5234 26.8385 33.3694 27.5226 35.191C28.8876 38.8343 30.875 42.549 30.875 45.5H34.125C34.125 41.2409 31.7444 37.2856 30.5191 34.0226C29.9097 32.3927 29.6302 31.0147 29.7586 30.0121C29.8356 29.4042 30.1017 28.8358 30.5191 28.3871C31.7574 30.3225 33.4522 31.694 35.0903 32.1441C36.6015 32.5634 37.2158 32.4301 37.934 32.3993C38.0802 32.7795 38.0347 32.8738 38.3402 33.3629C39 34.424 40.3065 35.75 42.25 35.75C44.1919 35.75 45.5 34.424 46.1598 33.3629C46.8211 32.3034 47.0746 31.2812 47.0746 31.2812L47.125 31.1285V30.9774C47.125 30.9774 47.138 30.1957 46.8715 29.3524C46.6489 28.6406 46.0655 27.7761 45.2969 26.9149H45.3473L39 14.2188V6.5H37.375ZM30.0121 11.4254C30.0056 11.4384 29.9666 11.4644 29.9601 11.4774C29.3004 11.5083 28.6601 11.5408 28.0312 11.6285C27.5226 11.6984 27.04 11.8251 26.559 11.934C27.0445 11.8084 27.5358 11.7065 28.0312 11.6285C28.665 11.5213 29.3312 11.4579 30.0121 11.4254ZM35.75 19.5C34.8563 19.5 34.125 20.2312 34.125 21.125C34.125 22.0188 34.8563 22.75 35.75 22.75C36.6437 22.75 37.375 22.0188 37.375 21.125C37.375 20.2312 36.6437 19.5 35.75 19.5Z" fill="url(#paint0_linear_2318_3751)"/>
<path d="M37.375 6.5C34.0551 6.5 32.0044 8.46138 30.875 10.0035V8.125C5.174 8.125 4.875 45.1263 4.875 45.5H11.375C11.375 45.5 11.349 37.5781 13.8629 29.757C15.1206 25.8472 17.0316 21.9814 19.7535 19.1945C22.477 16.4093 25.9561 14.625 30.875 14.625H31.8906L32.3472 13.7101C32.3472 13.7101 33.7886 11.3003 35.75 10.2586V15.0312L42.4027 28.3368L42.5539 28.5903L42.757 28.7934C43.4119 29.4093 43.6589 29.9926 43.7726 30.3664C43.862 30.6394 43.8246 30.6345 43.8246 30.6719C43.7791 30.8311 43.7109 31.174 43.4184 31.6371C43.0625 32.201 42.7456 32.5 42.25 32.5C41.7544 32.5 41.4375 32.201 41.0816 31.6371C40.7274 31.0716 40.5746 30.4688 40.5746 30.4688L40.2188 29.0972L38.7969 29.25C38.7969 29.25 37.4449 29.4093 35.9531 28.9965C34.4614 28.5837 33.0525 27.8541 32.4496 25.5938L31.8906 23.5121L30.0625 24.5781C27.9614 25.8099 26.7426 27.6884 26.507 29.6059C26.273 31.5234 26.8385 33.3694 27.5226 35.191C28.8876 38.8343 30.875 42.549 30.875 45.5H34.125C34.125 41.2409 31.7444 37.2856 30.5191 34.0226C29.9097 32.3927 29.6302 31.0147 29.7586 30.0121C29.8356 29.4042 30.1017 28.8358 30.5191 28.3871C31.7574 30.3225 33.4522 31.694 35.0903 32.1441C36.6015 32.5634 37.2158 32.4301 37.934 32.3993C38.0802 32.7795 38.0347 32.8738 38.3402 33.3629C39 34.424 40.3065 35.75 42.25 35.75C44.1919 35.75 45.5 34.424 46.1598 33.3629C46.8211 32.3034 47.0746 31.2812 47.0746 31.2812L47.125 31.1285V30.9774C47.125 30.9774 47.138 30.1957 46.8715 29.3524C46.6489 28.6406 46.0655 27.7761 45.2969 26.9149H45.3473L39 14.2188V6.5H37.375ZM30.0121 11.4254C30.0056 11.4384 29.9666 11.4644 29.9601 11.4774C29.3004 11.5083 28.6601 11.5408 28.0312 11.6285C27.5226 11.6984 27.04 11.8251 26.559 11.934C27.0445 11.8084 27.5358 11.7065 28.0312 11.6285C28.665 11.5213 29.3312 11.4579 30.0121 11.4254ZM35.75 19.5C34.8563 19.5 34.125 20.2312 34.125 21.125C34.125 22.0188 34.8563 22.75 35.75 22.75C36.6437 22.75 37.375 22.0188 37.375 21.125C37.375 20.2312 36.6437 19.5 35.75 19.5Z" fill="url(#paint1_linear_2318_3751)"/>
<defs>
<linearGradient id="paint0_linear_2318_3751" x1="4.875" y1="6.5" x2="50.4939" y2="10.9479" gradientUnits="userSpaceOnUse">
<stop stop-color="#D0F5FF"/>
<stop offset="1" stop-color="#4BD9FF"/>
</linearGradient>
<linearGradient id="paint1_linear_2318_3751" x1="4.875" y1="6.5" x2="50.2028" y2="10.9596" gradientUnits="userSpaceOnUse">
<stop stop-color="#D0DAFF"/>
<stop offset="1" stop-color="#4B72FF"/>
</linearGradient>
</defs>
</svg>
