<svg width="67" height="55" viewBox="0 0 67 55" fill="none" xmlns="http://www.w3.org/2000/svg">
<g id="Group 7026">
<path id="Vector 37" d="M14.047 36.3016C13.4195 32.2912 17.0107 27.1323 19.7379 26.1114C18.5666 27.956 16.5874 36.216 20.3958 36.5909C25.4079 37.0844 31.2027 32.4863 33.5977 30.2577C34.5438 29.5686 36.428 28.4004 36.3957 29.2407C36.3554 30.2911 22.1708 45.8953 14.112 42.9523C9.02536 41.0946 10.6989 36.118 12.1715 33.8619C13.0581 36.3461 13.516 36.4029 14.047 36.3016Z" fill="url(#paint0_linear_2318_3171)" stroke="#D0DAFF" stroke-width="0.976283"/>
<path id="Vector 34" d="M41.3213 31.6125C47.5885 24.0288 44.1117 22.7861 41.5898 23.1127C41.0497 22.2141 42.4226 21.5588 43.1766 21.3435C55.4607 19.4493 55.6022 26.6461 50.3486 34.4628C46.1814 40.6631 35.3669 48.4674 30.1628 51.3989C31.1668 49.7696 33.3137 46.3039 32.604 46.7743C31.7168 47.3622 20.4276 52.912 17.5314 53.4844C19.9395 51.4171 33.4872 41.0922 41.3213 31.6125Z" fill="url(#paint1_linear_2318_3171)" stroke="#D0DAFF" stroke-width="0.976283"/>
<g id="Vector 35">
<path d="M61.9189 6.72036C55.329 3.96236 48.8001 9.41531 46.3594 12.4865C48.8611 9.92968 46.5119 15.8735 48.8611 15.0493C53.3459 12.212 59.9663 16.3917 57.007 29.3274C61.5528 25.6053 61.9189 19.168 61.4918 17.429C62.9318 18.0147 63.3731 19.8087 63.4138 20.6324C65.6613 17.1442 68.5088 9.47836 61.9189 6.72036Z" fill="url(#paint2_linear_2318_3171)"/>
<path d="M61.9189 6.72036C55.329 3.96236 48.8001 9.41531 46.3594 12.4865C48.8611 9.92968 46.5119 15.8735 48.8611 15.0493C53.3459 12.212 59.9663 16.3917 57.007 29.3274C61.5528 25.6053 61.9189 19.168 61.4918 17.429C62.9318 18.0147 63.3731 19.8087 63.4138 20.6324C65.6613 17.1442 68.5088 9.47836 61.9189 6.72036Z" fill="url(#paint3_linear_2318_3171)"/>
<path d="M61.9189 6.72036C55.329 3.96236 48.8001 9.41531 46.3594 12.4865C48.8611 9.92968 46.5119 15.8735 48.8611 15.0493C53.3459 12.212 59.9663 16.3917 57.007 29.3274C61.5528 25.6053 61.9189 19.168 61.4918 17.429C62.9318 18.0147 63.3731 19.8087 63.4138 20.6324C65.6613 17.1442 68.5088 9.47836 61.9189 6.72036Z" stroke="#D0DAFF" stroke-width="0.976283"/>
</g>
<path id="Vector 36" d="M32.2654 12.3339C31.9969 7.59896 38.9062 3.22196 42.3944 1.62533C40.93 4.21859 40.93 4.55418 40.93 6.04912C45.1402 1.99144 51.608 -0.144217 57.7708 0.923589C48.2826 4.21993 45.0792 9.55897 45.0792 12.3339L42.0588 16.7896C39.0587 17.9489 32.5339 17.0689 32.2654 12.3339Z" fill="url(#paint4_linear_2318_3171)" stroke="#D0DAFF" stroke-width="0.976283"/>
<g id="Group 7017">
<path id="Vector 28" d="M3.87486 19.1986C3.53316 19.2474 2.63417 20.2359 2.22738 20.7241C1.77224 21.2428 2.13585 22.0969 2.16636 22.5546C2.19687 23.0122 3.05112 24.3851 3.44774 24.7512C3.76503 25.0441 4.51554 24.9546 4.85114 24.8732C5.24776 24.5885 6.01658 24.0434 5.91895 24.141C5.79692 24.2631 5.64437 24.8122 5.58335 24.9953C5.52234 25.1783 5.61386 25.4834 6.04099 25.9411C6.46811 26.3987 7.77999 25.3309 8.11559 25.1478C8.45119 24.9648 9.09187 23.9275 9.8851 23.5003C10.5197 23.1586 13.6275 22.6258 15.1021 22.402C15.7855 22.7681 17.314 23.2024 18.7327 22.9817C20.1056 22.7681 20.9293 22.1885 21.509 21.3037C24.0717 22.158 27.6718 25.2394 29.1972 27.5275C30.4176 29.358 32.9396 29.9581 34.0481 30.0292C35.5736 30.0597 36.5498 29.4191 37.9532 28.2292C39.7061 26.7431 41.0957 23.3071 41.4313 21.5783C41.4719 20.9579 41.5716 19.6928 41.6448 19.5952C41.718 19.4976 43.9737 18.3545 45.0923 17.7952C46.1296 17.3376 47.5025 16.5443 50.1263 15.9342C51.4076 11.5409 48.1432 11.4494 47.7466 11.4188C47.35 11.3883 45.8855 11.5409 42.8042 11.785C40.339 11.9802 35.8786 10.7273 33.9566 10.0765C32.9498 9.66969 30.3626 8.80119 28.0684 8.58152C25.7741 8.36186 23.4514 8.75443 22.5768 8.97817C22.9124 8.15443 22.7293 7.75778 22.5768 7.75781C21.7713 8.7585 20.3293 9.21207 19.709 9.31376C20.1971 8.79511 20.0751 8.42901 20.3801 8.12392C18.1835 8.12392 16.7191 9.86292 16.3835 10.0765C16.0479 10.29 15.3157 10.5646 15.1021 10.6867C14.8886 10.8087 12.7834 11.724 11.8682 12.0596C11.136 12.328 10.5258 13.7986 10.3122 14.5003C9.63086 15.0799 8.03627 16.4284 7.1088 17.185C5.94946 18.1308 4.30198 19.1376 3.87486 19.1986Z" stroke="#D0DAFF" stroke-width="2.80681"/>
<path id="Vector 22" d="M3.87486 19.1986C3.53316 19.2474 2.63417 20.2359 2.22738 20.7241C1.77224 21.2428 2.13585 22.0969 2.16636 22.5546C2.19687 23.0122 3.05112 24.3851 3.44774 24.7512C3.76503 25.0441 4.51554 24.9546 4.85114 24.8732C5.24776 24.5885 6.01658 24.0434 5.91895 24.141C5.79692 24.2631 5.64437 24.8122 5.58335 24.9953C5.52234 25.1783 5.61386 25.4834 6.04099 25.9411C6.46811 26.3987 7.77999 25.3309 8.11559 25.1478C8.45119 24.9648 9.09187 23.9275 9.8851 23.5003C10.5197 23.1586 13.6275 22.6258 15.1021 22.402C15.7855 22.7681 17.314 23.2024 18.7327 22.9817C20.1056 22.7681 20.9293 22.1885 21.509 21.3037C24.0717 22.158 27.6718 25.2394 29.1972 27.5275C30.4176 29.358 32.9396 29.9581 34.0481 30.0292C35.5736 30.0597 36.5498 29.4191 37.9532 28.2292C39.7061 26.7431 41.0957 23.3071 41.4313 21.5783C41.4719 20.9579 41.5716 19.6928 41.6448 19.5952C41.718 19.4976 43.9737 18.3545 45.0923 17.7952C46.1296 17.3376 47.5025 16.5443 50.1263 15.9342C51.4076 11.5409 48.1432 11.4494 47.7466 11.4188C47.35 11.3883 45.8855 11.5409 42.8042 11.785C40.339 11.9802 35.8786 10.7273 33.9566 10.0765C32.9498 9.66969 30.3626 8.80119 28.0684 8.58152C25.7741 8.36186 23.4514 8.75443 22.5768 8.97817C22.9124 8.15443 22.7293 7.75778 22.5768 7.75781C21.7713 8.7585 20.3293 9.21207 19.709 9.31376C20.1971 8.79511 20.0751 8.42901 20.3801 8.12392C18.1835 8.12392 16.7191 9.86292 16.3835 10.0765C16.0479 10.29 15.3157 10.5646 15.1021 10.6867C14.8886 10.8087 12.7834 11.724 11.8682 12.0596C11.136 12.328 10.5258 13.7986 10.3122 14.5003C9.63086 15.0799 8.03627 16.4284 7.1088 17.185C5.94946 18.1308 4.30198 19.1376 3.87486 19.1986Z" fill="#FFFEFF" stroke="#0F2844" stroke-width="0.610177"/>
<path id="Vector 27" d="M21.5084 21.3033C24.0711 22.1576 27.6712 25.239 29.1966 27.5271L33.0269 29.6322L37.2371 28.6254L40.2575 24.9949L40.9897 22.2491C40.9897 21.967 39.0756 24.1778 36.4134 24.6593C33.3173 25.2193 29.6956 23.8402 28.9082 22.2491C27.7367 19.8816 34.9184 23.9271 35.4371 22.2491C32.1116 17.8253 22.959 17.0016 21.1895 17.2152C21.9461 18.3379 21.7173 20.4084 21.5084 21.3033Z" fill="#C2CDE1"/>
<path id="Vector 46" d="M5.99581 25.5151C5.90428 25.393 5.44663 25.271 6.08732 24.2947C5.81274 25.149 6.69749 25.6981 7.46021 24.5693C8.55257 22.9526 9.77889 22.1591 11.0297 21.732C12.2806 21.3049 14.7213 21.5184 14.2027 20.9082C15.0325 21.2011 15.7179 21.3049 15.8807 20.9082C18.1078 21.9455 19.2854 21.3659 20.0909 20.6336C20.8841 19.9125 20.9756 18.437 19.7248 16.7285C20.9756 16.9421 21.4638 17.8268 21.7078 18.437C21.9519 19.0472 21.6773 20.0235 21.6163 20.6336C21.5553 21.2438 20.7621 21.854 20.4875 22.1591C20.2129 22.4642 18.2603 22.8608 17.7417 22.8608C17.223 22.8608 15.6366 22.2811 15.2095 22.1591C14.7823 22.0371 13.1044 22.7082 11.4264 22.8608C9.74838 23.0133 8.71106 24.2947 7.8263 25.21C6.94154 26.1253 6.08734 25.6371 5.99581 25.5151Z" fill="#C2CDE1"/>
<path id="Vector 25" d="M41.4306 21.5775C41.095 23.3064 40.0883 26.6509 38.3354 28.137C36.932 29.3268 35.5729 30.059 34.0475 30.0285C32.939 29.9573 30.4169 29.3573 29.1966 27.5268C27.6711 25.2386 24.0711 22.1572 21.5083 21.303C20.9287 22.1877 20.1049 22.7674 18.732 22.9809C17.3133 23.2016 15.7849 22.7674 15.1015 22.4013C13.6269 22.625 10.519 23.1579 9.88446 23.4996C9.09123 23.9267 8.4019 24.8945 8.11495 25.1471C7.49099 25.6963 6.48652 26.3794 6.04035 25.9403C5.19506 25.1085 5.93815 24.3634 6.03402 24.1559C6.03609 24.1507 6.03819 24.1455 6.04031 24.1403C6.03871 24.1451 6.0366 24.1503 6.03402 24.1559C5.57386 25.3032 6.12011 25.6958 6.57568 25.6047C7.03332 25.5132 7.79604 25.0861 8.52825 24.1403C9.11402 23.3836 10.2978 22.8487 10.8164 22.6759C11.0605 22.5538 12.7385 22.1267 14.4165 22.0657C13.8684 21.4067 13.822 20.5098 13.8673 20.1436C15.0266 21.9742 16.9242 22.5952 18.732 22.2183C20.4877 21.8521 21.0877 20.7335 21.3115 20.1436C21.5083 19.2894 21.4335 17.4589 20.4877 16.208C22.3793 17.886 22.0132 19.625 22.0132 20.2962C23.1115 20.6623 27.4438 22.2792 29.915 25.1471C32.2032 27.2217 34.0744 28.1573 34.9795 28.2285C37.6977 28.4423 40.6827 23.9573 41.4306 21.5775Z" fill="#0F2844"/>
<path id="Vector 23" d="M22.5772 7.75775C22.089 10.1374 20.9297 10.9612 20.0449 11.4188L20.3195 12.3035C20.5534 12.2018 21.0395 11.9862 21.1127 11.9374C21.2043 11.8764 23.1568 14.9883 26.6348 14.9273C25.9941 14.4087 25.0484 13.4019 25.5975 12.2425C26.3908 14.4697 28.1298 15.0188 31.2417 16.4833C30.4484 15.7002 28.9657 13.8534 29.3806 12.7307C30.6315 15.507 33.5603 17.3985 35.7265 17.6731C34.9841 16.9307 33.6031 15.2446 34.018 14.4392C35.2993 16.0561 36.9773 17.2765 38.3502 17.8256C38.8384 17.9884 39.9855 18.2772 40.6689 18.1307C41.5232 17.9477 41.4316 17.2765 45.0927 17.7951C46.13 17.3375 47.5029 16.5443 50.1266 15.9341C51.408 11.5408 48.1436 11.4493 47.747 11.4188C47.3503 11.3883 45.8859 11.5408 42.8045 11.7849C40.3394 11.9801 35.879 10.7273 33.957 10.0764C32.9502 9.66963 30.363 8.80112 28.0687 8.58146C25.7745 8.3618 23.4517 8.75436 22.5772 8.97811C22.9128 8.15437 22.7297 7.75772 22.5772 7.75775Z" fill="#0F2844"/>
<path id="Vector 29" d="M4.4943 22.6033C4.5236 22.2869 4.34779 20.8774 3.99616 20.561C3.87687 20.4537 3.58594 20.7911 3.58594 20.6185C3.58594 20.446 4.34779 19.3817 4.93383 20.3884C5.51986 21.3952 4.465 22.9197 4.4943 22.6033Z" fill="#C2CDE1"/>
<path id="Vector 24" d="M4.37937 23.0418C4.40988 22.7063 4.22682 21.2113 3.86072 20.8757C3.73651 20.7619 3.43359 21.1198 3.43359 20.9367C3.43359 20.7537 4.22682 19.6249 4.837 20.6927C5.44718 21.7605 4.34886 23.3774 4.37937 23.0418Z" fill="#0F2844"/>
<path id="Vector 32" d="M13.9285 12.9053C14.9256 12.5847 15.9227 12.9529 16.4008 13.2643C16.6749 13.3869 16.7744 13.8013 14.9788 14.4777C12.7345 15.3233 13.845 13.6623 13.1766 13.7664C12.6419 13.8497 12.2208 14.4388 12.0772 14.723C12.3604 13.4388 12.8015 13.2677 13.9285 12.9053Z" fill="#C2CDE1"/>
<path id="Vector 26" d="M13.4919 13.2194C14.2569 12.9767 15.0198 13.249 15.3851 13.4803C15.5948 13.5711 15.6698 13.8806 14.292 14.3916C12.5698 15.0303 13.4257 13.7854 12.9132 13.8653C12.5032 13.9291 12.1788 14.3707 12.0679 14.5836C12.2888 13.6229 12.6273 13.4936 13.4919 13.2194Z" fill="#0F2844"/>
<path id="Vector 30" d="M8.83398 16.7273C10.6531 16.1847 10.7542 14.8183 10.5015 14.2255C10.2715 14.3963 9.81312 14.7741 9.81936 14.9188C9.85726 15.612 9.81936 15.9436 8.83398 16.7273Z" fill="#0F2844"/>
<path id="Vector 33" d="M8.71255 23.1338C7.01165 22.2908 6.06399 24.1448 5.84481 24.7508C5.75303 25.1474 6.06689 24.7715 6.16093 24.6614C6.60574 24.1283 7.45737 23.0356 8.71255 23.1338Z" fill="#C2CDE1"/>
<path id="Vector 31" d="M8.56005 23.0722C6.85916 22.2292 5.04008 24.0612 4.8209 24.6672C5.10562 24.6989 5.69855 24.735 5.7926 24.6249C6.2374 24.0918 7.30488 22.974 8.56005 23.0722Z" fill="#0F2844"/>
</g>
<path id="Rectangle 1448" d="M45.761 35.3614C45.0322 35.4136 44.454 35.9963 44.4075 36.7255C44.3665 35.9915 43.7776 35.4072 43.0433 35.372C43.7773 35.331 44.3617 34.7421 44.3969 34.0078C44.4378 34.7418 45.0267 35.3262 45.761 35.3614Z" fill="white"/>
<path id="Rectangle 1450" d="M37.6085 42.5063C36.9685 42.5521 36.4608 43.0638 36.42 43.7041C36.384 43.0596 35.8669 42.5465 35.2221 42.5156C35.8666 42.4796 36.3798 41.9625 36.4107 41.3177C36.4466 41.9622 36.9638 42.4754 37.6085 42.5063Z" fill="white"/>
<path id="Rectangle 1447" d="M17.6946 39.6934C16.9657 39.7456 16.3875 40.3283 16.3411 41.0576C16.3001 40.3236 15.7112 39.7392 14.9769 39.704C15.7109 39.6631 16.2953 39.0741 16.3305 38.3398C16.3714 39.0738 16.9603 39.6582 17.6946 39.6934Z" fill="white"/>
<path id="Rectangle 1444" d="M58.3938 10.5264C57.665 10.5786 57.0868 11.1613 57.0403 11.8906C56.9993 11.1566 56.4104 10.5722 55.6761 10.537C56.4101 10.4961 56.9945 9.90713 57.0297 9.17285C57.0706 9.90683 57.6596 10.4912 58.3938 10.5264Z" fill="white"/>
<path id="Rectangle 1443" d="M48.9954 27.6719C48.2665 27.7241 47.6883 28.3068 47.6418 29.0361C47.6009 28.3021 47.012 27.7177 46.2777 27.6825C47.0117 27.6416 47.596 27.0526 47.6313 26.3184C47.6722 27.0523 48.2611 27.6367 48.9954 27.6719Z" fill="white"/>
<path id="Rectangle 1445" d="M63.0813 13.1922C62.5761 13.2283 62.1753 13.6322 62.1431 14.1377C62.1147 13.629 61.7065 13.2239 61.1976 13.1995C61.7063 13.1711 62.1113 12.7629 62.1357 12.254C62.1641 12.7627 62.5723 13.1678 63.0813 13.1922Z" fill="white"/>
<path id="Rectangle 1449" d="M23.4797 38.575C22.9745 38.6111 22.5737 39.015 22.5415 39.5205C22.5131 39.0118 22.1049 38.6067 21.596 38.5823C22.1047 38.554 22.5098 38.1457 22.5342 37.6368C22.5625 38.1455 22.9708 38.5506 23.4797 38.575Z" fill="white"/>
<path id="Rectangle 1446" d="M47.1229 4.94346C46.5315 4.9858 46.0623 5.45864 46.0246 6.0504C45.9914 5.45481 45.5135 4.98061 44.9176 4.95204C45.5132 4.91884 45.9874 4.44094 46.016 3.84511C46.0492 4.4407 46.5271 4.91489 47.1229 4.94346Z" fill="white"/>
</g>
<defs>
<linearGradient id="paint0_linear_2318_3171" x1="21.8894" y1="25.701" x2="24.9651" y2="41.824" gradientUnits="userSpaceOnUse">
<stop stop-color="#577DFF"/>
<stop offset="1" stop-color="#141537"/>
</linearGradient>
<linearGradient id="paint1_linear_2318_3171" x1="33.6225" y1="22.3572" x2="36.7926" y2="51.3807" gradientUnits="userSpaceOnUse">
<stop stop-color="#577DFF"/>
<stop offset="1" stop-color="#141537"/>
</linearGradient>
<linearGradient id="paint2_linear_2318_3171" x1="46.3594" y1="5.959" x2="49.4515" y2="24.3939" gradientUnits="userSpaceOnUse">
<stop stop-color="#005B9D"/>
<stop offset="1" stop-color="#002858"/>
</linearGradient>
<linearGradient id="paint3_linear_2318_3171" x1="56.1414" y1="5.96484" x2="56.1414" y2="29.3274" gradientUnits="userSpaceOnUse">
<stop stop-color="#577DFF"/>
<stop offset="1" stop-color="#141537"/>
</linearGradient>
<linearGradient id="paint4_linear_2318_3171" x1="44.9651" y1="0.650391" x2="44.9651" y2="17.2485" gradientUnits="userSpaceOnUse">
<stop stop-color="#577DFF"/>
<stop offset="1" stop-color="#141537"/>
</linearGradient>
</defs>
</svg>
