<svg width="120" height="120" viewBox="0 0 120 120" fill="none" xmlns="http://www.w3.org/2000/svg">
<path fill-rule="evenodd" clip-rule="evenodd" d="M120 60C120 65.6962 119.24 71.3925 117.595 76.5823C114.557 87.2152 108.734 96.5823 100.759 103.924C95.1899 109.114 88.481 113.291 81.1392 116.076C74.557 118.608 67.3418 120 59.8734 120C58.8608 120 57.7215 120 56.7089 119.873C55.1899 119.747 53.5443 119.62 52.0253 119.494C40.5063 117.975 29.8734 113.165 21.3924 105.949C18.2278 103.291 15.3165 100.253 12.6582 96.962C10.7595 94.4304 8.98736 91.8988 7.34179 89.114C6.96205 88.4811 6.58228 87.8481 6.32911 87.0886C5.94937 86.3291 5.56963 85.6962 5.31647 84.9367C4.30381 82.6582 3.41773 80.2532 2.65824 77.8481C2.15191 76.076 1.64557 74.3038 1.26582 72.5317C1.01266 71.2659 0.759494 70 0.632911 68.6076C0.253164 65.8228 0 63.038 0 60.1266C0 58.4811 1.54482e-05 56.8355 0.25318 55.1899C0.379762 54.1772 0.506329 53.1646 0.632911 52.1519C1.3924 46.2025 3.038 40.633 5.44306 35.4431C6.5823 32.9114 7.97468 30.3798 9.49367 27.9747C12.0253 24.0506 14.9367 20.3798 18.3544 17.2152C29.1139 6.70886 43.924 0.253174 60.1266 0.253174C60.7595 0.253174 61.3924 0.253174 62.0253 0.253174C62.6582 0.253174 63.4177 0.253182 64.0506 0.379764C67.4683 0.632928 70.8861 1.13925 74.0507 1.89875C75.9494 2.40508 77.8481 2.91141 79.6202 3.54432C80.8861 3.92407 82.0253 4.43041 83.2911 4.93673C84.1772 5.31648 85.0633 5.69622 85.9493 6.07597C86.0759 6.20255 86.2025 6.20257 86.4557 6.32915C92.2785 9.11396 97.5949 12.9114 102.152 17.4684C102.785 18.1013 103.418 18.7342 104.051 19.4937C104.43 20 104.937 20.3798 105.316 20.8861C105.949 21.6456 106.709 22.5317 107.342 23.2912C109.747 26.3291 111.772 29.6203 113.544 33.038C115.57 37.0886 117.215 41.3924 118.354 45.8228C119.367 50.1266 120 55.0633 120 60Z" fill="url(#paint0_radial_2318_3592)"/>
<path fill-rule="evenodd" clip-rule="evenodd" d="M86.2025 6.07592C85.9494 6.07592 85.8228 6.07592 85.5696 6.20251C84.9367 6.32909 84.3038 6.2025 83.6709 6.07592C83.1645 5.94933 82.9114 5.69618 82.2785 5.69618C81.519 5.5696 80.8861 5.31641 80.1266 5.18982C79.3671 5.06324 78.7342 4.81008 77.9747 4.55691C77.3418 4.30375 77.0886 4.43033 76.5823 4.55691C76.076 4.6835 75.6962 4.43035 75.1899 4.30377C74.6835 4.05061 74.0506 4.0506 73.5443 3.92402C72.0253 3.67086 70.5063 3.16452 68.9873 2.78477C68.1013 2.5316 67.2152 2.53161 66.2025 2.53161C65.443 2.53161 64.8101 2.78477 64.0506 2.78477C63.5443 2.78477 63.1645 2.6582 62.6582 2.6582C62.1519 2.53162 61.6456 2.6582 61.1393 2.6582C60.3798 2.53162 60 2.40503 59.2405 2.6582C58.6076 2.78478 58.2278 2.78478 57.5949 2.91136C56.962 2.91136 56.2025 3.16453 55.5696 3.29111C54.4304 3.54427 53.1646 3.79743 52.0253 3.79743C51.2658 3.79743 50.2532 3.54427 49.6203 3.79743C49.2405 3.92401 48.9873 4.43034 48.6076 4.6835C47.9747 5.31641 47.3418 5.82274 46.8354 6.45565C46.3291 7.08856 45.8228 7.84808 45.8228 8.73415C45.8228 9.49365 46.2025 10.3797 46.5823 11.0126C46.962 11.7721 47.0886 12.405 46.3291 12.9114C45.443 13.5443 44.3038 14.0506 43.2911 14.4304C42.5317 14.6835 41.8987 14.8101 41.3924 14.3038C41.1392 14.1772 41.0127 13.7974 40.7595 13.5443C40.5063 13.4177 40.1266 13.5443 39.8734 13.6709C39.1139 13.924 38.3544 14.1772 37.5949 14.3038C37.0886 14.4303 36.7089 14.6835 36.2025 14.6835C35.6962 14.8101 35.3164 14.4304 34.6835 14.5569C33.924 14.6835 33.038 15.0633 32.2785 15.0633C31.6456 15.0633 30.8861 14.8101 30.3797 14.5569C30.1266 14.4304 30 14.1772 29.6202 14.3038C29.3671 14.3038 28.9874 14.6835 28.8608 14.9367C28.6076 15.1898 28.6076 15.5696 28.3544 15.8228C28.1013 16.2025 27.9747 16.4557 27.7215 16.8354C27.3418 17.4683 26.962 18.1012 26.5823 18.7341C26.3291 19.1139 26.076 19.7468 25.6962 20.1266C25.5696 20.3797 25.1899 20.5063 24.9367 20.6329C24.3038 21.0126 23.6709 21.519 23.038 21.8987C21.8987 22.7848 20.7595 23.7975 19.6202 24.6835C18.7342 25.3164 17.4684 25.6962 16.4557 26.2025C15.8228 26.4557 15.1899 26.7088 14.557 26.962C14.3038 27.0886 13.924 27.0886 13.7975 27.3417C13.5443 27.5949 13.4177 27.8481 13.2911 28.2278C12.7848 28.8607 12.1519 29.6202 11.7722 30.3797C11.519 30.8861 11.3924 31.2658 11.1393 31.7721C10.8861 32.405 10.5063 33.0379 10.3798 33.7974C9.87343 35.1898 9.87344 36.7088 9.24053 38.1012C8.98736 38.8607 8.481 39.6202 8.10126 40.3797C7.46835 41.6456 7.34179 43.1645 7.2152 44.5569C7.08862 45.3164 7.21521 46.3291 7.34179 47.0886C7.46838 47.9747 7.46835 48.8607 7.46835 49.7468C7.46835 50.6329 6.83544 51.6455 6.32911 52.2785C5.82278 52.9114 4.9367 53.1645 4.30379 53.7975C3.79746 54.3038 3.16458 54.8101 2.91141 55.5696C2.78483 55.8228 2.91141 56.2025 2.91141 56.5822C2.78483 57.3417 2.53165 57.9747 2.53165 58.7342C2.40506 59.6202 2.40506 60.5063 2.40506 61.5189C2.40506 62.0253 2.40506 62.405 2.40506 62.9114C2.40506 63.4177 2.53165 63.7974 2.65824 64.1772C2.65824 64.4303 2.65824 64.8101 2.65824 65.0633C2.65824 65.443 2.91141 65.8228 2.91141 66.0759C3.16458 66.962 3.29115 67.7215 3.41774 68.6076C3.54432 69.3671 3.92407 70.1266 4.05065 70.8861C4.43039 71.8987 4.55698 72.9114 4.81015 74.0506C4.93673 74.8101 4.93671 75.6962 5.06329 76.4557C5.18987 77.0886 5.31647 77.7215 5.31647 78.3544C5.31647 79.3671 5.06329 80.2531 5.06329 81.2658C5.06329 82.9114 5.69622 84.5569 6.07597 86.2025C6.20255 86.7088 6.32912 87.0886 6.4557 87.5949C2.27849 79.4936 0 70.2531 0 60.5063C0 48.6076 3.41771 37.5949 9.36708 28.3544C11.8987 24.4304 14.8101 20.7595 18.2278 17.5949C28.9873 7.08858 43.7975 0.632874 60 0.632874C61.2658 0.632874 62.6582 0.632881 63.924 0.759464C71.8987 0.632881 79.3671 2.78478 86.2025 6.07592Z" fill="url(#paint1_linear_2318_3592)"/>
<path fill-rule="evenodd" clip-rule="evenodd" d="M35.4426 81.3927C34.5566 78.3547 33.5439 74.8104 32.5312 71.1395C33.4173 74.6838 34.43 78.1016 35.4426 81.3927Z" fill="url(#paint2_linear_2318_3592)"/>
<path fill-rule="evenodd" clip-rule="evenodd" d="M33.6701 114.051C33.6701 114.051 36.0751 95.6962 37.8473 95.6962C39.2397 95.6962 41.6448 98.481 46.4549 102.152C47.8473 103.165 49.3663 104.304 51.1384 105.443C52.6574 106.456 54.5562 107.468 56.7081 108.481C60.2524 110.127 64.4296 111.899 68.1005 113.291C74.0499 115.57 78.86 117.089 78.86 117.089L79.7461 116.456C79.7461 116.456 75.5688 115.57 69.9992 113.671C69.9992 113.671 75.822 104.177 83.2904 95.5696C90.7587 86.962 119.493 66.7088 119.493 66.7088L119.746 63.7975C119.746 63.7975 111.518 70.6329 102.404 77.8481C102.404 77.8481 108.48 36.0759 110.379 29.3671L108.48 28.6076C108.48 28.6076 103.923 69.7468 98.9865 80.6329C90.3789 87.4683 81.6448 93.924 79.2397 94.6835C73.7967 96.4557 53.7967 80.3798 53.6701 80.3798C53.1637 63.7975 53.5435 45.3165 54.9359 40.5063C75.3156 21.1392 94.9359 11.5189 94.9359 11.5189L94.0498 10.6329C94.0498 10.6329 74.5561 24.3038 73.9232 21.7721C73.2903 19.1139 86.2017 5.94934 86.2017 5.94934L84.6827 5.69619C84.6827 5.69619 70.3789 24.0506 50.6321 43.4177C36.7081 57.0886 32.0245 61.2658 30.5055 62.5316C27.9739 48.2278 27.8473 33.1646 32.0245 23.4177C39.8726 5.18987 50.8853 1.01263 50.8853 1.01263C49.1131 1.01263 45.3157 1.89871 45.3157 1.89871C45.3157 1.89871 39.8726 8.35439 37.4676 12.1519C35.1891 15.9493 32.0245 23.2911 30.1258 22.1519C28.2271 21.0127 22.5309 13.038 22.5309 13.038L21.898 13.6709C21.898 13.6709 27.341 18.8608 28.3536 22.7848C29.3663 26.7089 28.4802 51.2658 25.9486 50.2531C23.4169 49.3671 5.69541 34.1772 5.69541 34.1772L5.0625 35.443C5.0625 35.443 23.6701 48.1012 25.9486 52.6582C27.0878 54.8101 29.8726 63.038 32.2777 71.1392C32.0245 70 31.1384 65.9494 31.5182 64.3038C37.7207 55.0633 44.8093 50.3797 51.7713 43.4177C53.2903 52.0253 53.2903 82.2785 53.1638 97.2152L46.2017 100.633C44.1764 98.7342 42.4043 96.7088 41.0119 94.4304C38.9865 91.0126 36.9613 86.4557 35.1891 81.3924C36.2018 85.3164 36.9612 88.2278 36.9612 89.1139C36.9612 92.1519 32.4043 113.671 32.4043 113.671L33.6701 114.051ZM102.404 77.9747C101.392 78.8607 100.252 79.6202 99.2397 80.5063L102.404 77.9747ZM53.7967 81.0127V82.2785C53.7967 81.7722 53.7967 81.3924 53.7967 81.0127ZM53.7967 82.2785C53.7967 82.2785 73.0371 94.1772 76.2017 96.4557C79.1131 98.481 69.746 111.139 68.3536 113.038C64.6827 111.646 60.5055 110 56.4549 107.721C55.1891 104.177 54.303 93.9241 53.7967 82.2785ZM53.2903 98.3544C53.2903 102.911 53.1638 105.823 53.1638 105.823C51.1384 104.557 49.1131 103.038 47.341 101.519C48.6068 100.38 51.1384 98.6076 53.2903 98.3544Z" fill="url(#paint3_linear_2318_3592)"/>
<path fill-rule="evenodd" clip-rule="evenodd" d="M18.8607 76.4554C16.0759 72.4048 0 57.9744 0 57.9744V61.7719C0 61.7719 14.557 70.3795 18.481 77.4681C22.4051 84.5567 18.2278 103.291 18.2278 103.291L19.7468 104.81C19.8734 104.81 22.9114 82.4048 18.8607 76.4554Z" fill="url(#paint4_linear_2318_3592)"/>
<path opacity="0.3" fill-rule="evenodd" clip-rule="evenodd" d="M46.709 1.51898C46.709 1.51898 51.7723 55.9494 53.2913 60.5063C54.8103 65.1899 68.3545 73.6709 73.9242 74.6836C79.4938 75.6962 93.5444 80.8861 97.2153 80.6329C100.886 80.5063 116.836 79.114 116.836 79.114L118.987 70.5063C118.987 70.5063 89.2406 47.4684 78.7343 26.4557C68.2279 5.44305 68.4811 0.506341 68.4811 0.506341L63.9242 0C63.9242 0 75.3166 22.0253 78.7343 32.6582C82.0254 43.4177 96.2027 53.9241 102.532 60.1266C108.861 66.3291 106.962 77.0886 99.3672 76.5823C91.6457 76.076 65.4432 77.5949 58.9875 57.7215C56.2027 49.1139 53.671 40.7595 51.7723 26.3291C49.6204 12.2785 46.709 1.51898 46.709 1.51898Z" fill="url(#paint5_radial_2318_3592)"/>
<path opacity="0.3" fill-rule="evenodd" clip-rule="evenodd" d="M2.40383 43.165C2.40383 43.165 22.9102 51.0131 30.7583 56.3296C38.6064 61.646 59.7456 67.722 64.176 72.4055C68.6064 77.0891 76.2013 85.6967 75.5683 89.8739C74.9354 93.9245 48.3532 91.0131 37.7203 87.0891C27.0874 83.165 9.36586 75.0637 6.9608 71.1397C4.55573 67.3422 0.251953 64.9372 0.251953 64.9372L0.884864 70.3802C0.884864 70.3802 27.3405 87.8486 30.8848 89.241C34.4291 90.6334 70.6317 97.4688 80.7583 95.5701C80.7583 95.5701 85.5684 91.5195 67.9735 74.0511C60.8848 67.0891 48.2266 61.3929 36.4545 56.0764C18.9861 48.1017 2.7836 41.8992 2.7836 41.8992L2.40383 43.165Z" fill="url(#paint6_radial_2318_3592)"/>
<path opacity="0.3" fill-rule="evenodd" clip-rule="evenodd" d="M75.1909 2.02535C75.1909 2.02535 76.5834 17.595 81.6466 30.3798C86.7099 43.1646 96.5833 45.3165 100.761 50.1266C105.064 54.8101 116.204 61.1393 119.874 58.6076L119.621 68.481C119.621 68.481 79.4947 52.5317 68.3555 0.632935L75.1909 2.02535Z" fill="url(#paint7_radial_2318_3592)"/>
<path opacity="0.3" fill-rule="evenodd" clip-rule="evenodd" d="M11.8985 95.8231C11.8985 95.8231 28.9872 91.1396 49.7467 94.3041C76.7087 98.3548 82.4049 100.38 84.81 103.291C87.215 106.203 88.1011 113.038 88.1011 113.038L91.0124 111.393C91.0124 111.393 89.4934 98.1016 86.3289 95.9497C83.1643 93.7978 57.7213 98.2282 31.0125 89.2408L8.60742 90.8864L11.8985 95.8231Z" fill="url(#paint8_radial_2318_3592)"/>
<path opacity="0.3" fill-rule="evenodd" clip-rule="evenodd" d="M91.6454 79.6208C90.5062 76.5828 73.7973 72.4056 71.0125 74.684C68.7341 76.5828 83.6708 93.798 87.3417 94.3043C91.0126 94.8106 92.7847 82.6587 91.6454 79.6208ZM85.5695 89.1144C81.2657 88.3549 71.3923 78.2283 73.5442 76.203C75.3163 74.5574 88.734 78.8612 89.7467 81.3929C90.6328 83.9245 89.8733 90.0005 85.5695 89.1144Z" fill="url(#paint9_radial_2318_3592)"/>
<path fill-rule="evenodd" clip-rule="evenodd" d="M54.937 61.3924C53.6711 56.8354 46.7091 1.51892 46.7091 1.51892L45.4433 1.7721C45.4433 1.7721 56.3294 55.9493 47.2155 57.4683C40.0003 58.7341 3.16482 40.6328 3.16482 40.6328L2.27877 43.2911C2.27877 43.2911 48.1015 57.5949 65.1901 72.5316C71.0129 77.5949 75.9496 83.4177 80.0002 89.1139C81.899 91.7721 80.0002 95.3164 76.8357 95.443C29.7471 95.8228 0.759766 70.5063 0.759766 70.5063L1.1395 72.5316C1.1395 72.5316 29.8737 87.7215 26.9623 89.367C24.0509 91.0126 7.34206 89.367 7.34206 89.367L8.3547 91.1392C8.3547 91.1392 21.7724 90 39.1142 92.405C53.7977 94.4304 78.4813 97.4683 85.8231 98.3544C89.6205 105.19 91.5193 110.38 90.8863 111.519L93.7977 109.747C89.1142 96.5822 90.1268 81.7721 97.0888 80.886C104.051 80.1265 115.57 82.5316 115.57 82.5316L116.709 79.367C78.3547 81.0126 56.3294 65.9493 54.937 61.3924ZM53.1648 63.1645C52.0256 63.1645 47.7218 60 48.2281 59.4936C48.7344 58.9873 51.3927 53.0379 52.2788 53.7974C53.1648 54.6835 54.1775 63.0379 53.1648 63.1645ZM28.7345 89.1139C28.7345 89.1139 28.9876 88.2278 29.3674 88.1012C29.7471 87.9746 37.5952 90.6329 37.0889 91.0126C36.7091 91.3924 28.7345 90.1265 28.7345 89.1139ZM88.3547 92.5316C85.4433 92.2784 68.1015 76.0759 71.0129 74.6835C73.1648 73.6709 88.861 77.3417 90.2534 80.3797C91.5193 83.4177 91.1395 92.7848 88.3547 92.5316Z" fill="url(#paint10_linear_2318_3592)"/>
<path fill-rule="evenodd" clip-rule="evenodd" d="M66.8359 1.01264C66.8359 1.01264 71.0132 18.8607 87.3423 41.0126C103.671 63.1645 118.988 70.6329 118.988 70.6329L119.621 66.7088C119.621 66.7088 105.57 64.4303 89.1144 42.5316C69.8739 16.962 70.0005 0.886047 70.0005 0.886047L66.8359 1.01264Z" fill="url(#paint11_linear_2318_3592)"/>
<defs>
<radialGradient id="paint0_radial_2318_3592" cx="0" cy="0" r="1" gradientUnits="userSpaceOnUse" gradientTransform="translate(22.8277 31.9501) scale(105.998 105.998)">
<stop offset="0.00558659" stop-color="#FF7263"/>
<stop offset="0.2092" stop-color="#FC6F63"/>
<stop offset="0.3674" stop-color="#F46562"/>
<stop offset="0.5102" stop-color="#E55560"/>
<stop offset="0.6441" stop-color="#D03D5D"/>
<stop offset="0.7704" stop-color="#B6205A"/>
<stop offset="0.8771" stop-color="#9A0057"/>
<stop offset="0.986" stop-color="#9A00AE"/>
</radialGradient>
<linearGradient id="paint1_linear_2318_3592" x1="-0.00227848" y1="43.5473" x2="86.2633" y2="43.5473" gradientUnits="userSpaceOnUse">
<stop offset="0.0111732" stop-color="#FF9D85"/>
<stop offset="0.2899" stop-color="#FF9A84"/>
<stop offset="0.4943" stop-color="#FF917F"/>
<stop offset="0.6749" stop-color="#FF8178"/>
<stop offset="0.8407" stop-color="#FF6A6E"/>
<stop offset="0.9968" stop-color="#FF4E61"/>
<stop offset="1" stop-color="#FF4D61"/>
</linearGradient>
<linearGradient id="paint2_linear_2318_3592" x1="35.803" y1="74.4275" x2="32.1892" y2="78.0413" gradientUnits="userSpaceOnUse">
<stop offset="0.0111732" stop-color="#FF9D85"/>
<stop offset="0.2899" stop-color="#FF9A84"/>
<stop offset="0.4943" stop-color="#FF917F"/>
<stop offset="0.6749" stop-color="#FF8178"/>
<stop offset="0.8407" stop-color="#FF6A6E"/>
<stop offset="0.9968" stop-color="#FF4E61"/>
<stop offset="1" stop-color="#FF4D61"/>
</linearGradient>
<linearGradient id="paint3_linear_2318_3592" x1="99.7953" y1="16.2378" x2="17.5947" y2="98.4383" gradientUnits="userSpaceOnUse">
<stop offset="0.0111732" stop-color="#FF9D85"/>
<stop offset="0.2899" stop-color="#FF9A84"/>
<stop offset="0.4943" stop-color="#FF917F"/>
<stop offset="0.6749" stop-color="#FF8178"/>
<stop offset="0.8407" stop-color="#FF6A6E"/>
<stop offset="0.9968" stop-color="#FF4E61"/>
<stop offset="1" stop-color="#FF4D61"/>
</linearGradient>
<linearGradient id="paint4_linear_2318_3592" x1="17.1561" y1="74.2519" x2="3.22824" y2="88.1797" gradientUnits="userSpaceOnUse">
<stop offset="0.0111732" stop-color="#FF9D85"/>
<stop offset="0.2899" stop-color="#FF9A84"/>
<stop offset="0.4943" stop-color="#FF917F"/>
<stop offset="0.6749" stop-color="#FF8178"/>
<stop offset="0.8407" stop-color="#FF6A6E"/>
<stop offset="0.9968" stop-color="#FF4E61"/>
<stop offset="1" stop-color="#FF4D61"/>
</linearGradient>
<radialGradient id="paint5_radial_2318_3592" cx="0" cy="0" r="1" gradientUnits="userSpaceOnUse" gradientTransform="translate(86.5541 60.8657) scale(43.3951 43.3951)">
<stop stop-color="white"/>
<stop offset="1" stop-color="#623964"/>
</radialGradient>
<radialGradient id="paint6_radial_2318_3592" cx="0" cy="0" r="1" gradientUnits="userSpaceOnUse" gradientTransform="translate(61.7246 85.603) scale(44.3196 44.3196)">
<stop stop-color="white"/>
<stop offset="1" stop-color="#623964"/>
</radialGradient>
<radialGradient id="paint7_radial_2318_3592" cx="0" cy="0" r="1" gradientUnits="userSpaceOnUse" gradientTransform="translate(96.7886 51.7418) scale(32.5735 32.5735)">
<stop stop-color="white"/>
<stop offset="1" stop-color="#623964"/>
</radialGradient>
<radialGradient id="paint8_radial_2318_3592" cx="0" cy="0" r="1" gradientUnits="userSpaceOnUse" gradientTransform="translate(53.9639 107.135) scale(42.8349)">
<stop stop-color="white"/>
<stop offset="1" stop-color="#623964"/>
</radialGradient>
<radialGradient id="paint9_radial_2318_3592" cx="0" cy="0" r="1" gradientUnits="userSpaceOnUse" gradientTransform="translate(86.8797 90.4787) scale(12.8324 12.8324)">
<stop stop-color="white"/>
<stop offset="1" stop-color="#623964"/>
</radialGradient>
<linearGradient id="paint10_linear_2318_3592" x1="0.88369" y1="56.3816" x2="116.795" y2="56.3816" gradientUnits="userSpaceOnUse">
<stop offset="0.0111732" stop-color="#FFBB85"/>
<stop offset="0.2124" stop-color="#FEB887"/>
<stop offset="0.36" stop-color="#F9AF8C"/>
<stop offset="0.4905" stop-color="#F19F95"/>
<stop offset="0.6111" stop-color="#E588A2"/>
<stop offset="0.7249" stop-color="#D76BB2"/>
<stop offset="0.8337" stop-color="#C547C7"/>
<stop offset="0.9364" stop-color="#B01EDE"/>
<stop offset="1" stop-color="#A100EF"/>
</linearGradient>
<linearGradient id="paint11_linear_2318_3592" x1="66.7939" y1="35.7438" x2="119.623" y2="35.7438" gradientUnits="userSpaceOnUse">
<stop offset="0.0111732" stop-color="#FF9D85"/>
<stop offset="0.2264" stop-color="#FD9A87"/>
<stop offset="0.3842" stop-color="#F8918D"/>
<stop offset="0.5237" stop-color="#EE8198"/>
<stop offset="0.6527" stop-color="#E16AA7"/>
<stop offset="0.7744" stop-color="#CF4DBB"/>
<stop offset="0.889" stop-color="#BA2AD3"/>
<stop offset="0.999" stop-color="#A100EF"/>
<stop offset="1" stop-color="#A100EF"/>
</linearGradient>
</defs>
</svg>
