<svg width="450" height="356" viewBox="0 0 450 356" fill="none" xmlns="http://www.w3.org/2000/svg">
<path d="M27.939 67.0416C31.0562 64.3252 269.976 268.086 294.07 289.082C318.164 310.078 326.745 321.966 323.628 324.714C320.511 327.463 306.832 319.953 282.738 298.957C258.645 277.929 24.8219 69.7579 27.939 67.0416Z" fill="url(#paint0_linear_2318_3461)"/>
<path opacity="0.2" d="M233.854 246.478C235.43 245.104 308.005 306.142 315.266 312.47C322.527 318.798 324.618 322.824 323.041 324.198C321.464 325.573 316.843 323.751 309.582 317.423C302.321 311.096 232.277 247.82 233.854 246.478Z" fill="#4BD9FF"/>
<path opacity="0.7" d="M277.567 284.576C278.374 283.873 314.716 314.457 318.347 317.62C321.977 320.784 323.041 322.829 322.234 323.5C321.427 324.172 319.117 323.277 315.486 320.113C311.856 316.949 276.797 285.247 277.567 284.576Z" fill="white"/>
<path d="M62.4472 18.2745C65.5643 15.5581 377.536 283.009 409.074 310.493C440.612 337.976 452.641 352.868 449.523 355.585C446.406 358.301 429.28 347.819 397.779 320.336C366.204 292.852 59.33 20.9908 62.4472 18.2745Z" fill="url(#paint1_linear_2318_3461)"/>
<path opacity="0.2" d="M359.75 277.351C361.327 275.977 433.901 337.015 441.163 343.343C448.424 349.671 450.514 353.697 448.937 355.071C447.36 356.446 442.739 354.624 435.478 348.296C428.217 341.969 358.173 278.725 359.75 277.351Z" fill="#4BD9FF"/>
<path opacity="0.7" d="M403.462 315.449C404.268 314.746 440.611 345.33 444.241 348.493C447.872 351.657 448.935 353.702 448.128 354.374C447.322 355.077 445.011 354.15 441.381 350.986C437.75 347.822 402.691 316.152 403.462 315.449Z" fill="white"/>
<path d="M0.0309143 0.0269141C3.14804 -2.68947 242.068 201.071 266.162 222.067C290.256 243.063 298.837 254.951 295.72 257.7C292.603 260.448 278.924 252.938 254.83 231.942C230.736 210.946 -3.08624 2.74329 0.0309143 0.0269141Z" fill="url(#paint2_linear_2318_3461)"/>
<path opacity="0.2" d="M205.945 179.468C207.522 178.094 280.097 239.133 287.358 245.46C294.619 251.788 296.709 255.814 295.132 257.189C293.556 258.563 288.935 256.741 281.674 250.414C274.413 244.086 204.368 180.842 205.945 179.468Z" fill="#4BD9FF"/>
<path opacity="0.7" d="M249.659 217.562C250.466 216.859 286.808 247.442 290.438 250.606C294.069 253.77 295.132 255.815 294.326 256.486C293.519 257.189 291.209 256.262 287.578 253.098C283.947 249.935 248.889 218.265 249.659 217.562Z" fill="white"/>
<defs>
<linearGradient id="paint0_linear_2318_3461" x1="323.642" y1="324.7" x2="68.4025" y2="31.8028" gradientUnits="userSpaceOnUse">
<stop stop-color="#014DA8"/>
<stop offset="0.1388" stop-color="#024799" stop-opacity="0.8612"/>
<stop offset="0.3419" stop-color="#03418B" stop-opacity="0.6581"/>
<stop offset="0.589" stop-color="#043E83" stop-opacity="0.411"/>
<stop offset="1" stop-color="#043D80" stop-opacity="0"/>
</linearGradient>
<linearGradient id="paint1_linear_2318_3461" x1="449.534" y1="355.587" x2="115.391" y2="-27.8539" gradientUnits="userSpaceOnUse">
<stop stop-color="#014DA8"/>
<stop offset="0.1388" stop-color="#024799" stop-opacity="0.8612"/>
<stop offset="0.3419" stop-color="#03418B" stop-opacity="0.6581"/>
<stop offset="0.589" stop-color="#043E83" stop-opacity="0.411"/>
<stop offset="1" stop-color="#043D80" stop-opacity="0"/>
</linearGradient>
<linearGradient id="paint2_linear_2318_3461" x1="295.74" y1="257.695" x2="40.5002" y2="-35.2026" gradientUnits="userSpaceOnUse">
<stop stop-color="#014DA8"/>
<stop offset="0.1388" stop-color="#024799" stop-opacity="0.8612"/>
<stop offset="0.3419" stop-color="#03418B" stop-opacity="0.6581"/>
<stop offset="0.589" stop-color="#043E83" stop-opacity="0.411"/>
<stop offset="1" stop-color="#043D80" stop-opacity="0"/>
</linearGradient>
</defs>
</svg>
