<svg width="80" height="80" viewBox="0 0 80 80" fill="none" xmlns="http://www.w3.org/2000/svg">
<path fill-rule="evenodd" clip-rule="evenodd" d="M80 39.9996C80 43.7971 79.4931 47.5946 78.4794 51.0545C76.452 58.1431 72.4815 64.3878 67.2439 69.2823C63.5269 72.7423 59.0496 75.5271 54.1499 77.3836C49.7571 79.0714 44.9419 79.9997 39.9578 79.9997C39.2819 79.9997 38.5216 79.9997 37.8458 79.9153C36.8321 79.8309 35.7339 79.7465 34.7202 79.6621C27.0327 78.6495 19.9366 75.4427 14.2767 70.6326C12.1647 68.8604 10.2218 66.8351 8.44773 64.641C7.18057 62.9532 5.99788 61.2655 4.98416 59.4089C4.73072 58.987 4.4773 58.4806 4.22387 58.0587C4.22387 58.0587 4.22387 58.0587 4.22387 57.9743C3.97043 57.468 3.71699 57.046 3.54803 56.5397C2.87221 55.0207 2.28087 53.4173 1.774 51.814C1.43609 50.6325 1.0982 49.4511 0.844773 48.2697C0.675818 47.4258 0.506864 46.5819 0.422387 45.6536C0.168955 43.7971 0 41.9405 0 39.9996C0 38.9026 -1.54708e-05 37.8055 0.168939 36.7085C0.253416 36.0334 0.337909 35.3582 0.422387 34.6831C0.92925 30.7169 2.02745 27.0038 3.63251 23.5439C4.39281 21.8561 5.32207 20.1683 6.3358 18.6494C8.02534 16.0333 9.96832 13.5861 12.2492 11.392C19.4298 4.38773 29.3136 0.0839233 40.1267 0.0839233C40.5491 0.0839233 40.9715 0.0839233 41.3939 0.0839233C41.8163 0.0839233 42.3231 0.0839221 42.7455 0.16831C45.0264 0.337087 47.3073 0.674641 49.5037 1.18097C50.7708 1.51852 52.038 1.85608 53.2207 2.27802C54.0655 2.53118 54.8258 2.86874 55.6705 3.20629C56.2619 3.45945 56.8532 3.71262 57.4446 3.96579C57.529 4.05017 57.6135 4.05017 57.7825 4.13456C61.6684 5.99111 65.2165 8.52275 68.2577 11.5607C68.68 11.9827 69.1024 12.4046 69.5248 12.9109C69.7782 13.2485 70.1162 13.5017 70.3696 13.8392C70.8764 14.3455 71.2988 14.9363 71.7212 15.4426C73.3263 17.4679 74.6779 19.662 75.8606 21.9405C77.2122 24.6409 78.3104 27.5101 79.0707 30.4637C79.5776 33.4173 80 36.6241 80 39.9996Z" fill="url(#paint0_radial_2318_3534)"/>
<path fill-rule="evenodd" clip-rule="evenodd" d="M57.529 4.05063C57.3601 4.05063 57.2756 4.05064 57.1066 4.13502C56.6843 4.21941 56.2619 4.13502 55.8395 4.05063C55.5016 3.96625 55.3326 3.79747 54.9102 3.79747C54.4034 3.71308 53.981 3.54431 53.4741 3.45992C52.9673 3.37553 52.5449 3.20675 52.038 3.03798C51.6156 2.8692 51.4467 2.95359 51.1088 3.03798C50.7709 3.12236 50.5174 2.95359 50.1795 2.8692C49.8416 2.70042 49.4192 2.70042 49.0813 2.61603C48.0676 2.44726 47.0539 2.1097 46.0401 1.85654C45.4488 1.68776 44.8574 1.68776 44.1816 1.68776C43.6748 1.68776 43.2524 1.85654 42.7455 1.85654C42.4076 1.85654 42.1542 1.77215 41.8163 1.77215C41.4784 1.68776 41.1404 1.77215 40.8025 1.77215C40.2957 1.68776 40.0422 1.60337 39.5354 1.77215C39.113 1.85654 38.8596 1.85654 38.4372 1.94093C38.0148 1.94093 37.5079 2.1097 37.0855 2.19409C36.3252 2.36287 35.4804 2.53164 34.7202 2.53164C34.2133 2.53164 33.5375 2.36287 33.1151 2.53164C32.8617 2.61603 32.6927 2.95359 32.4393 3.12236C32.0169 3.5443 31.5945 3.88186 31.2566 4.3038C30.9187 4.72574 30.5808 5.23207 30.5808 5.82279C30.5808 6.32912 30.8342 6.91984 31.0876 7.34178C31.3411 7.84811 31.4255 8.27005 30.9187 8.6076C30.3273 9.02955 29.567 9.3671 28.8912 9.62027C28.3844 9.78904 27.962 9.87343 27.6241 9.53587C27.4551 9.45149 27.3706 9.19832 27.2017 9.02955C27.0327 8.94516 26.7793 9.02954 26.6104 9.11393C26.1035 9.28271 25.5966 9.45149 25.0897 9.53587C24.7518 9.62026 24.4984 9.78904 24.1605 9.78904C23.8226 9.87343 23.5692 9.62026 23.1468 9.70465C22.6399 9.78904 22.0486 10.0422 21.5417 10.0422C21.1193 10.0422 20.6125 9.87343 20.2746 9.70465C20.1056 9.62026 20.0211 9.45149 19.7677 9.53587C19.5987 9.53587 19.3453 9.78904 19.2608 9.95782C19.0919 10.1266 19.0919 10.3798 18.9229 10.5485C18.754 10.8017 18.6695 10.9705 18.5005 11.2236C18.2471 11.6456 17.9937 12.0675 17.7402 12.4895C17.5713 12.7426 17.4023 13.1646 17.1489 13.4177C17.0644 13.5865 16.811 13.6709 16.642 13.7553C16.2196 14.0085 15.7972 14.346 15.3749 14.5992C14.6146 15.1899 13.8543 15.865 13.094 16.4557C12.5026 16.8777 11.6579 17.1308 10.982 17.4684C10.5597 17.6372 10.1373 17.8059 9.71489 17.9747C9.54594 18.0591 9.2925 18.0591 9.20802 18.2279C9.03907 18.3967 8.95459 18.5654 8.87012 18.8186C8.53221 19.2405 8.10981 19.7469 7.85638 20.2532C7.68742 20.5907 7.60295 20.8439 7.43399 21.1815C7.26504 21.6034 7.0116 22.0253 6.92712 22.5317C6.58921 23.46 6.58922 24.4726 6.16683 25.4009C5.99788 25.9072 5.65997 26.4135 5.40654 26.9199C4.98416 27.7638 4.89967 28.7764 4.81519 29.7047C4.73071 30.211 4.8152 30.8861 4.89967 31.3925C4.98415 31.9832 4.98416 32.5739 4.98416 33.1646C4.98416 33.7553 4.56177 34.4304 4.22387 34.8524C3.88596 35.2743 3.29461 35.4431 2.87222 35.865C2.53431 36.2026 2.11192 36.5401 1.94297 37.0465C1.85849 37.2152 1.94297 37.4684 1.94297 37.7216C1.85849 38.2279 1.68955 38.6498 1.68955 39.1562C1.60507 39.7469 1.60506 40.3376 1.60506 41.0127C1.60506 41.3503 1.60506 41.6034 1.60506 41.941C1.60506 42.2785 1.68953 42.5317 1.774 42.7849C1.774 42.9537 1.774 43.2068 1.774 43.3756C1.774 43.6288 1.94297 43.8819 1.94297 44.0507C2.11192 44.6414 2.19639 45.1478 2.28087 45.7385C2.36535 46.2448 2.61878 46.7511 2.70326 47.2575C2.95669 47.9326 3.04117 48.6077 3.21013 49.3672C3.2946 49.8735 3.29461 50.4642 3.37909 50.9705C3.46357 51.3925 3.54803 51.8144 3.54803 52.2364C3.54803 52.9115 3.37909 53.5022 3.37909 54.1773C3.37909 55.2743 3.80147 56.3714 4.0549 57.4685C4.13938 57.806 4.22384 58.0592 4.30832 58.3967C1.52057 52.9959 0 46.8355 0 40.3376C0 32.4051 2.28088 25.0633 6.25132 18.903C7.94086 16.2869 9.88384 13.8397 12.1647 11.73C19.3453 4.72574 29.2291 0.421936 40.0422 0.421936C40.887 0.421936 41.8163 0.421938 42.661 0.506326C47.8986 0.421938 52.9672 1.77215 57.529 4.05063Z" fill="url(#paint1_linear_2318_3534)"/>
<path opacity="0.1" fill-rule="evenodd" clip-rule="evenodd" d="M42.4922 58.7345C42.4922 58.7345 46.2092 64.2198 51.1933 68.6924C56.1775 73.1649 56.8533 76.2029 56.8533 76.2029C56.8533 76.2029 66.2303 72.3211 72.904 63.0383C79.5777 53.84 42.4922 58.7345 42.4922 58.7345Z" fill="black" fill-opacity="0.5"/>
<path opacity="0.4" fill-rule="evenodd" clip-rule="evenodd" d="M49.2512 1.09705C47.0548 0.590718 44.8584 0.253167 42.4931 0.0843903C42.0707 0.0843903 41.5638 0 41.1414 0C42.0707 0.50633 42.9999 1.4346 43.1689 2.44726C43.5068 4.13503 44.0981 5.65402 44.3516 7.2574C44.6895 8.86078 44.605 10.8861 43.8447 12.3207C43.4223 13.249 42.831 14.0085 42.0707 14.768C41.5638 15.2743 41.0569 15.6118 40.719 16.2869C40.3811 16.9621 39.9587 17.5528 39.5363 18.1435C38.945 19.0718 38.2692 20 37.5089 20.8439C37.2555 21.1815 37.002 21.3502 36.7486 21.6878C36.4952 22.1097 36.3262 22.5317 35.9883 22.8692C35.228 23.6287 34.1298 24.1351 33.2006 24.4726C31.9334 24.9789 30.8352 25.4853 29.6525 26.1604C27.9629 27.0887 26.5268 28.1857 24.5839 28.2701C23.908 28.2701 23.2322 28.1857 22.5564 28.2701C21.7116 28.3545 20.9513 28.692 20.1911 28.8608C19.5152 29.0296 18.7549 29.114 18.0791 29.2828C16.8964 29.4515 15.9672 29.8735 14.869 30.1266C13.4329 30.4642 11.9123 30.3798 10.3917 30.633C9.04004 30.8017 7.94184 30.9705 6.5902 30.633C4.56275 30.1266 3.46453 29.1984 3.88692 27.0043C4.14035 25.5697 4.05589 24.4726 3.38007 23.46C1.77501 26.9199 0.676786 30.7174 0.169922 34.5992C1.09917 35.0212 2.19738 35.1899 3.12663 35.2743C6.08333 35.6119 9.29347 34.2617 11.9967 33.249C13.3484 32.7427 14.7845 31.9832 16.3051 31.8144C17.9102 31.6456 19.2618 31.8144 20.8669 31.4768C26.2734 30.1266 31.5955 28.2701 36.4952 25.4009C38.5226 24.2195 39.3674 22.5317 40.8035 20.8439C41.9862 19.3249 43.4223 18.1435 44.8584 16.8777C46.2945 15.6118 47.5617 14.4304 48.4065 12.7426C49.3357 10.9705 50.096 8.94516 50.5184 7.00423C50.9408 4.81013 50.3494 2.78481 49.2512 1.09705ZM48.9978 6.4979C48.9133 6.91984 48.8288 7.42617 48.7444 7.84811C48.4065 8.94516 47.7306 10.0422 46.7169 10.5485C46.2945 10.8017 45.6187 10.6329 45.3653 10.211C45.1963 9.95783 45.1963 9.62027 45.1963 9.36711C45.1119 8.77639 45.0274 8.27006 45.0274 7.67934C45.0274 6.32913 45.0274 4.97891 44.8584 3.6287C45.0274 4.38819 44.8584 2.44726 46.0411 1.94093C46.6325 1.68777 47.4772 1.94093 47.8996 2.36287C48.4065 2.95359 48.5754 3.88186 48.7444 4.55697C48.9133 5.31647 49.0823 5.8228 48.9978 6.4979Z" fill="url(#paint2_linear_2318_3534)" fill-opacity="0.5"/>
<path opacity="0.4" fill-rule="evenodd" clip-rule="evenodd" d="M43.1674 70.3797C43.0829 70.3797 42.914 70.4641 42.8295 70.4641L43.5898 70.5485C43.5898 70.4641 43.4208 70.3797 43.1674 70.3797ZM43.1674 70.3797C43.0829 70.3797 42.914 70.4641 42.8295 70.4641L43.5898 70.5485C43.5898 70.4641 43.4208 70.3797 43.1674 70.3797ZM78.8169 30.2952C78.8169 31.3079 78.4789 32.4049 78.4789 33.4176C78.4789 34.8522 78.2255 35.9492 77.8876 37.2995C77.6342 38.2277 77.1273 38.9028 76.8739 39.8311C76.536 40.8438 76.0291 41.772 75.5222 42.7003C74.5085 44.5569 73.4103 46.4978 72.9879 48.6075C72.5655 50.5484 72.481 52.1518 71.5518 53.924C70.6225 55.6117 69.2709 57.0463 68.2572 58.7341C67.8348 59.4936 67.4969 59.4936 66.7366 59.9999C65.9763 60.5906 65.216 61.4345 64.4557 62.0252C62.8506 63.2911 61.33 64.2193 59.3026 64.9788C58.0354 65.4852 56.8527 65.8227 55.5011 65.9915C54.6563 66.1603 53.8116 65.9915 52.9668 66.1603C51.6152 66.4134 50.348 66.751 48.9964 67.1729C46.8844 67.848 44.688 68.27 42.5761 68.9451C41.0555 69.367 39.6194 69.7046 38.0988 69.9577C37.1695 70.1265 36.4093 70.6329 35.48 70.4641C34.5508 70.2953 33.6215 69.9577 32.6922 69.6202C31.5096 69.2826 30.4958 69.1983 29.2287 69.1983C27.5391 69.1983 25.5117 69.4514 23.7376 69.1139C21.7947 68.7763 19.9362 68.1856 17.9932 67.848C16.8105 67.5949 15.9657 67.0885 14.8675 66.6666C13.8538 66.1603 12.8401 66.0759 11.7419 65.7383C10.6437 65.4008 9.54547 64.8944 8.44727 64.6413C10.1368 66.8354 12.0798 68.8607 14.2762 70.6329C19.9362 75.443 26.9478 78.6497 34.7197 79.6624C35.7334 79.7468 36.7472 79.9156 37.8454 79.9156C40.1262 79.4092 42.3227 78.7341 44.6035 78.059C48.405 76.8776 51.6996 74.5991 55.5011 73.5021C56.9372 73.0801 58.2044 72.6582 59.4716 71.9831C60.4853 71.4767 61.499 71.3923 62.4283 70.9704C65.9763 69.4514 68.5951 66.0759 70.2002 62.7003C70.876 61.1814 71.5518 59.4936 72.9034 58.3122C73.4103 57.8058 74.0861 57.4683 74.5085 56.8776C75.0154 56.2868 75.3533 55.6117 75.8601 54.9366C76.7049 53.8396 77.4652 52.6581 78.2255 51.5611C78.31 51.3923 78.3945 51.3079 78.4789 51.1391C79.4927 47.5948 79.9995 43.8818 79.9995 40.0843C79.9995 36.6244 79.5771 33.4176 78.8169 30.2952ZM42.0692 70.6329C42.2382 70.5485 42.4071 70.3797 42.5761 70.2953C42.745 70.2109 42.9985 70.2953 43.1674 70.3797C43.5053 70.2953 43.7588 70.2953 44.0122 70.4641C44.1811 70.5485 44.4346 70.7172 44.5191 70.886C44.6035 71.0548 44.5191 71.1392 44.3501 71.308C44.1812 71.4767 44.0967 71.4767 43.8433 71.4767C43.4209 71.5611 42.9985 71.6455 42.4916 71.5611C42.2382 71.5611 41.8158 71.4767 41.6468 71.308C41.6468 70.9704 41.9003 70.8016 42.0692 70.6329ZM44.688 75.8649C44.4346 76.2025 44.1812 76.54 43.8433 76.7088C43.5053 76.962 43.1674 77.0464 42.914 77.2995C42.0692 77.7215 41.2244 78.2278 40.3797 78.481C40.0418 78.5654 39.6194 78.5654 39.2815 78.5654C38.8591 78.6497 38.3522 78.6497 37.9298 78.6497C37.423 78.6497 36.8316 78.7341 36.3248 78.8185C35.8179 78.8185 35.2266 78.9029 34.7197 78.9029C33.7904 78.9873 33.0301 78.8185 32.1854 78.481C31.4251 78.2278 30.6648 77.8059 29.989 77.3839C29.4821 77.0464 29.0597 76.6244 28.7218 76.2025C28.2994 75.8649 28.046 75.443 27.7926 74.9367C27.7081 74.7679 27.6236 74.5991 27.7081 74.3459C27.7081 74.2615 27.7926 74.1772 27.7926 74.1772C27.9615 74.0928 28.1305 73.924 28.2149 73.924C28.4684 73.7552 28.8063 73.7552 29.1442 73.6708C29.9045 73.5864 30.6648 73.6708 31.4251 73.7552C31.8475 73.7552 32.2699 73.8396 32.6922 73.7552C33.2836 73.6708 33.8749 73.5021 34.3818 73.3333C35.7334 72.9957 37.0851 72.6582 38.4367 72.5738C39.7883 72.405 41.3089 72.2362 42.6606 72.4894C43.1674 72.5738 43.8433 72.7426 44.2656 72.9957C44.6035 73.2489 44.857 73.5864 45.0259 73.924C45.2794 74.5991 45.1104 75.2742 44.688 75.8649ZM55.3322 72.405C55.0787 72.6582 54.7408 72.8269 54.4029 73.0801C53.9805 73.4177 53.5581 73.5864 53.1358 73.8396C52.7978 74.0928 52.3754 74.2616 52.0375 74.4303C51.6151 74.5991 51.2772 74.7679 50.8549 75.021C50.4325 75.1898 50.0101 75.3586 49.5877 75.5274C49.2498 75.6118 48.9119 75.7805 48.574 75.6962C48.3206 75.6118 47.9826 75.5274 47.8137 75.3586C47.4758 75.0211 47.5603 74.6835 47.6447 74.5147C47.6447 74.2616 47.5603 73.8396 47.6447 73.5021C47.7292 73.3333 47.8982 73.0801 47.9826 72.9113C48.3205 72.2362 48.8274 71.8143 49.3343 71.308C49.7567 70.886 50.2635 70.5485 50.8549 70.2953C51.5307 70.0421 52.3755 69.9578 53.0513 69.8734C53.8116 69.789 55.1632 69.7046 55.5856 70.6329C55.839 71.2236 55.7546 71.8143 55.3322 72.405ZM43.6743 70.4641C43.5898 70.4641 43.4209 70.3797 43.2519 70.2953C43.1674 70.2953 42.9985 70.3797 42.914 70.3797L43.6743 70.4641Z" fill="url(#paint3_linear_2318_3534)" fill-opacity="0.5"/>
<path opacity="0.4" fill-rule="evenodd" clip-rule="evenodd" d="M75.6084 21.7723V21.9411C75.524 23.0381 75.1016 23.7976 74.6792 24.8103C74.3413 25.6542 74.0033 26.3293 73.581 27.0888C72.9051 28.3546 72.5672 29.536 72.0604 30.9706C71.2156 33.0804 70.8777 35.3588 69.6105 37.2998C68.5123 39.0719 68.1744 41.1816 67.3296 43.0382C66.3159 45.1479 64.7108 46.5825 63.0213 48.1015C62.261 48.7766 61.5852 49.6205 60.9094 50.38C60.1491 51.1395 59.6422 52.1521 58.713 52.8272C56.8545 54.1774 54.7425 55.3589 52.884 56.7935C51.7858 57.6374 51.0255 58.8188 49.7584 59.4939C48.5757 60.2534 47.2241 60.7597 46.0414 61.4348C44.9432 62.1099 43.845 62.7851 42.6623 63.2914C41.3106 63.7977 40.2124 63.6289 38.7763 63.7133C37.2557 63.7977 35.6507 64.2197 34.2146 64.726C33.0319 65.1479 32.0181 65.5699 30.751 65.1479C29.9062 64.8948 29.2304 64.304 28.3856 64.1353C26.3581 63.7133 24.1617 64.1353 22.1343 64.0509C20.5292 63.9665 18.8397 63.6289 17.2346 63.2914C15.714 63.0382 14.4469 61.9412 13.0107 61.5192C11.1522 61.0129 9.0403 61.4348 7.35075 60.7597C6.59046 60.5066 5.91464 59.9158 5.3233 59.4939C5.15435 59.4095 5.06987 59.3251 4.90092 59.2407C4.64748 58.8188 4.39406 58.3125 4.14062 57.8905C4.56301 58.0593 4.9854 58.2281 5.40778 58.4812C7.68867 59.5783 10.5609 59.4095 13.0107 59.8315C15.7985 60.3378 18.5862 61.0129 21.374 61.3504C22.5567 61.5192 23.6549 61.4348 24.8376 61.3504C26.4426 61.1817 28.0477 61.1817 29.6528 60.9285C32.356 60.4222 35.0593 59.1564 37.8471 59.4939C38.3539 59.5783 38.9453 59.8315 39.4521 59.8315C40.2124 59.8315 40.8038 59.1564 41.3951 58.7344C42.4933 58.0593 43.676 58.1437 44.6897 57.2154C45.619 56.2871 46.7172 55.6964 47.8999 55.1057C50.941 53.5867 53.3909 51.0551 55.8407 48.6078C57.8682 46.5825 59.8112 44.4728 61.1628 42.0255C62.5144 39.5783 62.261 36.6247 63.2747 34.093C64.035 32.2365 64.6264 30.5487 65.8091 28.9453C66.4004 28.1858 67.0762 27.5107 67.6675 26.7512C68.3434 25.9917 68.6813 25.1479 69.1882 24.2196C69.695 23.2069 70.4553 22.363 70.8777 21.266C71.3001 20.2533 71.2156 19.4094 71.2156 18.3124C71.2156 17.2154 71.2156 16.0339 71.2156 14.8525C72.9896 17.2997 74.4257 19.4938 75.6084 21.7723Z" fill="url(#paint4_linear_2318_3534)" fill-opacity="0.5"/>
<path opacity="0.4" fill-rule="evenodd" clip-rule="evenodd" d="M69.2714 12.7425C68.849 12.3206 68.4266 11.8143 68.0042 11.3923C64.963 8.35436 61.415 5.90709 57.529 3.96616C57.4445 3.88177 57.3601 3.88177 57.1911 3.79739C56.5998 3.54422 56.0084 3.29106 55.4171 3.03789C54.5723 2.70034 53.812 2.36278 52.9673 2.10962C53.2207 2.2784 53.5586 2.44717 53.6431 2.44717C54.1499 2.70034 54.5723 2.86912 54.9102 3.29106C55.2482 3.713 55.4171 4.05055 55.4171 4.64127C55.4171 5.1476 55.5016 5.73832 55.5861 6.24465C55.6705 6.75098 55.924 7.17292 56.0084 7.67925C56.0929 7.93242 56.0929 8.18558 56.1774 8.52313C56.3464 9.19824 56.5998 9.87335 56.7687 10.5485C57.0222 11.8143 56.3463 12.8269 55.924 13.924C55.2481 15.6961 54.8258 17.4683 54.2344 19.3248C53.812 20.7594 53.0517 22.194 51.9535 23.2911C50.8553 24.3037 49.2503 24.5569 48.321 25.654C47.4762 26.6666 46.4625 27.5949 45.2798 28.1012C43.9282 28.7763 42.4076 29.2827 40.9715 29.7046C39.9578 30.0422 38.8595 30.0422 37.7613 30.2953C36.4097 30.6329 35.227 31.308 34.0443 31.8143C32.6927 32.405 31.51 33.0801 30.1584 33.6708C28.8067 34.2616 27.6241 35.0211 26.2724 35.5274C25.5966 35.7806 24.9208 35.9493 24.3295 36.1181C22.9778 36.6244 21.7107 37.4683 20.2746 37.6371C19.7677 37.7215 19.2608 37.8059 18.7539 37.8059C18.3316 37.8059 17.9937 37.8903 17.6558 37.9747C16.3886 38.481 15.6283 39.8312 14.1922 39.9156C12.8405 39.9156 11.5734 39.8312 10.3062 40C9.6304 40.0844 9.03907 40 8.44773 40.0844C8.27878 40.0844 8.02533 40.1688 7.85638 40.0844C7.68742 40 7.434 39.8312 7.18057 39.6624C6.67371 39.4093 6.25132 39.0717 5.82893 38.7341C4.98416 38.059 3.88596 38.481 2.95671 38.2278C2.70327 38.1434 2.28088 38.2278 2.02745 38.059C1.43611 37.7215 0.675803 36.962 0.168939 36.5401C0.0844618 37.6371 0 38.7342 0 39.8312C0 41.7721 0.168955 43.6287 0.422386 45.4852C0.506864 46.3291 0.675818 47.173 0.844773 48.1013C1.0982 49.2827 1.43609 50.5485 1.774 51.6456C2.28087 53.2489 2.87221 54.8523 3.54803 56.3713C4.64624 56.5401 5.74444 56.7089 6.84264 56.5401C8.44771 56.2869 9.96831 56.0338 11.5734 56.1181C13.094 56.2025 14.4456 56.7089 15.8817 56.962C17.4868 57.2152 19.1763 57.4684 20.8659 57.5527C22.3865 57.6371 23.9071 57.8059 25.3432 57.9747C26.4414 58.1435 27.6241 58.3122 28.7223 58.3966C31.679 58.5654 34.5512 57.8059 37.4234 57.5527C38.8595 57.384 40.2957 57.0464 41.7318 56.7089C42.5766 56.5401 43.4213 56.2869 44.1816 55.7806C45.1953 55.1055 45.8712 54.1772 46.7159 53.4177C47.7297 52.5738 48.7434 51.73 49.7571 50.9705C50.6019 50.2953 51.4467 49.5359 52.3759 48.9451C53.0517 48.5232 53.812 48.0169 54.4879 47.5105C55.755 46.4979 56.8532 45.3164 57.9514 44.0506C59.472 42.2785 60.0633 39.8312 60.6547 37.6371C61.246 35.6118 61.5839 33.6709 62.6821 31.8143C63.189 30.9704 63.6114 29.9578 63.8648 28.9451C64.0338 28.3544 64.1183 27.5949 64.3717 27.0042C64.7941 26.0759 65.7233 25.3164 66.2302 24.4725C66.6526 23.7974 67.1594 23.1223 67.4129 22.2784C68.0042 20.7594 68.4266 19.2404 68.68 17.5527C68.849 16.3712 69.2714 15.1898 69.6093 14.0084C69.6938 13.8396 69.6938 13.5864 69.7782 13.4177C69.7782 13.3333 69.5248 12.9957 69.2714 12.7425ZM17.1489 40.0844C17.2334 39.9156 18.754 39.3249 18.9229 39.2405C18.9229 39.2405 18.9229 39.2405 18.8384 39.2405L17.8247 39.6624C18.9229 39.3249 20.8659 40.4219 19.9366 41.6034C19.6832 41.9409 18.9229 42.1097 18.5005 42.1941C18.0781 42.2785 17.8247 42.1097 17.5713 41.7721C17.3178 41.4346 17.1489 40.9283 17.1489 40.5063C17.1489 40.4219 17.1489 40.1688 17.1489 40.0844ZM5.23758 50.8017C4.05489 50.4641 3.29459 50.0422 2.61878 49.0295C2.11191 48.3544 1.77402 47.7637 1.60506 47.0042C1.52059 46.3291 1.26714 45.8228 1.4361 45.1477C1.52058 44.6413 1.77402 44.0506 2.02745 43.6287C2.28088 43.1223 2.70326 42.5316 2.70326 42.3628C3.88594 42.2785 4.98415 42.1941 6.08235 42.1941C7.34951 42.1941 8.70115 42.3628 9.96831 42.3628C10.5597 42.3628 11.151 42.3629 11.7423 42.2785C12.3337 42.1941 12.8405 42.0253 13.4319 41.9409C14.4456 41.7721 15.3749 41.6877 16.3041 42.1097C16.9799 42.4472 17.3178 43.2911 17.6558 43.9662C17.8247 44.3882 17.9937 44.6413 17.9937 45.1477C17.9937 45.7384 17.9936 46.2447 17.9092 46.751C17.9092 46.9198 17.8247 47.173 17.8247 47.3418C16.9799 49.1139 14.7835 49.7046 13.094 50.3797C10.5597 51.3924 7.7719 51.4768 5.23758 50.8017ZM23.2313 54.6835C22.7244 56.0338 20.528 56.4557 19.2608 56.5401C18.6695 56.5401 17.9092 56.4557 17.3178 56.1181C16.9799 55.9494 16.7265 55.6118 16.4731 55.2743C16.3041 55.0211 16.0507 54.5992 15.3749 54.7679C15.5438 54.0084 15.7128 53.3333 16.0507 52.6582C16.3041 52.3207 16.642 52.0675 16.9799 51.73C17.5713 51.2236 18.2471 50.7173 18.9229 50.3797C20.0211 49.789 21.2038 50.211 22.2175 50.7173C22.9778 51.0548 23.4847 51.5612 23.6536 52.3207C23.9071 53.2489 23.5692 53.8397 23.2313 54.6835ZM38.0992 54.4304C37.6769 55.3587 37.0855 55.6118 36.2408 56.1181C35.227 56.6245 33.8754 57.0464 32.7772 57.0464C32.1858 57.0464 31.5945 56.7933 31.0876 56.5401C30.7497 56.3713 30.3273 56.2869 30.0739 56.0338C29.3136 55.2743 29.1446 54.2616 29.6515 54.4304C29.3136 53.7553 29.1447 53.0802 29.0602 52.4051C29.2291 52.3207 29.3136 52.1519 29.3136 51.9831C29.736 51.2236 30.4963 50.5485 31.3411 50.1266C32.6927 49.3671 34.4667 49.1983 35.9873 49.8734C36.6631 50.1266 37.0855 50.4641 37.5079 50.9705C37.7613 51.2236 38.0148 51.3924 38.2682 51.73C38.5216 52.4051 38.3527 53.6709 38.0992 54.4304ZM42.5766 54.2616C42.3231 54.4304 41.9007 54.7679 41.6473 54.7679C41.3939 54.6835 40.9715 54.2616 40.9715 53.924L40.8025 53.7553C41.1404 53.1646 41.4784 52.6582 41.8163 52.0675C42.3231 52.3207 42.83 52.2363 43.1679 52.827C43.5903 53.4177 42.9989 53.924 42.5766 54.2616ZM53.981 27.6793C53.5586 28.27 52.9673 28.8607 52.2914 29.1139C51.4467 29.4514 50.264 29.789 50.1795 28.4388C50.1795 27.6793 50.264 27.0886 50.6019 26.4135C51.1088 25.4008 51.5311 25.1476 52.5449 24.6413C52.8828 24.6413 53.3052 24.8101 53.5586 24.8945C54.0655 25.0632 54.5723 25.5696 54.6568 26.1603C54.7413 26.751 54.3189 27.2573 53.981 27.6793ZM64.5407 22.0253C64.1183 23.3755 63.5269 24.6413 62.9356 25.8227C62.2598 27.3417 62.1753 28.9451 61.7529 30.5485C61.5839 31.4768 61.0771 32.4894 60.2323 32.827C59.8099 32.9957 59.472 32.9114 59.0496 32.9114C58.6272 32.9114 57.9514 33.0801 57.9514 33.4177C57.698 32.7426 57.3601 31.8987 57.1911 31.2236C57.0222 30.4641 56.9377 29.6202 56.8532 28.7763C56.6843 27.9324 56.6843 27.0886 56.5998 26.2447C56.5153 25.4852 56.3463 24.6413 56.3463 23.8818C56.3463 21.2658 57.8669 17.9746 60.3168 16.7932C61.0771 16.4556 61.8374 16.2869 62.6821 16.3712C63.6114 16.54 64.2027 16.7932 64.6251 17.7215C65.132 18.9873 64.8786 20.6751 64.5407 22.0253Z" fill="url(#paint5_linear_2318_3534)" fill-opacity="0.5"/>
<path opacity="0.4" fill-rule="evenodd" clip-rule="evenodd" d="M52.8824 24.4727C52.7979 24.5572 52.6289 24.5572 52.5445 24.6417C52.291 24.6417 52.1221 24.5572 51.9531 24.6417L52.8824 24.4727Z" fill="url(#paint6_linear_2318_3534)" fill-opacity="0.5"/>
<path opacity="0.4" fill-rule="evenodd" clip-rule="evenodd" d="M2.61816 42.363C2.53368 42.363 2.44922 42.363 2.44922 42.363C2.61817 42.2785 2.61816 42.2785 2.61816 42.363Z" fill="url(#paint7_linear_2318_3534)" fill-opacity="0.5"/>
<path opacity="0.3" fill-rule="evenodd" clip-rule="evenodd" d="M17.1478 72.9113C17.1478 72.9113 20.7803 74.2615 23.3991 73.502C23.3991 73.502 24.4128 64.9788 21.2027 59.4935C17.9925 54.0083 12.5015 62.2784 12.5015 62.2784L11.2344 67.5104C11.2344 67.5104 14.2756 71.1391 17.1478 72.9113Z" fill="black" fill-opacity="0.5"/>
<defs>
<radialGradient id="paint0_radial_2318_3534" cx="0" cy="0" r="1" gradientUnits="userSpaceOnUse" gradientTransform="translate(15.1615 21.2705) scale(64.2885 64.2208)">
<stop offset="0.00558659" stop-color="#60DBFF"/>
<stop offset="0.0937306" stop-color="#60D5FF"/>
<stop offset="0.211" stop-color="#5FC4FF"/>
<stop offset="0.3446" stop-color="#5DA9FF"/>
<stop offset="0.4903" stop-color="#5A82FF"/>
<stop offset="0.6442" stop-color="#5751FF"/>
<stop offset="0.6844" stop-color="#5643FF"/>
<stop offset="0.7432" stop-color="#563DF8"/>
<stop offset="0.8282" stop-color="#552EE5"/>
<stop offset="0.9287" stop-color="#5315C6"/>
<stop offset="1" stop-color="#5200AB"/>
</radialGradient>
<linearGradient id="paint1_linear_2318_3534" x1="-0.074509" y1="29.0024" x2="57.4966" y2="29.0024" gradientUnits="userSpaceOnUse">
<stop offset="0.0111732" stop-color="#81E0FF"/>
<stop offset="0.3224" stop-color="#82DDFF"/>
<stop offset="0.5506" stop-color="#86D4FF"/>
<stop offset="0.7523" stop-color="#8BC4FF"/>
<stop offset="0.9375" stop-color="#94ADFF"/>
<stop offset="1" stop-color="#97A4FF"/>
</linearGradient>
<linearGradient id="paint2_linear_2318_3534" x1="0.291485" y1="17.6862" x2="50.6237" y2="17.6862" gradientUnits="userSpaceOnUse">
<stop stop-color="#B8C2FF"/>
<stop offset="1" stop-color="#7D72B3"/>
</linearGradient>
<linearGradient id="paint3_linear_2318_3534" x1="8.45901" y1="55.1111" x2="79.969" y2="55.1111" gradientUnits="userSpaceOnUse">
<stop stop-color="#B8C2FF"/>
<stop offset="1" stop-color="#7D72B3"/>
</linearGradient>
<linearGradient id="paint4_linear_2318_3534" x1="4.23684" y1="40.3357" x2="75.6034" y2="40.3357" gradientUnits="userSpaceOnUse">
<stop stop-color="#B8C2FF"/>
<stop offset="1" stop-color="#7D72B3"/>
</linearGradient>
<linearGradient id="paint5_linear_2318_3534" x1="-0.0727349" y1="30.3728" x2="70.0772" y2="30.3728" gradientUnits="userSpaceOnUse">
<stop stop-color="#B8C2FF"/>
<stop offset="1" stop-color="#7D72B3"/>
</linearGradient>
<linearGradient id="paint6_linear_2318_3534" x1="51.8974" y1="24.5968" x2="52.8603" y2="24.5968" gradientUnits="userSpaceOnUse">
<stop stop-color="#E8DDFF"/>
<stop offset="1" stop-color="#AA8AD8"/>
</linearGradient>
<linearGradient id="paint7_linear_2318_3534" x1="2.43562" y1="42.3719" x2="2.63556" y2="42.3719" gradientUnits="userSpaceOnUse">
<stop stop-color="#E8DDFF"/>
<stop offset="1" stop-color="#AA8AD8"/>
</linearGradient>
</defs>
</svg>
