<svg width="300" height="356" viewBox="0 0 300 356" fill="none" xmlns="http://www.w3.org/2000/svg">
<path d="M-122.061 67.0416C-118.944 64.3252 119.976 268.086 144.07 289.082C168.164 310.078 176.745 321.966 173.628 324.714C170.511 327.463 156.832 319.953 132.738 298.957C108.645 277.929 -125.178 69.7579 -122.061 67.0416Z" fill="url(#paint0_linear_2318_3461)"/>
<path opacity="0.2" d="M83.8536 246.478C85.4305 245.104 158.005 306.142 165.266 312.47C172.527 318.798 174.618 322.824 173.041 324.198C171.464 325.573 166.843 323.751 159.582 317.423C152.321 311.096 82.2767 247.82 83.8536 246.478Z" fill="#4BD9FF"/>
<path opacity="0.7" d="M127.567 284.576C128.374 283.873 164.716 314.457 168.347 317.62C171.977 320.784 173.041 322.829 172.234 323.5C171.427 324.172 169.117 323.277 165.486 320.113C161.856 316.949 126.797 285.247 127.567 284.576Z" fill="white"/>
<path d="M-87.5528 18.2745C-84.4357 15.5581 227.536 283.009 259.074 310.493C290.612 337.976 302.641 352.868 299.523 355.585C296.406 358.301 279.28 347.819 247.779 320.336C216.204 292.852 -90.67 20.9908 -87.5528 18.2745Z" fill="url(#paint1_linear_2318_3461)"/>
<path opacity="0.2" d="M209.75 277.351C211.327 275.977 283.901 337.015 291.163 343.343C298.424 349.671 300.514 353.697 298.937 355.071C297.36 356.446 292.739 354.624 285.478 348.296C278.217 341.969 208.173 278.725 209.75 277.351Z" fill="#4BD9FF"/>
<path opacity="0.7" d="M253.462 315.449C254.268 314.746 290.611 345.33 294.241 348.493C297.872 351.657 298.935 353.702 298.128 354.374C297.322 355.077 295.011 354.15 291.381 350.986C287.75 347.822 252.691 316.152 253.462 315.449Z" fill="white"/>
<path d="M-149.969 0.0269141C-146.852 -2.68947 92.0682 201.071 116.162 222.067C140.256 243.063 148.837 254.951 145.72 257.7C142.603 260.448 128.924 252.938 104.83 231.942C80.7364 210.946 -153.086 2.74329 -149.969 0.0269141Z" fill="url(#paint2_linear_2318_3461)"/>
<path opacity="0.2" d="M55.9454 179.468C57.5223 178.094 130.097 239.133 137.358 245.46C144.619 251.788 146.709 255.814 145.132 257.189C143.556 258.563 138.935 256.741 131.674 250.414C124.413 244.086 54.3685 180.842 55.9454 179.468Z" fill="#4BD9FF"/>
<path opacity="0.7" d="M99.6588 217.562C100.466 216.859 136.808 247.442 140.438 250.606C144.069 253.77 145.132 255.815 144.326 256.486C143.519 257.189 141.209 256.262 137.578 253.098C133.947 249.935 98.8886 218.265 99.6588 217.562Z" fill="white"/>
<defs>
<linearGradient id="paint0_linear_2318_3461" x1="173.642" y1="324.7" x2="-81.5975" y2="31.8028" gradientUnits="userSpaceOnUse">
<stop stop-color="#014DA8"/>
<stop offset="0.1388" stop-color="#024799" stop-opacity="0.8612"/>
<stop offset="0.3419" stop-color="#03418B" stop-opacity="0.6581"/>
<stop offset="0.589" stop-color="#043E83" stop-opacity="0.411"/>
<stop offset="1" stop-color="#043D80" stop-opacity="0"/>
</linearGradient>
<linearGradient id="paint1_linear_2318_3461" x1="299.534" y1="355.587" x2="-34.6088" y2="-27.8539" gradientUnits="userSpaceOnUse">
<stop stop-color="#014DA8"/>
<stop offset="0.1388" stop-color="#024799" stop-opacity="0.8612"/>
<stop offset="0.3419" stop-color="#03418B" stop-opacity="0.6581"/>
<stop offset="0.589" stop-color="#043E83" stop-opacity="0.411"/>
<stop offset="1" stop-color="#043D80" stop-opacity="0"/>
</linearGradient>
<linearGradient id="paint2_linear_2318_3461" x1="145.74" y1="257.695" x2="-109.5" y2="-35.2026" gradientUnits="userSpaceOnUse">
<stop stop-color="#014DA8"/>
<stop offset="0.1388" stop-color="#024799" stop-opacity="0.8612"/>
<stop offset="0.3419" stop-color="#03418B" stop-opacity="0.6581"/>
<stop offset="0.589" stop-color="#043E83" stop-opacity="0.411"/>
<stop offset="1" stop-color="#043D80" stop-opacity="0"/>
</linearGradient>
</defs>
</svg>
