<svg width="200" height="140" viewBox="0 0 200 140" fill="none" xmlns="http://www.w3.org/2000/svg">
<path opacity="0.2" d="M173.606 62.5041C172.001 61.1415 98.1379 121.668 90.7478 127.943C83.3578 134.217 81.2304 138.21 82.8353 139.573C84.4402 140.936 89.1429 139.129 96.533 132.855C103.923 126.58 175.21 63.8351 173.606 62.5041Z" fill="#4BD9FF"/>
<path opacity="0.7" d="M129.117 100.283C128.296 99.5862 91.3086 129.913 87.6136 133.05C83.9186 136.187 82.8363 138.216 83.6574 138.881C84.4785 139.546 86.8299 138.659 90.5249 135.522C94.2199 132.385 129.901 100.949 129.117 100.283Z" fill="white"/>
<path opacity="0.2" d="M91.2735 59.4035C89.6686 58.0409 15.8059 118.568 8.41586 124.842C1.02585 131.117 -1.10161 135.11 0.503294 136.472C2.1082 137.835 6.81096 136.029 14.201 129.754C21.591 123.48 92.8784 60.7662 91.2735 59.4035Z" fill="#4BD9FF"/>
<path opacity="0.7" d="M46.7851 97.1827C45.964 96.4856 8.97661 126.812 5.2816 129.95C1.5866 133.087 0.504231 135.115 1.32534 135.781C2.14646 136.478 4.49779 135.559 8.19279 132.421C11.8878 129.284 47.5689 97.8799 46.7851 97.1827Z" fill="white"/>
<path opacity="0.2" d="M199.973 0.0226589C198.368 -1.33999 124.505 59.1869 117.115 65.4614C109.725 71.7359 107.598 75.7288 109.203 77.0914C110.807 78.4541 115.51 76.6478 122.9 70.3733C130.29 64.0988 201.578 1.38531 199.973 0.0226589Z" fill="#4BD9FF"/>
<path opacity="0.7" d="M155.484 37.796C154.663 37.0988 117.676 67.4257 113.981 70.563C110.286 73.7002 109.203 75.7283 110.025 76.3938C110.846 77.091 113.197 76.172 116.892 73.0348C120.587 69.8975 156.268 38.4932 155.484 37.796Z" fill="white"/>
</svg>
