<svg width="822" height="475" viewBox="0 0 822 475" fill="none" xmlns="http://www.w3.org/2000/svg">
<g opacity="0.4">
<path opacity="0.4" fill-rule="evenodd" clip-rule="evenodd" d="M97.7984 189.584C97.7984 189.584 173.956 86.2738 506.745 107.506L97.7984 189.584Z" fill="url(#paint0_radial_2318_3110)"/>
<path opacity="0.4" fill-rule="evenodd" clip-rule="evenodd" d="M487.608 369.883C487.608 369.883 -7.76719 443.777 35.0451 282.718C35.0451 282.718 230.139 365.341 487.608 369.883Z" fill="url(#paint1_radial_2318_3110)"/>
<path opacity="0.4" fill-rule="evenodd" clip-rule="evenodd" d="M61.5981 317.246C61.5981 317.246 125.366 351.655 268.757 358.628C412.149 365.602 696.891 301.877 741.284 205.946C779.097 124.18 557.248 115.691 448.198 118.871C373.018 121.047 188.368 141.715 170.755 194.841C157.196 235.745 339.463 242.342 384.533 242.382C429.604 242.423 620.719 216.958 646.681 174.997C665.639 144.319 509.118 138.373 440.454 144.529C365.918 151.205 286.372 178.382 331.189 195.497C345.663 201.042 449.409 206.81 505.941 183.752C562.473 160.693 509.181 152.79 484.359 152.161C459.544 151.493 428.117 158.421 407.548 173.409C407.548 173.409 468.402 180.849 480.307 156.041C501.011 161.003 474.081 186.056 419.76 192.371C372.559 197.846 348.634 190.397 353.953 179.521C359.236 168.639 432.13 143.874 512.362 147.739C592.598 151.603 590.305 174.361 570.243 188.266C550.181 202.17 439.771 232.729 324.172 225.358C208.576 217.987 229.87 194.994 282.417 172.234C334.964 149.473 418.903 138.513 465.99 137.462C513.082 136.373 686.851 136.727 681.918 190.035C676.987 243.34 405.388 298.665 242.963 297.365C113.173 296.349 -16.0323 249.724 156.248 169.205C330.81 87.6333 726.732 94.6671 780.674 178.413C829.494 254.215 649.767 344.06 508.142 366.858C365.926 389.727 265.962 376.174 210.475 369.532C155.037 362.814 79.8129 335.591 61.5981 317.246Z" fill="url(#paint2_radial_2318_3110)"/>
<path opacity="0.4" fill-rule="evenodd" clip-rule="evenodd" d="M45.4957 233.357L34.8461 239.272C34.8461 239.272 -13.496 309.471 162.925 341.159C339.384 372.851 507.445 313.493 533.808 292.527C533.808 292.527 379.12 325.518 206.272 312.978C33.4552 300.482 45.4957 233.357 45.4957 233.357Z" fill="url(#paint3_radial_2318_3110)"/>
<path opacity="0.4" fill-rule="evenodd" clip-rule="evenodd" d="M558.285 358.228C558.285 358.228 713.446 330.636 772.801 274.47C832.156 218.302 784.516 185.318 784.516 185.318C784.516 185.318 867.156 272.202 558.285 358.228Z" fill="url(#paint4_radial_2318_3110)"/>
<path opacity="0.5" fill-rule="evenodd" clip-rule="evenodd" d="M209.152 225.065C209.152 225.065 143.778 209.035 144.957 187.54C146.136 166.046 262.097 127.736 391.84 117.081C521.583 106.425 675.25 117.046 732.069 161.588C732.069 161.588 673.798 123.706 530.335 121.899C386.913 120.096 231.171 145.09 190.35 180.985C157.439 209.902 209.152 225.065 209.152 225.065Z" fill="url(#paint5_linear_2318_3110)"/>
<path opacity="0.5" fill-rule="evenodd" clip-rule="evenodd" d="M379.379 200.325C379.379 200.325 321.045 201.408 294.682 190.082C268.319 178.756 350.677 144.077 464.815 139.142C553.958 135.289 662.951 145.272 646.683 174.997C646.683 174.997 659.366 142.346 477.186 145.071C347.192 146.998 272.032 194.873 379.379 200.325Z" fill="url(#paint6_linear_2318_3110)"/>
<path opacity="0.5" fill-rule="evenodd" clip-rule="evenodd" d="M454.989 171.83C454.989 171.83 415.853 182.288 376.77 177.303C340.98 172.767 424.679 150.378 479.329 148.092C533.976 145.806 564.453 160.136 517.71 178.389C517.71 178.389 545.198 159.213 497.926 155.524C450.617 151.829 420.091 165.959 422.268 170.029C424.445 174.099 454.989 171.83 454.989 171.83Z" fill="url(#paint7_linear_2318_3110)"/>
<path opacity="0.5" fill-rule="evenodd" clip-rule="evenodd" d="M649.415 156.051C649.415 156.051 716.81 177.712 556.588 224.328C370.611 278.442 130.879 309.018 77.0021 252.706C77.0021 252.706 59.7098 309.666 275.868 309.122C483.947 308.615 653.64 252.316 690.43 212.349C727.22 172.38 649.415 156.051 649.415 156.051Z" fill="url(#paint8_linear_2318_3110)"/>
<path opacity="0.5" fill-rule="evenodd" clip-rule="evenodd" d="M34.8381 239.309C34.8381 239.309 15.8486 279.059 132.487 312.232C231.52 340.399 399.888 340.185 533.798 292.565C533.798 292.565 456.809 347.312 306.061 358.947C155.314 370.582 -1.74658 327.9 34.8381 239.309Z" fill="url(#paint9_linear_2318_3110)"/>
<path opacity="0.5" fill-rule="evenodd" clip-rule="evenodd" d="M210.525 369.461C210.525 369.461 486.845 369.034 666.773 289.302C846.696 209.604 750.827 153.324 750.827 153.324C750.827 153.324 852.684 202.573 755.238 279.861C657.792 357.149 386.874 399.553 210.525 369.461Z" fill="url(#paint10_linear_2318_3110)"/>
<path opacity="0.5" fill-rule="evenodd" clip-rule="evenodd" d="M353.83 383.526C353.83 383.526 91.3458 387.012 32.7777 307.64C32.7343 307.672 17.3857 406.483 353.83 383.526Z" fill="url(#paint11_linear_2318_3110)"/>
<path opacity="0.5" fill-rule="evenodd" clip-rule="evenodd" d="M247.165 211.736C247.165 211.736 353.965 220.351 475.235 198.32C565.266 181.967 555.085 152.954 555.085 152.954C555.085 152.954 639.123 172.564 546.167 205.014C453.245 237.47 284.599 235.404 247.165 211.736Z" fill="url(#paint12_linear_2318_3110)"/>
<path opacity="0.5" fill-rule="evenodd" clip-rule="evenodd" d="M357.672 188.573C357.672 188.573 483.053 181.558 484.974 157.932C484.974 157.932 510.744 171.179 461.698 187.506C413.218 203.686 356.614 193.63 357.672 188.573Z" fill="url(#paint13_linear_2318_3110)"/>
<path opacity="0.5" fill-rule="evenodd" clip-rule="evenodd" d="M97.7963 189.584C97.7963 189.584 200.485 89.4348 506.742 107.505C506.742 107.505 261.187 99.982 97.7963 189.584Z" fill="url(#paint14_linear_2318_3110)"/>
<path opacity="0.4" fill-rule="evenodd" clip-rule="evenodd" d="M630.092 150.133C630.092 150.133 731.988 164.975 589.642 215.286C447.26 265.59 202.392 255.001 135.329 232.386C68.2992 209.815 161.969 166.577 161.969 166.577C161.969 166.577 86.9564 200.955 136.422 227.102C185.845 253.281 476.018 246.95 584.103 211.22C692.178 175.564 646.822 153.735 630.092 150.133Z" fill="url(#paint15_radial_2318_3110)"/>
<path opacity="0.4" fill-rule="evenodd" clip-rule="evenodd" d="M484.969 157.966C484.969 157.966 473.964 172.789 429.969 179.552C385.93 186.348 357.526 181.749 355.517 177.589C353.509 173.428 388.797 162.593 388.797 162.593C388.797 162.593 361.417 170.622 373.059 176.25C384.668 181.835 456.331 179.947 484.969 157.966Z" fill="url(#paint16_radial_2318_3110)"/>
<path opacity="0.4" fill-rule="evenodd" clip-rule="evenodd" d="M555.084 152.956C555.084 152.956 572.246 188.296 414.165 207.187C256.08 226.116 230.824 199.773 275.263 175.424C319.704 151.074 399.448 143.124 399.448 143.124C399.448 143.124 296.034 158.302 278.74 181.154C261.445 204.006 373.634 211.953 447.924 198.867C522.214 185.781 550.959 176.602 555.084 152.956Z" fill="url(#paint17_radial_2318_3110)"/>
<path opacity="0.4" fill-rule="evenodd" clip-rule="evenodd" d="M533.84 292.569C533.84 292.569 428.706 336.269 256.745 330.505C84.7839 324.741 40.7422 264.364 40.7422 264.364C40.7422 264.364 76.2864 317.185 247.968 325.61C419.649 334.039 533.84 292.569 533.84 292.569Z" fill="url(#paint18_linear_2318_3110)"/>
<path opacity="0.4" fill-rule="evenodd" clip-rule="evenodd" d="M410.202 354.498C410.202 354.498 647.807 327.585 747.251 242.289C846.694 156.994 679.928 128.978 679.928 128.978C679.928 128.978 836.821 160.28 723.443 248.107C618.532 329.383 410.202 354.498 410.202 354.498Z" fill="url(#paint19_linear_2318_3110)"/>
<path opacity="0.4" fill-rule="evenodd" clip-rule="evenodd" d="M238.504 161.279C238.504 161.279 270.973 141.334 330.039 133.484C389.103 125.635 420.246 128.167 420.246 128.167C420.246 128.167 323.517 142.56 238.504 161.279Z" fill="url(#paint20_radial_2318_3110)"/>
<path opacity="0.4" fill-rule="evenodd" clip-rule="evenodd" d="M410.951 135.634C410.951 135.634 451.148 114.364 497.563 130.092C497.601 130.098 457.877 130.464 410.951 135.634Z" fill="url(#paint21_radial_2318_3110)"/>
<path opacity="0.4" fill-rule="evenodd" clip-rule="evenodd" d="M554.619 302.485C554.619 302.485 653.135 293.768 698.46 235.826C698.46 235.826 610.39 269.697 554.619 302.485Z" fill="url(#paint22_radial_2318_3110)"/>
<path opacity="0.5" fill-rule="evenodd" clip-rule="evenodd" d="M410.952 135.634C410.952 135.634 452.67 120.267 497.564 130.092C497.602 130.097 459.669 135.056 410.952 135.634Z" fill="url(#paint23_linear_2318_3110)"/>
<path opacity="0.5" fill-rule="evenodd" clip-rule="evenodd" d="M554.619 302.485C554.619 302.485 631.143 286.564 698.46 235.826C698.46 235.826 677.071 291.522 554.619 302.485Z" fill="url(#paint24_linear_2318_3110)"/>
<path opacity="0.4" fill-rule="evenodd" clip-rule="evenodd" d="M588.057 292.921C588.057 292.921 663.724 262.736 698.456 235.863C698.46 235.826 654.367 273.206 588.057 292.921Z" fill="url(#paint25_radial_2318_3110)"/>
<path opacity="0.4" fill-rule="evenodd" clip-rule="evenodd" d="M428.216 130.933C428.216 130.933 450.748 123.304 480.143 127.47C480.148 127.433 461.479 125.166 428.216 130.933Z" fill="url(#paint26_radial_2318_3110)"/>
<path opacity="0.4" fill-rule="evenodd" clip-rule="evenodd" d="M55.5685 223.259C55.5685 223.259 29.462 207.336 91.0063 193.712C91.0063 193.712 69.872 207.033 55.5685 223.259Z" fill="url(#paint27_radial_2318_3110)"/>
<path opacity="0.5" fill-rule="evenodd" clip-rule="evenodd" d="M55.566 223.261C55.566 223.261 43.7996 207.534 91.0036 193.714C91.0036 193.714 81.2389 206.944 55.566 223.261Z" fill="url(#paint28_linear_2318_3110)"/>
<path opacity="0.4" fill-rule="evenodd" clip-rule="evenodd" d="M54.4176 216.948C54.4176 216.948 49.5615 208.541 75.2782 199.222C75.2782 199.222 59.792 205.192 54.4176 216.948Z" fill="url(#paint29_radial_2318_3110)"/>
<path opacity="0.4" fill-rule="evenodd" clip-rule="evenodd" d="M602.29 197.733C602.29 197.733 541.976 193.424 530.016 219.113C530.016 219.113 547.241 216.53 571.572 209.517C581.168 206.807 595.382 201.074 602.29 197.733Z" fill="url(#paint30_radial_2318_3110)"/>
<path opacity="0.5" fill-rule="evenodd" clip-rule="evenodd" d="M602.292 197.732C602.292 197.732 547.568 198.694 530.018 219.112C530.01 219.15 574.121 213.949 602.292 197.732Z" fill="url(#paint31_linear_2318_3110)"/>
<path opacity="0.4" fill-rule="evenodd" clip-rule="evenodd" d="M582.232 199.353C582.232 199.353 553.69 200.374 538.634 212.046C538.634 212.046 548.808 204.903 582.232 199.353Z" fill="url(#paint32_radial_2318_3110)"/>
<path opacity="0.4" fill-rule="evenodd" clip-rule="evenodd" d="M308.833 139.457C308.833 139.457 314.512 136.321 337.733 133.159C360.952 129.998 400.315 129.462 400.315 129.462C400.315 129.462 355.107 131.912 308.833 139.457Z" fill="url(#paint33_radial_2318_3110)"/>
<path opacity="0.5" fill-rule="evenodd" clip-rule="evenodd" d="M238.503 161.278C238.503 161.278 279.283 143.107 322.897 137.098C366.509 131.089 420.252 128.129 420.252 128.129C420.252 128.129 305.585 154.579 238.503 161.278Z" fill="url(#paint34_linear_2318_3110)"/>
<path opacity="0.4" fill-rule="evenodd" clip-rule="evenodd" d="M478.932 328.885C478.932 328.885 509.984 329.706 524.349 313.064C524.349 313.064 494.426 320.793 478.932 328.885Z" fill="url(#paint35_radial_2318_3110)"/>
<path opacity="0.4" fill-rule="evenodd" clip-rule="evenodd" d="M535.181 314.243C535.181 314.243 554.753 318.227 563.358 305.524L535.181 314.243Z" fill="url(#paint36_radial_2318_3110)"/>
<path opacity="0.4" fill-rule="evenodd" clip-rule="evenodd" d="M721.028 163.892C721.028 163.892 714.567 143.118 665.35 142.386L721.028 163.892Z" fill="url(#paint37_radial_2318_3110)"/>
<path opacity="0.4" fill-rule="evenodd" clip-rule="evenodd" d="M197.884 195.815C197.884 195.815 177.239 185.26 218.025 171.223C218.031 171.185 203.4 184.929 197.884 195.815Z" fill="url(#paint38_radial_2318_3110)"/>
<path opacity="0.4" fill-rule="evenodd" clip-rule="evenodd" d="M722.087 215.344L730.939 195.76C730.939 195.76 742.707 198.2 722.087 215.344Z" fill="url(#paint39_radial_2318_3110)"/>
<path opacity="0.4" fill-rule="evenodd" clip-rule="evenodd" d="M735.236 193.074L735.748 189.094C735.748 189.094 742.175 187.961 735.236 193.074Z" fill="url(#paint40_radial_2318_3110)"/>
<path opacity="0.4" fill-rule="evenodd" clip-rule="evenodd" d="M228.843 212.612C228.843 212.612 209.643 205.593 237.112 192.014C237.15 192.02 227.107 203.741 228.843 212.612Z" fill="url(#paint41_radial_2318_3110)"/>
<path opacity="0.4" fill-rule="evenodd" clip-rule="evenodd" d="M242.397 218.366C242.397 218.366 232.032 218.451 236.844 212.83L242.397 218.366Z" fill="url(#paint42_radial_2318_3110)"/>
<path opacity="0.4" fill-rule="evenodd" clip-rule="evenodd" d="M69.4323 256.875C69.4323 256.875 40.1824 255.898 59.0544 243.246L69.4323 256.875Z" fill="url(#paint43_radial_2318_3110)"/>
<path opacity="0.4" fill-rule="evenodd" clip-rule="evenodd" d="M60.3368 238.762L62.9151 232.578C62.9528 232.584 52.5597 237.029 60.3368 238.762Z" fill="url(#paint44_radial_2318_3110)"/>
<path opacity="0.4" fill-rule="evenodd" clip-rule="evenodd" d="M661.615 139.165C661.615 139.165 661.606 131.94 634.518 133.563L661.615 139.165Z" fill="url(#paint45_radial_2318_3110)"/>
<path opacity="0.4" fill-rule="evenodd" clip-rule="evenodd" d="M447.088 231.341C447.088 231.341 459.412 225.328 484.929 226.485C484.922 226.523 470.838 230.074 447.088 231.341Z" fill="url(#paint46_radial_2318_3110)"/>
<path opacity="0.4" fill-rule="evenodd" clip-rule="evenodd" d="M159.093 305.013C159.093 305.013 133.785 302.458 129.828 297.622L159.093 305.013Z" fill="url(#paint47_radial_2318_3110)"/>
<path opacity="0.4" fill-rule="evenodd" clip-rule="evenodd" d="M199.033 308.659C199.033 308.659 177.678 309.663 177.56 305.513L199.033 308.659Z" fill="url(#paint48_radial_2318_3110)"/>
</g>
<defs>
<radialGradient id="paint0_radial_2318_3110" cx="0" cy="0" r="1" gradientUnits="userSpaceOnUse" gradientTransform="translate(271.344 65.4658) rotate(-54.1635) scale(160.837 329.446)">
<stop offset="0.0196" stop-color="#22B4FF"/>
<stop offset="0.2933" stop-color="#0A66FF"/>
<stop offset="0.3926" stop-color="#0B58EC"/>
<stop offset="0.5933" stop-color="#0D35BC"/>
<stop offset="0.8547" stop-color="#110075"/>
</radialGradient>
<radialGradient id="paint1_radial_2318_3110" cx="0" cy="0" r="1" gradientUnits="userSpaceOnUse" gradientTransform="translate(182.255 250.151) rotate(-54.1635) scale(230.358 471.85)">
<stop offset="0.0196" stop-color="#22B4FF"/>
<stop offset="0.2933" stop-color="#0A66FF"/>
<stop offset="0.3926" stop-color="#0B58EC"/>
<stop offset="0.5933" stop-color="#0D35BC"/>
<stop offset="0.8547" stop-color="#110075"/>
</radialGradient>
<radialGradient id="paint2_radial_2318_3110" cx="0" cy="0" r="1" gradientUnits="userSpaceOnUse" gradientTransform="translate(229.075 214.55) rotate(-54.1635) scale(222.145 455.026)">
<stop offset="0.0196" stop-color="#22B4FF"/>
<stop offset="0.2933" stop-color="#0A66FF"/>
<stop offset="0.3926" stop-color="#0B58EC"/>
<stop offset="0.5933" stop-color="#0D35BC"/>
<stop offset="0.8547" stop-color="#110075"/>
</radialGradient>
<radialGradient id="paint3_radial_2318_3110" cx="0" cy="0" r="1" gradientUnits="userSpaceOnUse" gradientTransform="translate(194.974 196.125) rotate(-54.1635) scale(241.436 494.54)">
<stop offset="0.0196" stop-color="#22B4FF"/>
<stop offset="0.2933" stop-color="#0A66FF"/>
<stop offset="0.3926" stop-color="#0B58EC"/>
<stop offset="0.5933" stop-color="#0D35BC"/>
<stop offset="0.8547" stop-color="#110075"/>
</radialGradient>
<radialGradient id="paint4_radial_2318_3110" cx="0" cy="0" r="1" gradientUnits="userSpaceOnUse" gradientTransform="translate(768.995 118.646) rotate(-54.1635) scale(123.619 253.213)">
<stop offset="0.0196" stop-color="#16BEFF"/>
<stop offset="0.2877" stop-color="#0A70FF"/>
<stop offset="0.8547" stop-color="#2F0BD7"/>
</radialGradient>
<linearGradient id="paint5_linear_2318_3110" x1="715.845" y1="237.689" x2="159.422" y2="119.224" gradientUnits="userSpaceOnUse">
<stop stop-color="#3479F3"/>
<stop offset="0.0848" stop-color="#346DEC"/>
<stop offset="0.5105" stop-color="#3533CC"/>
<stop offset="0.826" stop-color="#3510B8"/>
<stop offset="0.9944" stop-color="#3502B0"/>
</linearGradient>
<linearGradient id="paint6_linear_2318_3110" x1="640.012" y1="209.278" x2="299.844" y2="136.855" gradientUnits="userSpaceOnUse">
<stop stop-color="#3479F3"/>
<stop offset="0.0848" stop-color="#346DEC"/>
<stop offset="0.5105" stop-color="#3533CC"/>
<stop offset="0.826" stop-color="#3510B8"/>
<stop offset="0.9944" stop-color="#3502B0"/>
</linearGradient>
<linearGradient id="paint7_linear_2318_3110" x1="536.332" y1="182.488" x2="373.597" y2="147.841" gradientUnits="userSpaceOnUse">
<stop stop-color="#3479F3"/>
<stop offset="0.0848" stop-color="#346DEC"/>
<stop offset="0.5105" stop-color="#3533CC"/>
<stop offset="0.826" stop-color="#3510B8"/>
<stop offset="0.9944" stop-color="#3502B0"/>
</linearGradient>
<linearGradient id="paint8_linear_2318_3110" x1="680.35" y1="287.717" x2="96.0218" y2="163.312" gradientUnits="userSpaceOnUse">
<stop offset="0.00558659" stop-color="#3502B0"/>
<stop offset="0.174" stop-color="#3510B8"/>
<stop offset="0.4895" stop-color="#3533CC"/>
<stop offset="0.9152" stop-color="#346DEC"/>
<stop offset="1" stop-color="#3479F3"/>
</linearGradient>
<linearGradient id="paint9_linear_2318_3110" x1="519.575" y1="359.487" x2="30.1321" y2="255.284" gradientUnits="userSpaceOnUse">
<stop offset="0.00558659" stop-color="#3502B0"/>
<stop offset="0.174" stop-color="#3510B8"/>
<stop offset="0.4895" stop-color="#3533CC"/>
<stop offset="0.9152" stop-color="#346DEC"/>
<stop offset="1" stop-color="#3479F3"/>
</linearGradient>
<linearGradient id="paint10_linear_2318_3110" x1="775.146" y1="324.083" x2="244.237" y2="211.05" gradientUnits="userSpaceOnUse">
<stop offset="0.00558659" stop-color="#3502B0"/>
<stop offset="0.174" stop-color="#3510B8"/>
<stop offset="0.4895" stop-color="#3533CC"/>
<stop offset="0.9152" stop-color="#346DEC"/>
<stop offset="1" stop-color="#3479F3"/>
</linearGradient>
<linearGradient id="paint11_linear_2318_3110" x1="350.494" y1="399.149" x2="27.8929" y2="330.465" gradientUnits="userSpaceOnUse">
<stop offset="0.00558659" stop-color="#3502B0"/>
<stop offset="0.174" stop-color="#3510B8"/>
<stop offset="0.4895" stop-color="#3533CC"/>
<stop offset="0.9152" stop-color="#346DEC"/>
<stop offset="1" stop-color="#3479F3"/>
</linearGradient>
<linearGradient id="paint12_linear_2318_3110" x1="580.155" y1="222.401" x2="259.424" y2="154.116" gradientUnits="userSpaceOnUse">
<stop offset="0.00558659" stop-color="#3502B0"/>
<stop offset="0.174" stop-color="#3510B8"/>
<stop offset="0.4895" stop-color="#3533CC"/>
<stop offset="0.9152" stop-color="#346DEC"/>
<stop offset="1" stop-color="#3479F3"/>
</linearGradient>
<linearGradient id="paint13_linear_2318_3110" x1="487.316" y1="188.492" x2="363.303" y2="162.089" gradientUnits="userSpaceOnUse">
<stop offset="0.00558659" stop-color="#3502B0"/>
<stop offset="0.174" stop-color="#3510B8"/>
<stop offset="0.4895" stop-color="#3533CC"/>
<stop offset="0.9152" stop-color="#346DEC"/>
<stop offset="1" stop-color="#3479F3"/>
</linearGradient>
<linearGradient id="paint14_linear_2318_3110" x1="489.533" y1="188.42" x2="115.023" y2="108.686" gradientUnits="userSpaceOnUse">
<stop offset="0.00558659" stop-color="#3502B0"/>
<stop offset="0.174" stop-color="#3510B8"/>
<stop offset="0.4895" stop-color="#3533CC"/>
<stop offset="0.9152" stop-color="#346DEC"/>
<stop offset="1" stop-color="#3479F3"/>
</linearGradient>
<radialGradient id="paint15_radial_2318_3110" cx="0" cy="0" r="1" gradientUnits="userSpaceOnUse" gradientTransform="translate(234.641 184.096) rotate(-54.1636) scale(152.482 312.334)">
<stop offset="0.00837989" stop-color="#3ABCFF"/>
<stop offset="0.6564" stop-color="#2897FF"/>
<stop offset="1" stop-color="#1079FF"/>
</radialGradient>
<radialGradient id="paint16_radial_2318_3110" cx="0" cy="0" r="1" gradientUnits="userSpaceOnUse" gradientTransform="translate(386.361 166.549) rotate(-54.1635) scale(33.7259 69.082)">
<stop offset="0.00837989" stop-color="#3ABCFF"/>
<stop offset="0.6564" stop-color="#2897FF"/>
<stop offset="1" stop-color="#1079FF"/>
</radialGradient>
<radialGradient id="paint17_radial_2318_3110" cx="0" cy="0" r="1" gradientUnits="userSpaceOnUse" gradientTransform="translate(327.508 170.691) rotate(-54.1636) scale(81.3826 166.698)">
<stop offset="0.00837989" stop-color="#3ABCFF"/>
<stop offset="0.6564" stop-color="#2897FF"/>
<stop offset="1" stop-color="#1079FF"/>
</radialGradient>
<linearGradient id="paint18_linear_2318_3110" x1="522.947" y1="343.667" x2="45.4887" y2="242.013" gradientUnits="userSpaceOnUse">
<stop stop-color="#103EFF"/>
<stop offset="0.9916" stop-color="#3ABCFF"/>
</linearGradient>
<linearGradient id="paint19_linear_2318_3110" x1="759.405" y1="287.319" x2="439.031" y2="219.111" gradientUnits="userSpaceOnUse">
<stop offset="0.00837989" stop-color="#1B5AFF"/>
<stop offset="1" stop-color="#103EFF"/>
</linearGradient>
<radialGradient id="paint20_radial_2318_3110" cx="0" cy="0" r="1" gradientUnits="userSpaceOnUse" gradientTransform="translate(253.928 181.813) rotate(-54.1635) scale(304.333 557.151)">
<stop offset="0.0196" stop-color="#22B4FF"/>
<stop offset="0.2933" stop-color="#0A66FF"/>
<stop offset="0.3926" stop-color="#0B58EC"/>
<stop offset="0.5933" stop-color="#0D35BC"/>
<stop offset="0.8547" stop-color="#110075"/>
</radialGradient>
<radialGradient id="paint21_radial_2318_3110" cx="0" cy="0" r="1" gradientUnits="userSpaceOnUse" gradientTransform="translate(253.927 181.811) rotate(-54.1635) scale(304.319 557.125)">
<stop offset="0.0196" stop-color="#22B4FF"/>
<stop offset="0.2933" stop-color="#0A66FF"/>
<stop offset="0.3926" stop-color="#0B58EC"/>
<stop offset="0.5933" stop-color="#0D35BC"/>
<stop offset="0.8547" stop-color="#110075"/>
</radialGradient>
<radialGradient id="paint22_radial_2318_3110" cx="0" cy="0" r="1" gradientUnits="userSpaceOnUse" gradientTransform="translate(253.963 181.797) rotate(-54.1635) scale(304.286 557.063)">
<stop offset="0.0196" stop-color="#22B4FF"/>
<stop offset="0.2933" stop-color="#0A66FF"/>
<stop offset="0.3926" stop-color="#0B58EC"/>
<stop offset="0.5933" stop-color="#0D35BC"/>
<stop offset="0.8547" stop-color="#110075"/>
</radialGradient>
<linearGradient id="paint23_linear_2318_3110" x1="495.152" y1="141.562" x2="413.41" y2="124.159" gradientUnits="userSpaceOnUse">
<stop stop-color="#3479F3"/>
<stop offset="0.0848" stop-color="#346DEC"/>
<stop offset="0.5105" stop-color="#3533CC"/>
<stop offset="0.826" stop-color="#3510B8"/>
<stop offset="0.9944" stop-color="#3502B0"/>
</linearGradient>
<linearGradient id="paint24_linear_2318_3110" x1="688.546" y1="282.362" x2="564.523" y2="255.958" gradientUnits="userSpaceOnUse">
<stop stop-color="#3479F3"/>
<stop offset="0.0848" stop-color="#346DEC"/>
<stop offset="0.5105" stop-color="#3533CC"/>
<stop offset="0.826" stop-color="#3510B8"/>
<stop offset="0.9944" stop-color="#3502B0"/>
</linearGradient>
<radialGradient id="paint25_radial_2318_3110" cx="0" cy="0" r="1" gradientUnits="userSpaceOnUse" gradientTransform="translate(643.245 264.366) rotate(-54.1636) scale(27.8658 51.015)">
<stop offset="0.00837989" stop-color="#3ABCFF"/>
<stop offset="0.6564" stop-color="#2897FF"/>
<stop offset="1" stop-color="#1079FF"/>
</radialGradient>
<radialGradient id="paint26_radial_2318_3110" cx="0" cy="0" r="1" gradientUnits="userSpaceOnUse" gradientTransform="translate(454.462 128.778) rotate(-54.1635) scale(8.10785 14.8433)">
<stop offset="0.00837989" stop-color="#3ABCFF"/>
<stop offset="0.6564" stop-color="#2897FF"/>
<stop offset="1" stop-color="#1079FF"/>
</radialGradient>
<radialGradient id="paint27_radial_2318_3110" cx="0" cy="0" r="1" gradientUnits="userSpaceOnUse" gradientTransform="translate(73.515 281.071) rotate(-169.159) scale(470.146 296.67)">
<stop offset="0.0196" stop-color="#22B4FF"/>
<stop offset="0.2933" stop-color="#0A66FF"/>
<stop offset="0.3926" stop-color="#0B58EC"/>
<stop offset="0.5933" stop-color="#0D35BC"/>
<stop offset="0.8547" stop-color="#110075"/>
</radialGradient>
<linearGradient id="paint28_linear_2318_3110" x1="83.2824" y1="188.598" x2="58.7954" y2="225.412" gradientUnits="userSpaceOnUse">
<stop stop-color="#3479F3"/>
<stop offset="0.0848" stop-color="#346DEC"/>
<stop offset="0.5105" stop-color="#3533CC"/>
<stop offset="0.826" stop-color="#3510B8"/>
<stop offset="0.9944" stop-color="#3502B0"/>
</linearGradient>
<radialGradient id="paint29_radial_2318_3110" cx="0" cy="0" r="1" gradientUnits="userSpaceOnUse" gradientTransform="translate(64.108 207.953) rotate(-169.159) scale(12.5267 7.90455)">
<stop offset="0.00837989" stop-color="#3ABCFF"/>
<stop offset="0.6564" stop-color="#2897FF"/>
<stop offset="1" stop-color="#1079FF"/>
</radialGradient>
<radialGradient id="paint30_radial_2318_3110" cx="0" cy="0" r="1" gradientUnits="userSpaceOnUse" gradientTransform="translate(788.594 185.188) rotate(-166.024) scale(530.447 315.826)">
<stop offset="0.0196" stop-color="#22B4FF"/>
<stop offset="0.2933" stop-color="#0A66FF"/>
<stop offset="0.3926" stop-color="#0B58EC"/>
<stop offset="0.5933" stop-color="#0D35BC"/>
<stop offset="0.8547" stop-color="#110075"/>
</radialGradient>
<linearGradient id="paint31_linear_2318_3110" x1="546.433" y1="232.559" x2="585.87" y2="184.324" gradientUnits="userSpaceOnUse">
<stop stop-color="#3479F3"/>
<stop offset="0.0848" stop-color="#346DEC"/>
<stop offset="0.5105" stop-color="#3533CC"/>
<stop offset="0.826" stop-color="#3510B8"/>
<stop offset="0.9944" stop-color="#3502B0"/>
</linearGradient>
<radialGradient id="paint32_radial_2318_3110" cx="0" cy="0" r="1" gradientUnits="userSpaceOnUse" gradientTransform="translate(559.609 205.496) rotate(-166.024) scale(14.2183 8.46548)">
<stop offset="0.00837989" stop-color="#3ABCFF"/>
<stop offset="0.6564" stop-color="#2897FF"/>
<stop offset="1" stop-color="#1079FF"/>
</radialGradient>
<radialGradient id="paint33_radial_2318_3110" cx="0" cy="0" r="1" gradientUnits="userSpaceOnUse" gradientTransform="translate(354.589 134.473) rotate(-54.1635) scale(14.2273 26.0463)">
<stop offset="0.00837989" stop-color="#3ABCFF"/>
<stop offset="0.6564" stop-color="#2897FF"/>
<stop offset="1" stop-color="#1079FF"/>
</radialGradient>
<linearGradient id="paint34_linear_2318_3110" x1="412.961" y1="162.522" x2="245.829" y2="126.939" gradientUnits="userSpaceOnUse">
<stop stop-color="#3479F3"/>
<stop offset="0.0848" stop-color="#346DEC"/>
<stop offset="0.5105" stop-color="#3533CC"/>
<stop offset="0.826" stop-color="#3510B8"/>
<stop offset="0.9944" stop-color="#3502B0"/>
</linearGradient>
<radialGradient id="paint35_radial_2318_3110" cx="0" cy="0" r="1" gradientUnits="userSpaceOnUse" gradientTransform="translate(363.043 298.581) rotate(-54.1636) scale(106.523 195.015)">
<stop offset="0.0196" stop-color="#22B4FF"/>
<stop offset="0.2933" stop-color="#0A66FF"/>
<stop offset="0.3926" stop-color="#0B58EC"/>
<stop offset="0.5933" stop-color="#0D35BC"/>
<stop offset="0.8547" stop-color="#110075"/>
</radialGradient>
<radialGradient id="paint36_radial_2318_3110" cx="0" cy="0" r="1" gradientUnits="userSpaceOnUse" gradientTransform="translate(459.139 296.821) rotate(-54.1635) scale(68.3575 125.144)">
<stop offset="0.0196" stop-color="#22B4FF"/>
<stop offset="0.2933" stop-color="#0A66FF"/>
<stop offset="0.3926" stop-color="#0B58EC"/>
<stop offset="0.5933" stop-color="#0D35BC"/>
<stop offset="0.8547" stop-color="#110075"/>
</radialGradient>
<radialGradient id="paint37_radial_2318_3110" cx="0" cy="0" r="1" gradientUnits="userSpaceOnUse" gradientTransform="translate(390.733 123.108) rotate(-54.1635) scale(221.137 404.84)">
<stop offset="0.0196" stop-color="#22B4FF"/>
<stop offset="0.2933" stop-color="#0A66FF"/>
<stop offset="0.3926" stop-color="#0B58EC"/>
<stop offset="0.5933" stop-color="#0D35BC"/>
<stop offset="0.8547" stop-color="#110075"/>
</radialGradient>
<radialGradient id="paint38_radial_2318_3110" cx="0" cy="0" r="1" gradientUnits="userSpaceOnUse" gradientTransform="translate(158.05 154.532) rotate(-54.1635) scale(201.782 369.407)">
<stop offset="0.0196" stop-color="#22B4FF"/>
<stop offset="0.4497" stop-color="#0A89FF"/>
<stop offset="0.8547" stop-color="#1121F0"/>
</radialGradient>
<radialGradient id="paint39_radial_2318_3110" cx="0" cy="0" r="1" gradientUnits="userSpaceOnUse" gradientTransform="translate(707.71 183.245) rotate(-54.1636) scale(125.786 230.28)">
<stop offset="0.0196" stop-color="#22B4FF"/>
<stop offset="0.4497" stop-color="#0A89FF"/>
<stop offset="0.8547" stop-color="#1121F0"/>
</radialGradient>
<radialGradient id="paint40_radial_2318_3110" cx="0" cy="0" r="1" gradientUnits="userSpaceOnUse" gradientTransform="translate(724.231 186.164) rotate(-54.1638) scale(44.5081 81.482)">
<stop offset="0.0196" stop-color="#22B4FF"/>
<stop offset="0.4497" stop-color="#0A89FF"/>
<stop offset="0.8547" stop-color="#1121F0"/>
</radialGradient>
<radialGradient id="paint41_radial_2318_3110" cx="0" cy="0" r="1" gradientUnits="userSpaceOnUse" gradientTransform="translate(187.823 178.234) rotate(-54.1636) scale(180.414 330.287)">
<stop offset="0.0196" stop-color="#22B4FF"/>
<stop offset="0.4497" stop-color="#0A89FF"/>
<stop offset="0.8547" stop-color="#1121F0"/>
</radialGradient>
<radialGradient id="paint42_radial_2318_3110" cx="0" cy="0" r="1" gradientUnits="userSpaceOnUse" gradientTransform="translate(200.984 208.65) rotate(-54.1636) scale(119.701 219.139)">
<stop offset="0.0196" stop-color="#22B4FF"/>
<stop offset="0.4497" stop-color="#0A89FF"/>
<stop offset="0.8547" stop-color="#1121F0"/>
</radialGradient>
<radialGradient id="paint43_radial_2318_3110" cx="0" cy="0" r="1" gradientUnits="userSpaceOnUse" gradientTransform="translate(-25.2737 232.991) rotate(-54.1635) scale(277.471 507.974)">
<stop offset="0.0196" stop-color="#22B4FF"/>
<stop offset="0.4497" stop-color="#0A89FF"/>
<stop offset="0.8547" stop-color="#1121F0"/>
</radialGradient>
<radialGradient id="paint44_radial_2318_3110" cx="0" cy="0" r="1" gradientUnits="userSpaceOnUse" gradientTransform="translate(44.7824 228.337) rotate(-54.1635) scale(61.4474 112.494)">
<stop offset="0.0196" stop-color="#22B4FF"/>
<stop offset="0.4497" stop-color="#0A89FF"/>
<stop offset="0.8547" stop-color="#1121F0"/>
</radialGradient>
<radialGradient id="paint45_radial_2318_3110" cx="0" cy="0" r="1" gradientUnits="userSpaceOnUse" gradientTransform="translate(513.247 126.665) rotate(-54.1636) scale(383.456 702.006)">
<stop offset="0.0196" stop-color="#22B4FF"/>
<stop offset="0.4497" stop-color="#0A89FF"/>
<stop offset="0.8547" stop-color="#1121F0"/>
</radialGradient>
<radialGradient id="paint46_radial_2318_3110" cx="0" cy="0" r="1" gradientUnits="userSpaceOnUse" gradientTransform="translate(317.298 218.511) rotate(-54.1636) scale(422.473 773.43)">
<stop offset="0.0196" stop-color="#22B4FF"/>
<stop offset="0.4497" stop-color="#0A89FF"/>
<stop offset="0.8547" stop-color="#1121F0"/>
</radialGradient>
<radialGradient id="paint47_radial_2318_3110" cx="0" cy="0" r="1" gradientUnits="userSpaceOnUse" gradientTransform="translate(-4.86283 290.092) rotate(-54.1636) scale(425.894 779.694)">
<stop offset="0.0196" stop-color="#22B4FF"/>
<stop offset="0.4497" stop-color="#0A89FF"/>
<stop offset="0.8547" stop-color="#1121F0"/>
</radialGradient>
<radialGradient id="paint48_radial_2318_3110" cx="0" cy="0" r="1" gradientUnits="userSpaceOnUse" gradientTransform="translate(84.3581 301.302) rotate(-54.1637) scale(292.114 534.781)">
<stop offset="0.0196" stop-color="#22B4FF"/>
<stop offset="0.4497" stop-color="#0A89FF"/>
<stop offset="0.8547" stop-color="#1121F0"/>
</radialGradient>
</defs>
</svg>
